<?xml version="1.0" standalone="no"?>
<!DOCTYPE svg PUBLIC "-//W3C//DTD SVG 1.1//EN" "http://www.w3.org/Graphics/SVG/1.1/DTD/svg11.dtd" >
<svg>
<metadata>
Created by FontForge 20090622 at Tue Nov 10 08:25:50 2015
 By deploy user
Copyright (c) 2015 by Groens. All rights reserved.
</metadata>
<defs>
<font id="Freestyle" horiz-adv-x="250" >
  <font-face 
    font-family="Freestyle"
    font-weight="400"
    font-stretch="normal"
    units-per-em="1000"
    panose-1="0 0 0 0 0 0 0 0 0 0"
    ascent="800"
    descent="-200"
    x-height="399"
    cap-height="748"
    bbox="-707.823 -373.478 1323.64 976.524"
    underline-thickness="50"
    underline-position="-50"
    unicode-range="U+000D-U+FB02"
  />
<missing-glyph horiz-adv-x="165" 
 />
    <glyph glyph-name="o_r" unicode="or" horiz-adv-x="617" 
d="M209 252q27 3 50 24.5t33 40.5t25.5 57l18.5 45q-41 29 -53 79.5t4.5 92.5t50.5 52q27 8 52 -4.5t32 -34.5q6 -21 1 -47t-21.5 -69t-20.5 -58q3 -2 27.5 -17t47 -31t34.5 -29q10 -11 13.5 -30.5t0 -52.5t-7 -56.5t-13 -71l-13.5 -67.5q-27 -144 -15 -146q9 -1 43 69
q0 1 1 2q51 106 121 293q6 16 20 2q15 -15 8 -35l-32 -96t-52.5 -141.5t-72 -153.5t-61.5 -60q-38 -2 -57 28.5t-18.5 88.5t8 114.5t22.5 131.5q4 21 11 53.5l9.5 44t5 31.5t0.5 27.5t-7 20t-14.5 21.5t-24.5 20q-4 -10 -15.5 -36l-15.5 -35t-14 -28.5t-16.5 -27l-18 -20.5
t-23 -18t-27.5 -10.5t-34 -7.5q-31 -135 -98 -167q-48 -23 -79.5 2t-36.5 79q-7 70 18 135q-33 44 -34 107t30 112.5t81 57.5q53 9 87 -32.5t40.5 -107.5t-0.5 -141zM119 329q-1 -2 -7.5 -22t-11 -36.5t-4.5 -29.5q30 -8 70 -2q11 67 7 127q-2 22 -7 43.5t-14.5 45.5
t-28.5 34.5t-44 2.5q-44 -15 -62 -79t9 -116q28 51 41 65q11 10 23.5 4t22.5 -19t6 -18zM130 122q15 24 28 77q-39 -4 -73 4q-26 -104 -1 -118q18 -11 46 37zM350 474q45 121 24 131q-25 13 -34 -33q-10 -50 3 -87q3 -8 7 -11z" />
    <glyph glyph-name="o_s" unicode="os" horiz-adv-x="593" 
d="M289 295l2 5q-43 26 -56.5 96t15 129t91.5 53q20 -2 31.5 -11.5t13.5 -29t1 -38.5t-10 -51t-16 -53.5t-21 -59.5q8 -8 21.5 -17t37.5 -23l40 -24q93 30 165 28q20 -1 25 -18q2 -16 -14 -18q-67 -3 -139 -25q53 -60 64.5 -139t-24 -149t-110.5 -101q-68 -28 -113 35
q-43 63 -32 160q14 120 105 186q6 5 13 9q-8 11 -18.5 19t-21 14.5t-13.5 8.5q-11 -16 -24.5 -29t-23.5 -20t-23.5 -12t-20 -6.5t-19.5 -4t-14 -2.5q-31 -135 -98 -167q-48 -23 -79.5 2t-36.5 79q-7 70 18 135q-33 44 -34 107t30 112.5t81 57.5q53 9 87 -32.5t40.5 -107.5
t-0.5 -141q44 11 80 43zM396 200q-89 -59 -96 -167q-5 -76 31 -120q31 -38 67 -13q23 16 37 55t7 106t-46 139zM119 329q-1 -2 -7.5 -22t-11 -36.5t-4.5 -29.5q30 -8 70 -2q11 67 7 127q-2 22 -7 43.5t-14.5 45.5t-28.5 34.5t-44 2.5q-44 -15 -62 -79t9 -116q28 51 41 65
q11 10 23.5 4t22.5 -19t6 -18zM130 122q15 24 28 77q-39 -4 -73 4q-26 -104 -1 -118q18 -11 46 37zM309 359q3 12 10 35t10.5 36l8.5 31.5t6 29t1 22t-4 17t-11 6.5q-16 2 -25.5 -13.5t-12.5 -39.5t-2 -50t6.5 -47t12.5 -27z" />
    <glyph glyph-name="o_x" unicode="ox" horiz-adv-x="617" 
d="M529 428q-20 -12 -59 -91l15.5 -61t13.5 -46t17.5 -40.5t17.5 -11.5q26 0 43 25.5t41 85.5q7 18 22 6q16 -13 9 -31q-93 -240 -183 -167q-32 27 -61 116q-7 -16 -17 -36q-21 -42 -39.5 -74t-48.5 -71.5t-66 -63t-74 -25.5l-21 1q-8 1 -13.5 7t-4.5 14t7.5 13.5t14.5 4.5
h14q36 2 71 30t66.5 77.5t51 88t42.5 89.5q-12 41 -28 112q-4 -60 -47 -113.5t-112 -59.5q-31 -135 -98 -167q-48 -23 -79.5 2t-36.5 79q-7 70 18 135q-33 44 -34 107t30 112.5t81 57.5q53 9 87 -32.5t40.5 -107.5t-0.5 -141q63 15 86.5 71t39.5 192q1 14 48 10.5t51 -17.5
q2 -9 9 -47t13 -63q28 49 58 67q17 7 26 -11q7 -17 -11 -26zM119 329q-1 -2 -7.5 -22t-11 -36.5t-4.5 -29.5q30 -8 70 -2q11 67 7 127q-2 22 -7 43.5t-14.5 45.5t-28.5 34.5t-44 2.5q-44 -15 -62 -79t9 -116q28 51 41 65q11 10 23.5 4t22.5 -19t6 -18zM130 122q15 24 28 77
q-39 -4 -73 4q-26 -104 -1 -118q18 -11 46 37z" />
    <glyph glyph-name="o_z" unicode="o&#x7a;" horiz-adv-x="744" 
d="M390 326q14 34 31 67t45.5 75.5t62.5 60t67 -0.5q23 -12 26 -36.5t-6.5 -47t-25.5 -41.5q-45 -57 -117 -90q-12 -23 -14 -38q54 20 104 -14.5t69 -92.5q42 16 65.5 41.5t47.5 80.5q10 14 23 5.5t8 -26.5q-14 -48 -49.5 -86t-78.5 -59q13 -97 -25.5 -190.5t-115 -145
t-162.5 -31.5q-51 12 -68.5 57t-2.5 96q25 88 94.5 142.5t175.5 86.5q-1 39 -14 66t-33.5 36t-50 -11.5t-59.5 -70.5q-8 -12 -20 -11t-16 12q-4 12 1 47t20 74q-32 -4 -85 -37t-86 -37q-31 -135 -98 -167q-48 -23 -79.5 2t-36.5 79q-7 70 18 135q-33 44 -34 107t30 112.5
t81 57.5q53 9 87 -32.5t40.5 -107.5t-0.5 -141q20 2 38 12.5t31.5 22.5t42.5 23.5t69 15.5zM549 97q-39 -13 -68 -26t-64 -34.5t-60.5 -52t-40.5 -69.5q-7 -19 -9 -39t1.5 -39t17.5 -31t38 -11q46 1 91.5 46.5t72.5 116.5t21 139zM119 329q-1 -2 -7.5 -22t-11 -36.5
t-4.5 -29.5q30 -8 70 -2q11 67 7 127q-2 22 -7 43.5t-14.5 45.5t-28.5 34.5t-44 2.5q-44 -15 -62 -79t9 -116q28 51 41 65q11 10 23.5 4t22.5 -19t6 -18zM130 122q15 24 28 77q-39 -4 -73 4q-26 -104 -1 -118q18 -11 46 37zM492 368q38 23 68 60q34 42 23 57q-5 3 -9 3
t-12 -9t-14.5 -18t-15 -23.5l-15 -25.5l-14 -24.5t-11.5 -19.5z" />
    <glyph glyph-name="T_h" unicode="Th" horiz-adv-x="783" 
d="M470 354q-12 -141 -4 -130q1 1 2 4q22 67 67.5 118.5t82.5 42.5q51 -13 56 -78.5t-22 -180.5q-37 -180 -10 -160q31 23 110 232q18 48 31 88q6 18 22 5t10 -30q-5 -13 -18 -52.5l-25 -73.5l-29.5 -80t-35.5 -82t-38 -69t-41.5 -51.5t-42.5 -18.5q-57 -1 -41 163
q4 45 18 138q21 138 12 156q-7 13 -28 -10q-34 -38 -102 -254q-5 -15 -31 -30t-35 4q-7 20 -11.5 123t3.5 257t34 261q-187 46 -248 52q-112 11 -136 -41q-32 -70 27 -106q18 -9 9 -27q-7 -16 -26 -8q-74 45 -56 125q7 35 29.5 59t60.5 34.5t76 15t93.5 0t96 -9.5t99.5 -15
q45 113 119 117q38 2 56 -31.5t19 -74.5q0 -12 -2 -38q13 0 29 2q24 4 36 13t17 30q1 8 8 13t15 3q8 -1 12.5 -8t2.5 -15q-8 -29 -32.5 -67t-47.5 -49q-21 -10 -57 -10q-31 -108 -134 -256zM293 611q-4 -327 -9 -532q0 -30 -9.5 -62.5t-26.5 -61t-46.5 -43.5t-65.5 -7
q-60 13 -86.5 68.5t-15.5 117.5q5 38 25 74.5t51 48.5l14 4q18 2 23 -17q0 -8 -5.5 -14.5t-12.5 -7.5q-28 -7 -43.5 -58t-4.5 -105.5t51 -68.5q15 -5 29 18.5t21 56t8 60.5q1 65 5.5 251t5.5 291q0 13 23 14.5t46 -7t23 -20.5zM470 435q68 116 90 178q-39 5 -71 13
q-3 -23 -19 -191zM581 701q2 22 2 34q0 20 -8 46.5t-24 20.5q-25 -9 -46 -90q15 -3 76 -11z" />
    <glyph glyph-name="e_e" unicode="ee" horiz-adv-x="500" 
d="M385 193q24 -14 58 9t59 91q4 12 20 6q19 -6 12 -26q-29 -81 -72.5 -111.5t-102.5 -24.5q-71 6 -97 80q-64 -141 -146 -134q-75 7 -103 96q-26 85 2 176q27 86 83 100q28 6 59 -8q21 -10 26 -33.5t-4 -48.5t-30.5 -47.5t-49.5 -29.5q0 -4 0.5 -26.5t1.5 -39.5t5 -38
t13 -32.5t23 -12.5q24 -1 53 39.5t56 112.5q3 76 47 122.5t109 15.5q21 -10 25.5 -34t-4 -48.5t-30 -47t-49.5 -29.5q4 -58 36 -77zM101 342q-1 -6 -1 -15q37 21 39 49q1 19 -11 22q-13 3 -21 -21q-5 -14 -6 -35zM351 324q-1 -6 -1 -15q37 21 39 49q1 19 -11 22
q-13 3 -21 -21q-5 -14 -6 -35z" />
    <glyph glyph-name="l_l" unicode="ll" horiz-adv-x="500" 
d="M394 78q15 3 39 53t68 161q3 11 19 1q19 -11 11 -31q-58 -149 -82 -192q-54 -99 -106 -94q-26 2 -48.5 38t-28.5 86q-3 24 -7 83q-22 -61 -38.5 -100t-40.5 -88t-48 -73t-47 -22q-26 2 -48.5 38t-28.5 86q-6 53 -8 157t2 223.5t21.5 224t45.5 140.5q27 35 66.5 39.5
t70 -20t36.5 -67.5q11 -76 -33 -181.5t-110 -198.5q0 -6 -0.5 -28.5t-1.5 -50t-1.5 -61t1 -64t5 -56t11.5 -39t19 -11.5q24 6 122 251q-4 141 9 260.5t51 167.5q27 35 66.5 39.5t70 -20t36.5 -67.5q5 -32 -2.5 -68t-15.5 -60t-35.5 -68.5t-37.5 -58.5l-47 -66q1 -12 0 -41.5
t1 -69t5 -75t13.5 -58t25.5 -19.5zM101 421q49 60 80.5 175.5t-5.5 146.5q-31 18 -51 -63q-23 -97 -24 -244v-15zM351 421q31 38 57 93t33 103t-20 67q-31 19 -50 -49q-22 -81 -20 -205v-9z" />
    <glyph glyph-name="r_r" unicode="rr" horiz-adv-x="656" 
d="M1 289q36 109 46 130q-41 29 -53 79.5t4.5 92.5t50.5 52q27 8 52 -4.5t32 -34.5q6 -21 1 -47t-21.5 -69t-20.5 -58q3 -2 27.5 -17t47 -31t34.5 -29q10 -11 13.5 -30.5t0 -52.5t-7 -56.5t-13 -71l-13.5 -67.5q-27 -144 -15 -146q9 -1 43 69q0 1 1 2q34 70 59.5 134t59 158
t46.5 127q-31 22 -45.5 55t-12 62.5t18.5 54t41 31.5q27 8 52 -4.5t32 -34.5q6 -21 0.5 -43t-20.5 -55.5t-21 -54.5q3 -2 27.5 -17t47 -31t34.5 -29q20 -22 27 -35.5t7 -43t-10 -87.5q-27 -144 -15 -146q9 -1 43 69q0 1 1 2q42 87 77 181q6 16 20 2q15 -15 8 -35
q-1 -2 -7.5 -24.5t-12 -38.5l-15.5 -45.5t-19 -52.5t-21 -51t-24 -48.5t-24.5 -39t-25.5 -28.5t-25 -11q-63 -4 -73 73q-10 66 24 264q1 9 4 26q6 34 -4 50.5t-60 55.5q-14 -50 -37.5 -124.5t-64 -187.5t-84.5 -190t-77 -79q-38 -2 -57 28.5t-18.5 88.5t8 114.5t22.5 131.5
q4 21 11 53.5l9.5 44t5 31.5t0.5 27.5t-7 20t-14.5 21.5t-24.5 20q-3 -8 -13.5 -39l-20 -58.5t-14.5 -36.5q-11 -19 -23 -8q-14 11 -4 41zM61 474q45 121 24 131q-25 13 -34 -33q-10 -50 3 -87q3 -8 7 -11zM389 474l9.5 25l9 22.5t7 18.5t5 16t1.5 12.5t-2 10t-6 5.5
q-27 14 -35 -32q-8 -45 6 -71q2 -5 5 -7z" />
    <glyph glyph-name="s_s" unicode="ss" horiz-adv-x="608" 
d="M2 300q-43 26 -56.5 96t15 129t91.5 53q20 -2 31.5 -11.5t13.5 -29t1 -38.5t-10 -51t-16 -53.5t-21 -59.5q8 -8 21.5 -17t37.5 -23l40 -24q29 9 82 16.5t73 12.5q-31 19 -39 64t4.5 87.5t45 71t73.5 19.5q61 -16 58.5 -99t-58.5 -133q7 -8 13 -11.5t20 -9.5t32 -18
q93 30 165 28q20 -1 25 -18q2 -16 -14 -18q-67 -3 -139 -25q43 -37 50.5 -96.5t-28 -110t-105.5 -59.5q-83 -11 -117 48q-32 54 -1 121q30 66 104 98q-7 10 -16.5 17.5t-21 14t-13.5 8.5q-29 -14 -90 -26.5t-66 -14.5q53 -60 64.5 -139t-24 -149t-110.5 -101
q-68 -28 -113 35q-43 63 -32 160q14 120 105 186q6 5 13 9q-8 11 -18.5 19t-21 14.5t-13.5 8.5q-3 -6 -10.5 -29t-14.5 -39.5t-12 -17.5q-7 -1 -9.5 3t-4.5 14q-4 20 16 88zM107 200q-89 -59 -96 -167q-5 -76 31 -120q31 -38 67 -13q23 16 37 55t7 106t-46 139zM411 200
q-100 -67 -96 -130q3 -37 38 -50q23 -8 47 3q25 11 39.5 35.5t9 63t-37.5 78.5zM358 334q25 24 36 60.5t6 64t-22 29.5q-26 4 -40 -28t-8.5 -71.5t28.5 -54.5zM20 359q3 12 10 35t10.5 36l8.5 31.5t6 29t1 22t-4 17t-11 6.5q-16 2 -25.5 -13.5t-12.5 -39.5t-2 -50t6.5 -47
t12.5 -27z" />
    <glyph glyph-name="t_t" unicode="tt" horiz-adv-x="444" 
d="M330 699q5 -32 7 -78q60 -2 82 29q10 15 27 6q17 -11 6 -28q-36 -48 -114 -46q0 -248 -8 -344q-19 -235 37 -138q29 50 78 187q9 20 22.5 5.5t7.5 -32.5q-16 -47 -29 -79t-36 -78.5t-49 -73t-53 -29.5q-33 -4 -53.5 22t-26.5 58.5t-7 76.5q-79 -263 -140 -271
q-22 -2 -38 9t-25 33t-14.5 46.5t-7 56t-1.5 53.5t1 46.5t1 27.5q0 27 2 131.5t2.5 170t-2.5 134.5q-53 4 -61 -10q-9 -18 -26 -10q-19 8 -10 26q23 41 94 35q0 2 -2.5 57.5t-3.5 63.5q-1 7 10 14t28 11t34.5 5.5t30.5 -1.5t14 -10q3 -34 5 -140l77 -2l30 -1h-1q-2 24 -5 48
q-1 7 10 14t28 11t34.5 5.5t30.5 -1.5t14 -10zM104 154q-11 -139 6 -139t84 190q5 13 14 40l15 42q3 233 -2 304q-5 0 -26 2t-43 3.5t-39 1.5q2 -299 -9 -444z" />
    <glyph glyph-name="W_h" unicode="Wh" horiz-adv-x="1290" 
d="M977 354q-12 -141 -4 -130q1 1 2 4q22 67 67.5 118.5t82.5 42.5q51 -13 56 -78.5t-22 -180.5q-37 -180 -10 -160q31 23 110 232q18 48 31 88q6 18 22 5t10 -30q-5 -13 -18 -52.5l-25 -73.5l-29.5 -80t-35.5 -82t-38 -69t-41.5 -51.5t-42.5 -18.5q-57 -1 -41 163
q4 45 18 138q21 138 12 156q-7 13 -28 -10q-34 -38 -102 -254q-5 -15 -31 -30t-35 4q-6 17 -10 112t-1 203q-30 3 -59 21l-2 -20q-14 -113 -47.5 -218t-87.5 -139q-31 -19 -59 -20t-49.5 14.5t-40 39t-32.5 57.5t-24.5 66t-18 68.5t-11.5 61t-7 46.5q-50 -173 -77 -308
q0 -4 1 -20.5t0.5 -26.5t-2.5 -22t-9 -16t-18 0q-23 7 -42 24.5t-15 31.5v3q0 32 -7 102q-5 72 -56 262q-84 314 -156 358q-22 13 -42 -4q-23 -20 -23 -69q-1 -39 16.5 -71.5t52.5 -33.5q19 4 21 -18q2 -19 -18 -22q-30 1 -48.5 10t-35.5 35q-28 42 -29 93.5t28.5 92.5
t83.5 50q64 10 117 -47t86.5 -158.5t54 -205.5t30.5 -212q41 159 79 283q-3 103 5 164q12 70 43 117.5t69 34.5q15 -5 21.5 -17t4 -30t-6 -32t-12 -35.5t-10.5 -27.5q-13 -39 -31 -103l3 -51q5 -64 42 -208q57 -226 104 -217q6 1 11 6q43 37 71.5 150t32.5 178l3 32
q-88 84 -136 233q-45 139 -17 219q18 51 65 53q42 1 71 -50.5t41 -133t15.5 -155t1.5 -140.5v-10q27 -21 57 -21q4 91 15 169.5t31 150t54 114t79 44.5q38 2 56 -31.5t19 -74.5q1 -92 -39.5 -184t-113.5 -198zM700 812q-49 3 -44 -84q6 -101 69 -220q26 -49 56 -86
q11 132 -12.5 259.5t-68.5 130.5zM977 435q33 56 51.5 90t40.5 97t21 113q0 20 -8 46.5t-24 20.5q-12 -4 -22.5 -22.5t-18 -48t-13.5 -60.5t-10.5 -70l-7.5 -66.5t-5.5 -59.5t-3.5 -40zM511 609l4.5 14l7 21.5t7 23t3.5 18t-2 6.5q-14 -8 -20 -83z" />
    <glyph glyph-name="p_s" unicode="ps" horiz-adv-x="695" 
d="M91 480l-11 -481v3q24 374 120 398q51 13 83.5 -29.5t24.5 -108.5q52 20 76 44q-29 23 -42 70t-7.5 93.5t34 79.5t74.5 29q20 -2 31.5 -11.5t13.5 -29t1 -38.5t-10 -51t-16 -53.5t-21 -59.5q8 -8 21.5 -17t37.5 -23l40 -24q93 30 165 28q20 -1 25 -18q2 -16 -14 -18
q-67 -3 -139 -25q53 -60 64.5 -139t-24 -149t-110.5 -101q-68 -28 -113 35q-43 63 -32 160q14 120 105 186q6 5 13 9q-11 14 -35.5 28t-32.5 22l-9.5 -11.5t-10.5 -10.5t-9.5 -8.5t-12 -8.5t-11.5 -7t-13.5 -7l-13.5 -6.5t-16.5 -7.5t-16.5 -7q-15 -45 -52.5 -79.5
t-75.5 -20.5q-23 10 -18 31t22.5 42t33.5 30q8 131 -17 129q-24 -2 -51 -118q-43 -181 -45 -454q0 -22 -31 -29q-40 -10 -65 17q-15 16 -15 42q-1 99 -0.5 204t0 242.5t-3.5 227.5q0 16 27 19t54.5 -4t27.5 -14zM498 200q-89 -59 -96 -167q-5 -76 31 -120q31 -38 67 -13
q23 16 37 55t7 106t-46 139zM411 359q3 12 10 35t10.5 36l8.5 31.5t6 29t1 22t-4 17t-11 6.5q-16 2 -25.5 -13.5t-12.5 -39.5t-2 -50t6.5 -47t12.5 -27z" />
    <glyph glyph-name=".notdef" horiz-adv-x="165" 
 />
    <glyph glyph-name=".null" horiz-adv-x="0" 
 />
    <glyph glyph-name="nonmarkingreturn" horiz-adv-x="333" 
 />
    <glyph glyph-name="NULL" horiz-adv-x="0" 
 />
    <glyph glyph-name="NULL" horiz-adv-x="0" 
 />
    <glyph glyph-name="CR" unicode="&#xd;" horiz-adv-x="165" 
 />
    <glyph glyph-name="space" unicode=" " horiz-adv-x="165" 
 />
    <glyph glyph-name="exclam" unicode="!" horiz-adv-x="254" 
d="M51 756q-4 17 29 29q46 18 77 4q21 -10 17 -33q-23 -133 -34 -291t-1 -242q8 -75 -20 -79q-19 -2 -35 32q-27 58 5 124q9 42 -16 226.5t-22 229.5zM140 58q-2 -26 -24 -39.5t-42.5 0t-19.5 51.5q4 31 27 42.5t42.5 -4t16.5 -50.5z" />
    <glyph glyph-name="quotedbl" unicode="&#x22;" horiz-adv-x="284" 
d="M136 545q-2 -22 -24 -67t-37 -47q-4 0 -8.5 3t-6.5 7t-1 5q14 15 13 63.5t-22 47.5q4 31 27 42.5t42.5 -4t16.5 -50.5zM233 545q-2 -22 -24 -67t-37 -47q-4 0 -8.5 3t-6.5 7t-1 5q14 15 13 63.5t-22 47.5q4 31 27 42.5t42.5 -4t16.5 -50.5z" />
    <glyph glyph-name="numbersign" unicode="#" horiz-adv-x="710" 
d="M615 767q7 10 19 9.5t20.5 -10t3.5 -19.5l-98 -201q9 0 32 -0.5t37 -0.5q12 0 17 -13t0 -25t-16 -12h-94l-136 -285q53 0 92 -1q12 0 17 -13t0 -25t-16 -12h-118q-59 -122 -106 -205q-6 -10 -19 -9t-23 12.5t-2 22.5l91 179q-33 -1 -113 -1q-67 -138 -105 -204
q-6 -10 -19 -9t-23 12.5t-2 22.5l91 178q-5 0 -16 0.5t-17 0.5q-12 -1 -16.5 12t1 26t19.5 13q21 -1 54 -1l138 285q-37 0 -59 1q-12 -1 -16.5 12t1 26t19.5 13q34 -1 80 -1l111 222q7 10 19 9.5t20.5 -10t3.5 -19.5l-98 -202q16 0 54.5 0.5t61.5 0.5q71 147 110 221z
M229 209q19 0 56 0.5t56 0.5l139 285q-18 0 -55.5 -0.5t-60.5 -0.5z" />
    <glyph glyph-name="dollar" unicode="$" horiz-adv-x="542" 
d="M252 750l3 54q1 12 13 16.5t23.5 -1t11.5 -16.5l-2 -52q42 -3 77.5 -21.5t56.5 -45t33.5 -58.5t9 -64.5t-17.5 -60.5t-45 -47.5t-74 -25.5q-19 4 -16 23t22 17q47 -4 68 51q23 59 -3 120q-31 75 -112 77v-376q94 -55 126 -83q59 -54 65 -126q7 -86 -45 -152.5t-150 -76.5
q-2 -82 -6 -131q0 -11 -14 -15.5t-27 2t-10 19.5q4 57 5 124q-64 6 -109 50.5t-51.5 101.5t23.5 116q14 33 33 27q16 -5 10 -28q-2 -9 -9 -18q-36 -64 -0.5 -129t104.5 -70q0 16 3 376q-36 15 -58.5 26t-52.5 31t-47 41t-28.5 53t-10.5 69q3 79 53.5 136t147.5 67zM142 539
q-1 -55 27 -94.5t79 -73.5q0 201 3 339q-51 -16 -79.5 -64t-29.5 -107zM395 128q4 68 -21 108t-74 66q0 -242 -2 -343q42 18 67.5 64.5t29.5 104.5z" />
    <glyph glyph-name="percent" unicode="%" horiz-adv-x="551" 
d="M398 -10q33 -1 58.5 32t35 82.5t8.5 101t-20.5 94.5t-52.5 58q1 2 8.5 5.5t7.5 6.5q-6 11 -20 14t-22 -4q-38 -12 -65.5 -56t-36 -99.5t-4 -108.5t32 -89.5t70.5 -36.5zM403 11q-37 3 -43.5 82.5t12 162t43.5 94.5q39 -27 48.5 -112t-9.5 -157.5t-51 -69.5zM155 359
q33 -1 58.5 32t35 82.5t8.5 101t-20.5 94.5t-52.5 58q1 2 8.5 5.5t7.5 6.5q-6 11 -20 14t-22 -4q-38 -12 -65.5 -56t-36 -99.5t-4 -108.5t32 -89.5t70.5 -36.5zM160 380q-37 3 -43.5 82.5t12 162t43.5 94.5q39 -27 48.5 -112t-9.5 -157.5t-51 -69.5zM453 768q7 10 19 9.5
t20.5 -10t3.5 -19.5l-176 -366t-213 -427q-6 -10 -19 -9t-23 12.5t-2 22.5q48 89 197 396t193 391z" />
    <glyph glyph-name="ampersand" unicode="&#x26;" horiz-adv-x="635" 
d="M252 89q-11 -15 -25.5 -7.5t-10.5 24.5q13 44 44 93t73 93t98 70.5t112 22.5q39 -3 41 -32q2 -22 -17 -32t-39 10q-91 14 -176 -82q45 -9 72 -48.5t28.5 -90t-13 -100.5t-53 -87t-90.5 -43q-127 -15 -197 83q-60 84 -49 197q11 119 94 183q47 37 110 46q-96 45 -109 148
q-10 87 41 158q51 73 124 66q15 -2 30 -7q64 -22 74.5 -67t-28.5 -89.5t-109 -69.5q-18 3 -20.5 18t4.5 25q77 30 102 77q21 40 -15 55q-11 4 -27 5q-38 2 -64 -29t-32.5 -76.5t-2.5 -91.5t25.5 -78.5t52.5 -32.5q56 13 70 -12q10 -19 -9 -34q-29 -24 -71 8q-88 7 -131 -88
q-39 -88 -18 -197q20 -109 87 -145q30 -16 65 -13q45 6 78.5 48t43 92t-9.5 96.5t-67 61.5q-13 -4 -15 -5q-33 -46 -71 -123z" />
    <glyph glyph-name="quotesingle" unicode="'" horiz-adv-x="187" 
d="M136 545q-2 -22 -24 -67t-37 -47q-4 0 -8.5 3t-6.5 7t-1 5q14 15 13 63.5t-22 47.5q4 31 27 42.5t42.5 -4t16.5 -50.5z" />
    <glyph glyph-name="parenleft" unicode="(" horiz-adv-x="320" 
d="M218 619q19 17 43 14q15 -2 5 -13q-88 -101 -124 -243t-5 -285.5t129 -237.5q2 -24 -27 -11q-12 6 -23 15q-112 91 -149 236t4.5 288t146.5 237z" />
    <glyph glyph-name="parenright" unicode=")" horiz-adv-x="320" 
d="M102 619q105 -94 146.5 -237t4.5 -288t-149 -236q-32 -27 -46 -17q-5 4 -4 13q98 94 129 237.5t-5 285.5t-124 243q-11 12 8 13q23 1 40 -14z" />
    <glyph glyph-name="asterisk" unicode="*" horiz-adv-x="344" 
d="M157 583q0 10 10 14t19.5 0t9.5 -13q-1 -48 -1 -96l68 70q11 11 25 -3q10 -11 1 -19l-93 -96l94 -98q6 -6 2 -14.5t-11.5 -11.5t-13.5 2l-71 72q0 -9 -2 -105q1 -13 -17 -15q-19 -1 -23 13v5q1 52 1 109l-78 -79q-5 -6 -13.5 -2t-11.5 11.5t2 14.5l94 98l-93 96
q-10 8 3 20t23 2l74 -76q0 55 2 101z" />
    <glyph glyph-name="plus" unicode="+" horiz-adv-x="519" 
d="M283 49q0 -12 -13 -17t-25 0t-12 16v164q-28 -1 -164 1q-12 -1 -16.5 12t1 26t19.5 13q98 -3 159 -1q-1 28 1 166q-1 12 12 16.5t26 -1t13 -19.5q-2 -100 -1 -161q62 2 166 -1q12 0 17 -13t0 -25t-16 -12h-67.5h-59.5h-39q2 -62 -1 -164z" />
    <glyph glyph-name="comma" unicode="," horiz-adv-x="195" 
d="M144 58q-2 -25 -24.5 -64.5t-48.5 -46.5q-13 -3 -20 4q-1 1 8 7.5t20 23t11 39.5q-32 -5 -32 49q4 31 27 42.5t42.5 -4t16.5 -50.5z" />
    <glyph glyph-name="hyphen" unicode="-" horiz-adv-x="519" 
d="M449 248q12 0 17 -13t0 -25t-16 -12q-93 1 -190 -0.5t-191 0.5q-12 -1 -16.5 12t1 26t19.5 13q85 -2 177.5 0t198.5 -1z" />
    <glyph glyph-name="period" unicode="." horiz-adv-x="188" 
d="M137 58q-2 -26 -24 -39.5t-42.5 0t-19.5 51.5q4 31 27 42.5t42.5 -4t16.5 -50.5z" />
    <glyph glyph-name="slash" unicode="/" horiz-adv-x="539" 
d="M444 767q7 10 19 9.5t20.5 -10t3.5 -19.5l-176 -366t-213 -427q-6 -10 -19 -9t-23 12.5t-2 22.5q48 89 197 396t193 391z" />
    <glyph glyph-name="zero" unicode="0" horiz-adv-x="378" 
d="M206 0q-64 0 -104.5 54t-47.5 133t6 161t54 148t97 84q12 10 32.5 6t29.5 -21q0 -5 -11 -9.5t-13 -7.5q41 -18 68 -67t36 -110t3 -127t-24.5 -120.5t-51.5 -89.5t-74 -34zM214 31q29 -3 52 40t32.5 109.5t9 137.5t-20.5 132t-55 85q-27 -13 -50.5 -92t-32 -169t7 -164.5
t57.5 -78.5z" />
    <glyph glyph-name="one" unicode="1" horiz-adv-x="239" 
d="M184 42q0 -47 -28 -43q-25 3 -49 34q-11 15 -11 24q0 61 4.5 222t3.5 249q-2 0 -6 -6t-9.5 -13t-8.5 -9q-9 -11 -20.5 -6.5t-7.5 17.5q7 14 34.5 49t29.5 40q21 7 50 -6.5t22 -28.5q-10 -62 -11 -154.5t3 -210.5t4 -158z" />
    <glyph glyph-name="two" unicode="2" horiz-adv-x="359" 
d="M102 413q2 -12 -10 -14q-18 -4 -28 22q-27 74 15.5 132.5t114.5 42.5q58 -12 86.5 -51.5t18.5 -101.5q-6 -36 -34.5 -77t-63 -76t-66 -72.5t-46.5 -81.5t-2 -87q6 28 30 38t52.5 7t56.5 -6.5t46 2.5t16 28q-2 11 6 5q12 -10 13 -19q4 -58 -7.5 -81.5t-32.5 -18.5
t-49 16.5l-55 23.5t-52.5 2.5t-40.5 -46.5q-17 35 -18.5 74t7.5 74t27 75t36 71.5t38 70t30 64.5q19 49 12.5 90t-36.5 45q-47 6 -68.5 -47t4.5 -104z" />
    <glyph glyph-name="three" unicode="3" horiz-adv-x="385" 
d="M104 178q7 5 15 -1t8.5 -15t-7.5 -15q-23 -6 -31.5 -30t3.5 -47.5t43 -27.5q58 -7 86 62q28 67 9 139.5t-73 77.5q-24 3 -54 -10q-2 1 -2.5 14.5t1.5 14.5q44 16 76 66.5t29 94.5q0 45 -27.5 62t-54 -2.5t-23.5 -60.5q5 -10 -5.5 -20t-23.5 2q-17 56 20.5 91t93.5 28.5
t86 -53.5q23 -55 -6 -109.5t-80 -74.5q91 0 129 -80q35 -74 6 -159q-29 -87 -107 -115q-44 -16 -98 -8q-46 11 -60 50t1 77t46 49z" />
    <glyph glyph-name="four" unicode="4" horiz-adv-x="300" 
d="M250 16q0 -20 -35 -17q-42 3 -59 29q-6 8 -6 18q-4 2 -2 80t2 79q-34 -3 -107 -3q-34 -4 -34 19q0 24 34 50q85 66 112 309q3 32 51 12q36 -15 43 -30q1 -2 1 -3q-1 -84 -59 -171t-130 -151q19 -12 89 -1q1 7 -1 42.5t1 39.5q13 27 59 45q40 14 41 -3q0 -17 -2 -173.5
t2 -170.5z" />
    <glyph glyph-name="five" unicode="5" horiz-adv-x="374" 
d="M72 592q0 11 8.5 11.5t24 -5.5t34.5 -14.5t42 -15t45 -8t45 8t40 31.5q33 -39 -19 -61q-50 -22 -110 -10q-15 3 -27 9q0 -13 -1.5 -67t-1.5 -86q86 52 133 -19q41 -62 30 -167q-12 -113 -74 -167q-37 -32 -84 -32q-40 0 -67.5 15.5t-36.5 48t16 82.5q21 20 27.5 6
t1.5 -26q-19 -45 -1 -68t61 -12q55 23 65 110q10 82 -24 140q-37 64 -100 29q-12 -6 -24 -16q-4 239 -3 283z" />
    <glyph glyph-name="six" unicode="6" horiz-adv-x="380" 
d="M150 300q-6 -226 50 -262q31 -20 64 29q36 55 36 133q1 92 -45 125q-29 21 -51 0q-14 -13 -15 -38q-5 -8 -15 -6t-8 19q5 44 42 56q42 13 77 -26q38 -43 38 -130q0 -109 -60 -169q-51 -50 -107 -26q-74 32 -97 174q-9 54 -9 121q0 168 81 252q56 58 116 45q57 -13 75 -84
q9 -31 7 -70q-9 -22 -21 -13t-11 25q6 67 -28 96q-31 26 -63 -10q-52 -60 -56 -241z" />
    <glyph glyph-name="seven" unicode="7" horiz-adv-x="288" 
d="M314 522q-136 -128 -151 -498q2 -22 -11 -20q-16 3 -33 32q-8 15 -9 27q-13 120 12 265.5t100 214.5q-15 1 -43.5 -3.5t-44.5 -6t-38 5.5q4 -12 2.5 -33.5t-18.5 -21.5q-13 3 -25 58.5t6 61.5q36 -21 108 -22.5t111 13.5q20 4 35 -22.5t-1 -50.5z" />
    <glyph glyph-name="eight" unicode="8" horiz-adv-x="361" 
d="M240 339q46 -49 64 -124t-9.5 -139.5t-102.5 -75.5q-39 -6 -71 16.5t-49 64.5t-21 91.5t13.5 104t53.5 96.5q-24 29 -29.5 70.5t6 78t42.5 60t73 18.5q36 -4 54 -37.5t17 -75.5t-12 -84t-29 -64zM220 362q20 28 27 73.5t-3.5 82.5t-36.5 41q-52 8 -52 -48.5t41 -118.5
q12 -18 24 -30zM194 49q38 36 19 135t-77 169q-61 -73 -54 -183q6 -84 46 -119q31 -27 66 -2z" />
    <glyph glyph-name="nine" unicode="9" horiz-adv-x="380" 
d="M230 298q6 226 -50 262q-31 20 -64 -29q-36 -55 -36 -133q-1 -92 45 -125q29 -21 51 0q14 13 15 38q5 8 15 6t8 -19q-5 -44 -42 -56q-42 -13 -77 26q-38 43 -38 130q0 109 60 169q51 50 107 26q74 -32 97 -174q9 -54 9 -121q0 -168 -81 -252q-56 -58 -116 -45
q-57 13 -75 84q-9 31 -7 70q9 22 21 13t11 -25q-6 -67 28 -96q31 -26 63 10q52 60 56 241z" />
    <glyph glyph-name="colon" unicode=":" horiz-adv-x="188" 
d="M137 259q-2 -26 -24 -39.5t-42.5 0t-19.5 51.5q4 31 27 42.5t42.5 -4t16.5 -50.5zM137 58q-2 -26 -24 -39.5t-42.5 0t-19.5 51.5q4 31 27 42.5t42.5 -4t16.5 -50.5z" />
    <glyph glyph-name="semicolon" unicode=";" horiz-adv-x="195" 
d="M144 58q-2 -25 -24.5 -64.5t-48.5 -46.5q-13 -3 -20 4q-1 1 8 7.5t20 23t11 39.5q-32 -5 -32 49q4 31 27 42.5t42.5 -4t16.5 -50.5zM144 259q-2 -26 -24 -39.5t-42.5 0t-19.5 51.5q4 31 27 42.5t42.5 -4t16.5 -50.5z" />
    <glyph glyph-name="less" unicode="&#x3c;" horiz-adv-x="560" 
d="M472 19l-213.5 163.5l-186.5 140.5q-9 4 -13 9q-8 6 -8 14q-3 14 8 21l194 146t218 167q10 7 21.5 1t14.5 -17t-4 -19q-116 -96 -381 -295q260 -195 382 -296q9 -7 4.5 -19t-15 -17t-21.5 1z" />
    <glyph glyph-name="equal" unicode="=" horiz-adv-x="519" 
d="M449 204q12 0 17 -13t0 -25t-16 -12q-93 1 -190 -0.5t-191 0.5q-12 -1 -16.5 12t1 26t19.5 13q85 -2 177.5 0t198.5 -1zM449 328q12 0 17 -13t0 -25t-16 -12q-93 1 -190 -0.5t-191 0.5q-12 -1 -16.5 12t1 26t19.5 13q85 -2 177.5 0t198.5 -1z" />
    <glyph glyph-name="greater" unicode="&#x3e;" horiz-adv-x="560" 
d="M88 19q-10 -7 -21.5 -1t-14.5 17t4 19q122 101 382 296q-265 199 -381 295q-9 7 -4.5 19t15 17t21.5 -1q88 -71 218 -167l194 -146q11 -7 8 -21q0 -8 -8 -14q-4 -5 -13 -9l-186.5 -140.5z" />
    <glyph glyph-name="question" unicode="?" horiz-adv-x="469" 
d="M160 531q19 3 23 -17q0 -21 -17 -23q-55 -8 -91 53q-37 63 -19 136q21 86 110 111q32 9 70 9q94 0 141.5 -55t39.5 -145q-4 -47 -28.5 -93t-56 -81l-62 -68.5t-49 -68t-14.5 -66.5q7 -69 -29 -79q-26 -7 -48 22q-31 43 2 100q9 17 25 34q49 32 106.5 108.5t61.5 143.5
q3 46 -11 94t-49.5 82.5t-84.5 26.5q-67 -11 -87 -80q-18 -60 8 -109q22 -41 59 -35zM208 58q-2 -26 -24 -39.5t-42.5 0t-19.5 51.5q4 31 27 42.5t42.5 -4t16.5 -50.5z" />
    <glyph glyph-name="at" unicode="@" horiz-adv-x="460" 
d="M296 268q-5 -116 23 -132q19 -11 36 36q18 49 22 132q7 161 -64 244q-53 62 -119 45q-72 -19 -111 -125q-31 -83 -32 -205q-1 -153 84 -229q66 -59 145 -39q81 20 121 114q3 9 6 17q8 7 15.5 2t3.5 -15q-17 -49 -48 -84t-67 -49t-76 -14.5t-76.5 20.5t-66 54.5t-48 88
t-19.5 121.5q-3 214 87 316q63 71 140 54q75 -17 116 -109q38 -86 31 -211q-5 -97 -34.5 -162t-68.5 -65q-57 0 -67 132q-39 -40 -66 -35q-50 10 -54 77q-4 64 31 113q40 54 91 22q12 -11 13 -30.5t-6 -33.5t-14 -11q-6 1 -9 7t-1 11q10 32 -1 34q-11 3 -20 -34
q-7 -25 -9 -62q-2 -48 8 -49q8 0 34 29q0 46 16 67q15 18 36 19t28 -14.5t-10 -46.5z" />
    <glyph glyph-name="A" unicode="A" horiz-adv-x="579" 
d="M270 610q0 -13 -1 -19q-8 -115 -35 -273q23 1 98 -1q-30 252 -47 303q-18 51 -58 77.5t-86 0.5q-77 -45 -34 -151q6 -17 -11 -27q-17 -7 -25 11q-47 115 27 184q52 48 131 40t110 -65q28 -48 56.5 -163t39.5 -196l2 -10q1 1 5 2.5t5 2.5q15 8 29 37q2 5 5 7q9 11 18 6
q19 -9 13 -26q-21 -54 -70 -69q37 -254 95 -339q5 -5 12 -6.5t12.5 -0.5t10 -1t6.5 -9q3 -13 -15.5 -19.5t-43 -3.5t-38.5 13q-30 26 -53.5 61.5t-36.5 65.5t-25.5 79.5t-17 75.5t-12.5 80q-77 4 -110 1q-67 -334 -150 -367q-56 -24 -85 4.5t-27 86.5q3 97 54 183.5
t136 117.5q18 7 38 10q36 196 40 297q0 7 6 13t13 6q8 0 13.5 -5.5t5.5 -13.5zM183 272q-73 -21 -119 -89q-29 -40 -49 -111t-7 -112q6 -19 25 -21t34 10q58 41 116 323z" />
    <glyph glyph-name="B" unicode="B" horiz-adv-x="701" 
d="M14 572q-72 34 -41 109q14 35 40.5 54.5t58.5 20.5q59 3 108.5 -27.5t68.5 -80.5q30 48 62.5 74t83.5 29q69 2 94.5 -58t8.5 -128q-9 -34 -33 -73q63 -23 104.5 -66t57 -94.5t14.5 -104.5t-18 -103q-20 -58 -82.5 -101.5t-124.5 -36.5q-41 4 -61 38t-18.5 77t15 85
t32.5 63q41 45 82 23t34 -89l-4 -25q-5 -19 -24 -15q-18 3 -15 24q12 72 -16 71q-38 -1 -54.5 -68t-6.5 -108q8 -33 41 -37q36 -5 62.5 32.5t35.5 96t6.5 121t-24.5 114.5t-58 69q-52 -70 -98 -47q-23 12 -24.5 39.5t23.5 46.5t68 10q9 11 13 34.5t1.5 49t-17 47t-40.5 27.5
q-25 5 -50 -9t-40 -53q10 -44 20.5 -101.5t23 -147t11.5 -168t-12.5 -149t-49 -107t-98.5 -25.5q-31 6 -43 68.5t-7 146.5t13 150t15 102l6.5 32.5l7 34.5t9 34t15.5 45q-5 63 -24 115.5t-51 72.5q-42 27 -83 -7q-32 -27 -28 -59q3 -21 25 -31q7 -2 10 -9.5t1 -15.5
q-3 -8 -10.5 -11.5t-15.5 -0.5zM209 440q-7 -24 -12.5 -45.5t-9.5 -44t-5.5 -33t-4 -35t-3.5 -28.5q-5 -38 -8.5 -96.5t0 -127t18.5 -86.5q4 -1 15 9q17 18 21.5 117t0.5 203t-12 167zM396 470q-22 5 -33 1q-12 -5 -9.5 -14.5t11.5 -10.5q15 0 31 24z" />
    <glyph glyph-name="C" unicode="C" horiz-adv-x="442" 
d="M22 741q-40 -79 40 -143q16 -12 25 -16q90 162 241 172q65 7 95 -33q24 -27 15.5 -59t-30.5 -58t-50 -43q-96 -60 -183 -46q-12 -37 -19.5 -109t-5 -156.5t15.5 -158.5t46.5 -117t83.5 -31q30 8 51 34t27.5 58.5t4.5 63.5t-17 53t-38 24q-18 2 -25 -22q-28 -24 -40 -4
q-10 20 7 43q24 32 76 20q42 -10 61 -45.5t17.5 -74.5t-13.5 -79q-15 -51 -48.5 -81t-75.5 -32q-72 -5 -126.5 30.5t-84.5 97t-43.5 134t-11.5 150.5q5 149 52 234q-37 18 -60 48q-66 78 -20 166q4 7 11.5 9t14.5 -2t9.5 -12t-2.5 -15zM189 552q63 0 101 14t78 51t30 67.5
t-67 30.5q-34 0 -77 -48.5t-65 -114.5z" />
    <glyph glyph-name="D" unicode="D" horiz-adv-x="715" 
d="M12 570q-71 37 -41 110q28 68 92 75q61 7 112 -25t71 -85q33 68 87.5 90.5t115.5 6.5q58 -16 100.5 -60t64 -99t31.5 -121t9.5 -122.5t-7.5 -105.5q-8 -55 -36.5 -113t-81 -101.5t-113.5 -37.5q-41 4 -61 38.5t-18 77.5t15 85.5t33 63.5q41 45 81.5 22t34.5 -89l-4 -24
q-8 -21 -25 -16q-8 2 -12 9t-2 15l3 20q4 43 -14.5 51t-40.5 -25q-14 -20 -24.5 -63.5t-2.5 -83.5t40 -41q21 -1 38.5 11.5t29 38.5t19.5 50.5t14 62.5t8 57.5t5 51.5q14 196 -56 318q-47 83 -108 85q-64 2 -102 -92q48 -186 52 -292q0 -6 3 -37t5 -59.5t1.5 -70.5t-4 -77
t-14 -70.5t-27 -58.5t-45 -34.5t-65.5 -4.5q-31 6 -43 69t-6.5 149.5t13 150.5t14.5 103q18 99 44 168q-12 44 -18.5 65.5t-24 54t-38.5 45.5q-42 26 -83 -8q-32 -28 -28 -60q3 -21 24 -31q19 -6 12 -24q-7 -19 -27 -13zM211 461q-25 -83 -38 -207q-5 -43 -8 -99t0 -126
t18 -88q8 -1 14 9q26 36 31.5 144t-1 199t-16.5 168z" />
    <glyph glyph-name="E" unicode="E" horiz-adv-x="427" 
d="M25 725q-38 -78 40 -141q25 -21 52 -27q4 81 65 141.5t145 52.5q53 -5 78 -34q38 -45 0.5 -96.5t-107 -82.5t-122.5 -29q-2 -22 7 -40q86 27 126 -8q26 -24 8 -51q-16 -24 -59 -29q-50 -6 -87 31q-63 -77 -66 -236q0 -104 33.5 -170.5t93.5 -62.5q56 2 95 61t36 114
q-3 24 -22 45t-45 18q-11 -2 -19 -20t-19 -21q-18 -5 -25 17q-10 29 18 48q10 7 25 11q52 13 86.5 -16.5t38.5 -78.5q6 -72 -42.5 -140t-123.5 -77t-135.5 34t-90.5 112t-27 144q8 176 159 259q-17 23 -22 63q-65 14 -105 64q-67 77 -21 165q4 7 11.5 9.5t14.5 -1.5
q17 -13 6 -28zM181 549q87 -5 155 56q47 42 44 78q-2 38 -66 25h-2q-31 -6 -72.5 -49t-58.5 -110zM203 434q22 -17 51 -14q32 7 33 13q0 3 -4 7q-5 6 -35 5.5t-45 -11.5z" />
    <glyph glyph-name="F" unicode="F" horiz-adv-x="372" 
d="M293 605l-2 -116q39 -8 61 -2l1 18q3 23 14.5 31.5t23 0.5t15.5 -28q8 -31 -17 -49q-4 -44 -5 -51q0 -8 -5.5 -14t-13.5 -6q-9 0 -14.5 6t-5.5 14q2 33 3 38q-27 -3 -57 2q-4 -237 -8 -379q-1 -31 -10 -63.5t-26.5 -61.5t-47 -43.5t-65.5 -6.5q-60 13 -87 69t-16 117
q5 37 25.5 75t50.5 50l15 4q18 2 23 -18q1 -7 -4.5 -13.5t-13.5 -7.5q-28 -8 -43.5 -59.5t-4 -106t50.5 -68.5q16 -6 29.5 17.5t20.5 56.5t8 61q3 125 11 397q-42 5 -44 -10q-2 -20 -21 -18q-20 2 -18 21q7 55 83 46q2 74 2 111q0 13 23 14.5t46 -7.5t23 -21zM28 509
q-75 46 -57 127q11 52 44.5 79t77 30.5t98.5 -3t104 -19t99 -20t79 -3.5q20 3 26 4t12 7.5t10 21.5q3 17 23 15q8 -1 12.5 -8t2.5 -15q-8 -29 -32.5 -67.5t-48.5 -48.5q-40 -18 -89 -5t-107.5 34l-109.5 40.5t-93.5 15.5t-60.5 -42q-34 -70 28 -107q17 -10 8 -28
q-9 -16 -26 -8z" />
    <glyph glyph-name="G" unicode="G" horiz-adv-x="492" 
d="M31 721q-18 -42 -7 -77.5t47 -63.5q6 -6 12 -9q40 76 91 114q30 25 73 42.5t89.5 16t71.5 -32.5q21 -26 13 -61t-36.5 -65.5t-67.5 -57t-80 -35.5t-72 0q-15 -25 -26.5 -100.5t-12.5 -157t20.5 -143t65.5 -58.5q14 1 27 9.5t21.5 17.5t18 28t13.5 29t12 33.5t10 28.5
q-3 73 2.5 132t17.5 96t28.5 61t34 32.5t34.5 5.5q15 -2 23 -15t8 -31.5t-2 -33.5t-5 -28q-23 -92 -50 -168q1 -110 11 -239q13 -121 -72 -205q-38 -37 -87 -44.5t-86.5 21t-41.5 86.5q-4 51 25 86.5t79 31.5l14 -2q8 -1 12 -7.5t2 -14.5q-1 -8 -7.5 -12.5t-14.5 -2.5l-9 1
q-44 4 -58 -41q-14 -44 10 -80q21 -30 57 -28q39 2 59.5 66.5t19.5 132t-1 108.5q-37 -83 -99 -93q-19 -4 -44 1q-54 14 -94 67q-60 83 -62 221.5t50 251.5q-31 19 -49 41q-64 77 -20 165q4 7 11.5 8.5t14.5 -2.5t9 -12t-3 -14zM179 527q42 -13 95.5 14.5t86 69.5t22.5 67
q-22 51 -94 -6q-59 -47 -97 -115q-9 -17 -13 -30zM407 363q17 67 18 78q0 8 -1 14q-12 -25 -17 -92z" />
    <glyph glyph-name="H" unicode="H" horiz-adv-x="543" 
d="M515 730q-9 5 -15.5 5.5t-11 -2t-8 -9t-5 -12t-4.5 -15.5t-5 -15q-27 -82 -27 -323h7q19 0 26 1q9 13 22 2q6 -4 7.5 -11.5t-2.5 -14.5q-13 -15 -53 -13h-7q2 -270 18 -336q1 -7 3 -13.5l5.5 -17.5t9 -16t11.5 -2q18 8 25 -8q9 -13 -6 -24q-27 -10 -50 -6.5t-39 14.5
q-15 9 -26.5 25.5t-19 39.5t-13.5 45.5t-9 54.5t-4.5 55t-1.5 57v51.5t1 48.5t1 38q-75 9 -123 7q-2 -109 -7 -193q-2 -78 -54 -124.5t-120 -48.5q-50 -2 -75.5 38.5t-23.5 93.5q3 78 51 158.5t116 99.5l17 3q2 62 -0.5 180t-1.5 175q0 11 23.5 15t46.5 -2t23 -17
q0 -52 4 -166t2 -176q44 2 122 -6q-8 379 121 404q31 6 69 -10q16 -9 6 -26q-13 -13 -25 -4zM118 148l6 177l-7 -1q-52 -13 -90.5 -76.5t-47.5 -126.5q-5 -41 8.5 -78.5t51.5 -35.5q40 1 59 46.5t20 94.5z" />
    <glyph glyph-name="I" unicode="I" horiz-adv-x="407" 
d="M136 493q-21 20 -29 35.5t-11 43.5q-6 86 55 141.5t147 34.5q34 -9 47.5 -23t9.5 -46q-25 -247 -20 -383q2 -52 -6.5 -111.5t-28.5 -122.5t-63 -106.5t-101 -48.5q-50 -4 -89.5 26t-55.5 78.5t-14 100.5t36 97.5t93 64.5l22 5q18 6 24 -13q2 -8 -2.5 -15t-13.5 -8l-17 -5
q-79 -26 -98 -114q-17 -74 17 -135q32 -56 84 -45q41 11 67 80t33 138.5t5 128.5q-1 34 2.5 197t7.5 226q-31 0 -57 -21t-38.5 -50.5t-9 -63t25.5 -56.5q7 -4 9 -12.5t-3 -13.5q-5 -7 -13.5 -8t-14.5 4z" />
    <glyph glyph-name="J" unicode="J" horiz-adv-x="394" 
d="M86 246q-102 53 -106 163q-3 62 25 130.5t73.5 121t111 77.5t130.5 4q18 -6 29 -14.5t16 -16t3.5 -22.5t-3 -22t-8.5 -27.5t-9 -27.5q-28 -92 -32.5 -186t6.5 -239.5t12 -178.5q5 -115 -33.5 -177t-123.5 -77q-68 -11 -105 47q-32 51 -16 104q15 46 62 56q8 2 14 -3
t7 -13q2 -8 -3 -14.5t-13 -6.5q-28 -6 -32.5 -41.5t18 -66t61.5 -23.5q33 5 43 68t5.5 165t-10 214.5t3 241t37.5 220.5q-40 17 -91.5 -20.5t-90.5 -103.5t-47 -128q-14 -117 82 -170q17 -7 10 -25q-10 -17 -26 -9z" />
    <glyph glyph-name="K" unicode="K" horiz-adv-x="542" 
d="M-33 560q-21 47 -7 92t57 75q64 40 133.5 12.5t94.5 -92.5q30 -74 31 -222q144 262 296 308l27 6q7 2 14 -3t8 -13t-4.5 -14t-12.5 -7l-21 -5q-130 -41 -265 -276q52 -3 92.5 -52.5t63.5 -118.5t39.5 -137.5l28.5 -116.5t22 -49q8 0 13.5 -6t5.5 -13q0 -8 -5.5 -14
t-13.5 -6q-54 2 -90.5 38.5t-51.5 90t-27.5 114.5t-20 112.5t-27 84.5t-51.5 30l-10.5 -21l-9.5 -19q-5 -222 -22 -317q-13 -64 -60 -96t-84 -16q-24 11 -25 55t17.5 105.5t40.5 119.5t48 112q2 168 -9 254q-15 130 -80 152q-44 14 -81 -24q-39 -40 -26 -90q2 -7 5 -14
q10 -16 -7 -27q-17 -7 -26 8zM188 199q-30 -75 -50 -150.5t-12 -103.5q8 0 17 11q34 41 45 243z" />
    <glyph glyph-name="L" unicode="L" horiz-adv-x="383" 
d="M72 544q-71 34 -55 112q10 60 61 84t105 -3q60 -30 92.5 -124.5t34.5 -205.5t-14.5 -219.5t-46.5 -174.5q43 -17 83 -27t81.5 -5t54.5 35q5 15 24 12q8 -3 11.5 -10.5t1.5 -15.5q-10 -23 -17 -36t-19 -29t-28 -24t-37 -9q-23 -2 -48 4.5t-40 13.5t-48.5 26.5t-46.5 26.5
q-22 -34 -71.5 -53.5t-92.5 -15.5q-65 6 -83 56q-16 44 16 79q40 44 118 27q38 -10 58 -21q22 50 32.5 204.5t-1 297t-45.5 153.5q-42 15 -71 -9t-28 -60.5t33 -52.5q16 -5 10 -24q-3 -7 -10.5 -10.5t-13.5 -1.5zM146 13q-19 11 -47 15q-65 15 -85 -18q-14 -23 5 -44
q25 -29 70 -4q28 15 57 51z" />
    <glyph glyph-name="M" unicode="M" horiz-adv-x="612" 
d="M58 153q-35 1 -54.5 -39t-14 -87.5t33.5 -65.5q32 -17 58 -19t47 16.5t37 43t29 61t21.5 70t14 70t8.5 62t4 44.5q-53 111 -75 212.5t-14 161t38 72.5q29 14 49 -8t31 -56q28 -90 19 -247l45 -101t50 -119l39.5 83t33.5 70q18 41 31 77v25q0 213 32 266q16 27 39 19
q24 -7 30 -41t-4.5 -84.5t-25 -96.5t-32.5 -94q3 -131 7 -188q20 -275 56 -339q11 -17 -4 -27q-8 -5 -16 -3t-12 8q-58 103 -67 455l-39 -79t-45 -100q23 -96 13 -162.5t-42 -89.5q-19 -14 -36 -11t-24 23q-12 39 -8.5 67.5t24.5 86.5q-8 24 -17 45l-22.5 50t-22.5 51
q-5 -47 -16.5 -96t-32 -103.5t-57 -90.5t-81.5 -40q-41 -3 -83 23q-33 21 -46 66t-5.5 89t37 76.5t72.5 31.5q8 0 13 -6.5t4 -15.5q-2 -18 -20 -16zM252 542q-3 142 -39 175q-9 10 -10 -13q-1 -10 0 -25v-1q3 -20 9 -37t20 -50t20 -49zM531 577q28 108 18 143
q-15 -38 -18 -143zM363 28q-14 -21 -18.5 -44t8.5 -26q15 7 10 70z" />
    <glyph glyph-name="N" unicode="N" horiz-adv-x="555" 
d="M69 147q-34 1 -53.5 -39t-14 -86.5t34.5 -62.5q55 -29 99.5 10.5t69 116.5t37.5 152t13 130q-17 37 -40.5 117.5t-35 163.5t21.5 100q50 24 81 -64q23 -82 22 -191q27 -59 66 -153t43 -102q1 -6 14 -32q4 108 15 215q12 137 26 190q29 103 93 136l22 8q8 4 16 0t10 -12
t-2 -15.5t-11 -8.5l-19 -7q-17 -9 -31 -24t-23.5 -40l-16 -41.5t-11.5 -52.5l-6.5 -47t-4.5 -50l-4 -39q-1 -17 -7 -86t-9 -121.5t-3 -99.5q71 -210 14 -217q-28 -3 -41 22.5t-17 67.5q-70 192 -125 307q-2 -30 -4.5 -49.5t-6 -36t-5.5 -25t-8.5 -28t-10.5 -33.5
q-8 -29 -18.5 -56.5t-26 -59t-35.5 -53.5t-43.5 -36.5t-54 -12t-63.5 22.5q-44 28 -52.5 92t22.5 117t88 52q18 -2 18 -21q-2 -18 -23 -18zM263 590q-9 95 -38 123q-5 2 -7 1q-2 -3 -2 -7t2 -11l4 -13.5t7 -17.5l9 -20l11.5 -25.5z" />
    <glyph glyph-name="O" unicode="O" horiz-adv-x="437" 
d="M274 436q0 -21 -19 -21q-18 -2 -21 19q-3 32 -15 51.5t-41 31.5q-31 13 -54 -54q-33 -100 -28 -272q6 -179 52 -228q12 -13 26 -14q54 -1 97 82q42 76 58 205.5t-5 258.5t-78 191q-28 30 -61 36t-55.5 -10.5t-33 -49t6.5 -79.5q3 -7 0 -15t-11 -10q-17 -7 -26 11
q-24 64 -7.5 109t50 68.5t81 15t84.5 -50.5q64 -69 87.5 -212.5t3 -288.5t-74.5 -225q-41 -60 -100 -77t-119 25q-60 49 -86 153.5t-14.5 211.5t51.5 174q36 59 91.5 80t113.5 -16q26 -20 34 -41t13 -59z" />
    <glyph glyph-name="P" unicode="P" horiz-adv-x="560" 
d="M13 566q-72 35 -42 110q21 49 61 66.5t79.5 6t75.5 -42.5t52 -73q31 60 73.5 90t83.5 25t77 -31t59.5 -78t26.5 -117q3 -83 -20 -154t-75.5 -111t-123.5 -22q-39 10 -45 49q-6 38 21 55q22 14 54 2l16 -8q7 -3 9 -11.5t-2 -15.5q-11 -17 -28 -7q-31 16 -33 -2
q-1 -14 10 -21q3 -2 6 -2q69 -6 99 96q28 96 8 210q-19 103 -64 117q-9 3 -19 1q-34 -6 -61.5 -31.5t-54.5 -92.5q22 -85 28 -238q1 -25 1 -56.5t-2 -88t-9 -105.5t-18.5 -95t-33 -70t-49.5 -18q-41 8 -46.5 137.5t12 267.5t38.5 192q-14 168 -64 199q-41 26 -82 -7
q-32 -28 -28 -60q3 -20 23 -30q19 -5 14 -25q-12 -18 -27 -11zM191 416q-20 -67 -26 -251.5t18 -223.5q13 -13 13.5 211.5t-5.5 263.5z" />
    <glyph glyph-name="Q" unicode="Q" horiz-adv-x="464" 
d="M251 230q-3 -37 -11.5 -58t-33.5 -40q-57 -39 -112.5 -18t-86.5 80q-31 57 -38 147.5t10 178t65 155.5t118 79q119 20 184 -114q61 -127 49 -319q-13 -196 -92 -313q-23 -34 -49 -56q109 -64 151 -26l11 11q11 17 26 6q16 -12 6 -27l-17 -20q-68 -61 -208 31
q-29 -19 -61 -20q-61 -6 -115.5 24t-57.5 88q-4 40 30 54t69 -4q14 -6 29 -15t25 -17l29 -23.5t30 -23.5q60 58 77 251q16 193 -23 340q-34 134 -98 131q-12 -1 -24 -6q-47 -21 -78.5 -78t-42 -125t-7.5 -135.5t19 -114.5q16 -50 51.5 -83.5t81.5 -20.5q29 9 40.5 28.5
t16.5 55.5q0 8 5.5 13.5t13.5 5.5q20 -2 18 -22zM167 -31l-55 42q-39 28 -67 29q-19 1 -18 -20q2 -31 27 -47.5t55 -15t58 11.5z" />
    <glyph glyph-name="R" unicode="R" horiz-adv-x="573" 
d="M8 578q-35 16 -46 44.5t4 64.5q26 58 87.5 75t118 -16t68.5 -103q34 69 78 94.5t111 12.5q47 -9 78 -46.5t41 -86.5t5.5 -101t-24.5 -91q-35 -70 -108 -107q40 -27 63.5 -74t31.5 -95t14 -92.5t20.5 -75t42.5 -35.5q16 -11 9 -26t-27 -11q-51 0 -85.5 37t-50 91.5
t-24 110l-15.5 100.5t-16 55q-11 -5 -25 -8q-51 -6 -59 21q-6 21 17 36q33 21 76 -10q27 13 45 97t7 169t-57 97q-37 9 -76 -31t-52 -93q7 -31 14.5 -90.5t13.5 -139t3 -159t-13.5 -145.5t-38.5 -105t-70 -33q-46 7 -49 134.5t19 263t45 197.5q-2 8 -7.5 33t-8.5 37l-9 34.5
t-10.5 35t-11 27.5t-13.5 25t-14 15q-39 29 -80 -4q-33 -26 -31 -59q1 -24 23 -34q8 -2 11.5 -10t1.5 -16q-3 -8 -11 -11t-16 1zM201 407q-11 -37 -16 -61.5t-7.5 -51t-3.5 -33.5q-5 -42 -9.5 -99t-2 -126.5t16.5 -88.5q25 -15 27.5 203.5t-5.5 256.5zM368 327q-23 24 -43 8
q-10 -8 -4 -15q5 -4 17 -2q16 0 30 9z" />
    <glyph glyph-name="S" unicode="S" horiz-adv-x="444" 
d="M298 468q50 -4 72 49q25 56 -3 114q-33 70 -121 77q-91 8 -136 -74q-41 -75 -18 -170q25 -104 113 -149q15 -8 31 -13q25 -7 53 -25q48 -29 72 -80t19.5 -104t-26.5 -100t-67.5 -74.5t-102.5 -21.5q-63 7 -105.5 51.5t-47.5 102t27 118.5l19 27q5 7 13 8t14 -4
q15 -12 4 -27l-16 -23q-41 -68 -8.5 -137.5t106.5 -64.5q31 3 58.5 47.5t34.5 102.5q10 64 -28.5 125t-114.5 81q-66 17 -107.5 56.5t-54 87.5t-4 101t36.5 96.5t75 73.5t104 34q50 2 103 -15q88 -28 117 -111q25 -74 -9 -138q-36 -67 -109 -61q-17 2 -17 23q4 19 23 17z
" />
    <glyph glyph-name="T" unicode="T" horiz-adv-x="370" 
d="M293 611q-4 -327 -9 -532q0 -30 -9.5 -62.5t-26.5 -61t-46.5 -43.5t-65.5 -7q-60 13 -86.5 68.5t-15.5 117.5q5 38 25 74.5t51 48.5l14 4q18 2 23 -17q0 -8 -5.5 -14.5t-12.5 -7.5q-28 -7 -43.5 -58t-4.5 -105.5t51 -68.5q15 -5 29 18.5t21 56t8 60.5q1 65 5.5 251
t5.5 291q0 13 23 14.5t46 -7t23 -20.5zM30 516q-74 45 -56 125q11 52 44.5 79t76.5 30.5t97.5 -3t103.5 -19t98.5 -20t77.5 -3.5q33 5 39 12q5 6 9 20q1 8 8 13t15 3q8 -1 12.5 -8t2.5 -15q-8 -29 -32.5 -67t-47.5 -49q-40 -18 -89 -5t-107 34l-108.5 40.5t-93 15.5
t-60.5 -42q-32 -70 27 -106q18 -9 9 -27q-7 -16 -26 -8z" />
    <glyph glyph-name="U" unicode="U" horiz-adv-x="552" 
d="M33 503q-94 88 -58 176q29 70 101 72q41 2 70.5 -12t44.5 -42.5t23 -58.5t7.5 -72.5t-2.5 -72.5t-6.5 -70.5t-5.5 -54.5q-4 -53 -6 -103.5t-1.5 -129t15.5 -128t44 -51.5q40 -3 107 228q-11 257 13 388q35 192 136 189q48 -1 31 -92q-23 -159 -90 -399q2 -73 12 -186
q8 -107 25 -166q5 -16 -6 -26t-19 -5q-24 3 -57.5 63t-37.5 124q-24 -76 -52 -115.5t-69 -40.5q-38 -1 -66 14t-44 38.5t-25.5 60t-12.5 70.5t-2 78.5t4 75l7 68.5t5 52q0 6 2 32.5t3 43.5t2.5 47.5t1 52t-1.5 49t-5 45.5t-9.5 35t-14.5 25.5t-21 8.5q-34 0 -54 -32
q-50 -67 38 -150q13 -13 2 -27q-12 -14 -28 -2zM452 406q42 167 57 269q5 37 4 44q-27 -24 -41.5 -107t-17.5 -145q-2 -20 -2 -61z" />
    <glyph glyph-name="V" unicode="V" horiz-adv-x="494" 
d="M73 511q8 1 15 -5t8 -15q0 -8 -5.5 -15t-12.5 -8q-31 1 -50.5 10.5t-37.5 36.5q-28 42 -28.5 94t29 93.5t83.5 50.5q48 7 89.5 -24t71.5 -85t54.5 -131t40 -152t26.5 -158q23 129 51 237.5t75 204.5t97 103l10 1q7 0 13 -6.5t6 -14.5q-1 -9 -6.5 -15t-12.5 -6
q-71 -4 -153 -322q-40 -151 -65 -333q0 -3 2 -19q20 -132 -15 -131q-5 0 -12 3q-27 12 -49 30t-20 35l3 19q-3 24 -3 38q-8 92 -52 285q-83 372 -163 384q-19 3 -36 -14q-22 -21 -22 -65q-1 -41 16.5 -73t52.5 -33z" />
    <glyph glyph-name="W" unicode="W" horiz-adv-x="877" 
d="M59 507q19 4 21 -18q2 -19 -18 -22q-30 1 -48.5 10t-35.5 35q-28 42 -29 93.5t28.5 92.5t83.5 50q64 10 117 -47t86.5 -158.5t54 -205.5t30.5 -212q41 159 79 283q-3 103 5 164q12 70 43 117.5t69 34.5q15 -5 21.5 -17t4 -30t-6 -32t-12 -35.5t-10.5 -27.5
q-13 -39 -31 -103l3 -51q5 -64 42 -208q57 -226 104 -217q6 1 11 6q43 37 71.5 150t32.5 178q5 54 5.5 115.5t-6.5 138.5t-32 135.5t-67 77.5q-18 10 -11 28q5 18 24 13l16 -9q34 -19 58.5 -62t35.5 -95.5t17.5 -111t5 -109t-2.5 -89.5q-7 -110 -43 -238t-97 -167
q-31 -19 -59 -20t-49.5 14.5t-40 39t-32.5 57.5t-24.5 66t-18 68.5t-11.5 61t-7 46.5q-50 -173 -77 -308q0 -4 1 -20.5t0.5 -26.5t-2.5 -22t-9 -16t-18 0q-23 7 -42 24.5t-15 31.5v3q0 32 -7 102q-5 72 -56 262q-84 314 -156 358q-22 13 -42 -4q-23 -20 -23 -69
q-1 -39 16.5 -71.5t52.5 -33.5zM511 609l4.5 14l7 21.5t7 23t3.5 18t-2 6.5q-14 -8 -20 -83z" />
    <glyph glyph-name="X" unicode="X" horiz-adv-x="474" 
d="M-19 539q-15 38 -19.5 73t9.5 71t49 57q58 35 111 14t87 -91l39 -82l29 -60.5l20.5 -41t14 -28t7.5 -16.5t4.5 -10t2.5 -6l30 75l44 92q16 34 30 58.5t37.5 57.5t52 49.5t58.5 13.5q18 -2 13 -24q-2 -19 -22 -14q-6 0 -14 -3q-38 -13 -97 -112q-47 -84 -110 -244
q173 -409 235 -440q12 -15 7.5 -21.5t-21.5 -3.5q-41 -1 -80.5 23t-75.5 70.5t-66 100t-62 123.5q-111 -263 -189 -306q-61 -33 -109 20q-43 49 -40 121q3 87 75 123q18 9 40 14l18 2q7 3 16 -4q4 -2 8 -12q0 -22 -18 -22l-15 -3q-41 -9 -64 -40t-21.5 -67t19.5 -71
q58 -95 158 82q49 87 101 212l-33 79l-38 92q-75 188 -108 234q-30 43 -55 30q-66 -35 -23 -149q4 -7 1 -15t-10 -11q-18 -9 -26 10z" />
    <glyph glyph-name="Y" unicode="Y" horiz-adv-x="603" 
d="M35 550q-101 97 -63 188q16 38 48 59t67.5 19t68 -18.5t52.5 -56t17 -91.5q-28 -581 59 -591q17 -2 35.5 20t34 61t24 64.5t17.5 55.5q-2 214 47 340.5t115 117.5q45 -6 25 -101q-39 -175 -78 -297v-3q0 -16 1 -53.5t2 -66t0.5 -72.5t-2.5 -77.5t-7.5 -74.5t-14 -71.5
t-22 -61t-31.5 -49.5t-43 -30.5t-56 -10.5q-67 2 -103 47t-20 110q10 46 40.5 68t74.5 10q18 -9 12 -28q-8 -19 -27 -12q-36 12 -55 -29q-19 -43 1 -83q17 -33 54 -39q34 -5 56 41t27 108t8.5 120t-0.5 78q-29 -64 -51.5 -90.5t-58.5 -32.5q-31 -5 -56.5 4.5t-42 30t-30 49
t-20 61.5t-12 68t-6 68.5t-1.5 62.5t0 50v18q-1 42 6 117.5t7 109.5q1 33 -6 59t-19 39.5t-26.5 18.5t-30.5 -3t-30 -28q-53 -73 40 -162q16 -12 2 -29q-15 -16 -29 -2zM510 491q37 142 37 177q-28 -40 -37 -177z" />
    <glyph glyph-name="Z" unicode="Z" horiz-adv-x="555" 
d="M180 557q10 2 18 -3t9 -13q2 -19 -20 -21q-63 -5 -101.5 21t-42.5 78q-3 55 38.5 94t106.5 32q42 -4 110.5 -34t83.5 -34q26 38 69 55.5t78.5 8t41.5 -42.5q7 -30 -8.5 -47t-39.5 -21t-60 -2q-37 -44 -110.5 -146l-90.5 -125q103 1 161 -56.5t72 -159.5q5 -47 5.5 -95.5
t-13.5 -96.5t-36.5 -87.5t-64.5 -67.5t-97 -36q-103 -15 -153 54q-39 54 -20 120q19 67 87 87l14 4l34 4q23 0 23 -20q0 -8 -6.5 -13.5t-16.5 -5.5l-23 -2q-39 -8 -57.5 -39.5t-13.5 -66t34 -61t73 -25.5q57 0 89 99q36 109 18 238q-18 138 -87 174q-26 13 -56 9
q-41 -50 -57 -58q-29 -12 -62 10q-30 21 -15 42q9 14 37 22l12 14l93 137t120 167q-18 5 -62 24.5t-84 29.5q-49 11 -81 -5.5t-38 -57.5q-6 -40 17.5 -62.5t71.5 -19.5zM492 664q14 1 24.5 6t9.5 13q0 5 -1 7q-3 10 -22 -11q-7 -7 -11 -15z" />
    <glyph glyph-name="bracketleft" unicode="[" horiz-adv-x="312" 
d="M242 822q12 0 17 -12t0.5 -23.5t-15.5 -11.5l-99 -5q0 -45 2 -405.5t-4 -406.5q61 2 99 0q12 0 17 -12t0.5 -23.5t-15.5 -11.5l-122 -5q-15 -3 -30.5 -2.5t-27 6.5t-9.5 15q4 97 -1 437t-2 442q0 11 22.5 15.5t44.5 0.5q89 3 123 2z" />
    <glyph glyph-name="backslash" unicode="\" horiz-adv-x="539" 
d="M95 767q44 -84 193 -391t197 -396q8 -11 -2 -22.5t-23 -12.5t-19 9q-57 101 -213 427l-176 366q-5 10 3.5 19.5t20.5 10t19 -9.5z" />
    <glyph glyph-name="bracketright" unicode="]" horiz-adv-x="312" 
d="M70 822q34 1 123 -2q22 4 44.5 -0.5t22.5 -15.5q3 -102 -2 -442t-1 -437q2 -9 -9.5 -15t-27 -6.5t-30.5 2.5l-122 5q-11 0 -15.5 11.5t0.5 23.5t17 12q38 2 99 0q-6 46 -4 406.5t2 405.5l-99 5q-11 0 -15.5 11.5t0.5 23.5t17 12z" />
    <glyph glyph-name="asciicircum" unicode="^" horiz-adv-x="567" 
d="M54 368q66 83 107.5 146.5t93.5 129.5q4 9 9 13q6 8 14 8q14 3 21 -8q54 -69 99.5 -137t114.5 -153q7 -10 1 -21.5t-17 -14.5t-19 4q-53 63 -76 93.5l-52.5 72.5l-67.5 93l-67.5 -93.5l-50.5 -70.5t-75 -94q-7 -9 -19 -4.5t-17 15t1 21.5z" />
    <glyph glyph-name="underscore" unicode="_" horiz-adv-x="665" 
d="M595 -83q12 0 17 -13t0 -25t-16 -12q-91 1 -263 -0.5t-264 0.5q-12 -1 -16.5 12t1 26t19.5 13q85 -2 250.5 0t271.5 -1z" />
    <glyph glyph-name="grave" unicode="`" horiz-adv-x="242" 
d="M124 632q19 -20 67 -111q2 -4 -6 -6q-11 -3 -15 0q-14 8 -29.5 20t-25 20t-18.5 14.5t-15 6t-10 -8.5q-31 25 -18 58q10 27 36 25q18 -1 34 -18z" />
    <glyph glyph-name="a" unicode="a" horiz-adv-x="354" 
d="M276 141q15 13 43 68.5t38 85.5q4 11 19 1q18 -13 11 -30q-1 -2 -9.5 -26t-14.5 -38l-17 -40t-21.5 -42l-23 -34t-26.5 -26.5t-28 -8.5q-75 0 -88 171q-50 -52 -86 -45q-61 12 -70 91q-9 75 30 142q40 70 98 58q15 -4 31 -14q27 -23 15 -69q-8 -29 -21 -29h-3
q-7 2 -11.5 9.5t-2.5 14.5q13 40 0 45q-8 4 -18 -18q-17 -36 -20 -108q-1 -26 0.5 -41t5 -20t10 -2t13.5 10t17 18q5 6 8 9q0 2 0.5 12t0.5 13.5t0.5 11.5t2 13t4 12t5.5 13.5t8 12.5q20 24 48 25t36.5 -19.5t-13.5 -61.5q-8 -166 21 -167q4 0 8 3z" />
    <glyph glyph-name="b" unicode="b" horiz-adv-x="488" 
d="M108 221q22 38 54 67t68 41t69.5 5.5t59.5 -43.5t36 -101q71 38 94 99q6 17 21 8t10 -29q-11 -39 -44.5 -73t-71.5 -53q3 -80 -14 -142.5t-46.5 -96.5t-64.5 -48t-69 -6q-52 13 -69 59.5t0 90.5q21 69 157 143q3 43 -22 88.5t-60 39.5q-40 -7 -82 -83.5t-49 -124.5
q-1 -10 -5 -16q-8 -9 -34 -5t-28 18q-5 35 -8.5 86t-6 123t-2.5 77q-3 45 3 105.5t22 126.5t50 114t81 54q48 6 70.5 -27.5t23.5 -84.5q1 -82 -41 -178.5t-106 -156.5q1 -7 1.5 -34.5t2.5 -42.5zM97 352q55 67 89 156t23 152q-4 23 -13.5 35t-22.5 11q-24 -1 -40 -28
t-22.5 -75.5t-9 -88.5t-3 -95.5t-1.5 -66.5zM299 87q-7 -5 -30.5 -19t-33.5 -21.5t-24.5 -24.5t-22.5 -38q-12 -24 -5 -55t36 -34q25 -3 43.5 19.5t26 55t11.5 65.5t-1 52z" />
    <glyph glyph-name="c" unicode="c" horiz-adv-x="247" 
d="M142 372q13 6 5 15q-11 11 -26 -4q-16 -17 -22 -59q-15 -103 34 -131q24 -14 58 9t59 91q4 12 20 6q19 -6 12 -26q-29 -81 -72.5 -111.5t-102.5 -24.5q-76 7 -101 83q-23 70 8 140q32 72 95 76q22 1 46 -7q40 -13 34 -51q-5 -31 -31 -42q-17 -7 -35 2q-7 4 -8.5 12
t2.5 15q9 14 25 7z" />
    <glyph glyph-name="d" unicode="d" horiz-adv-x="362" 
d="M366 295q4 11 19 1q18 -13 11 -30q-87 -226 -153 -232q-23 -2 -39.5 13t-25.5 46.5t-13 59t-7 69.5q-50 -52 -86 -45q-61 12 -70 91q-9 75 30 142q40 70 98 58q15 -4 31 -14q3 55 13 115q5 29 9 48t14 53t22.5 55t33 38t45.5 17q107 2 43 -218q-34 -121 -88 -214
q1 -16 -1 -72.5t0 -98.5t13 -47q12 -5 28 13t31 49.5t25 56t17 46.5zM251 424q35 53 65 165q38 141 -2 150h-3q-18 1 -33 -72.5t-21 -144t-6 -98.5zM138 380q11 50 -1 47q-13 -2 -26 -52q-10 -38 -10 -80q0 -16 0.5 -28t2 -18t3 -11t5.5 -3.5t5.5 1.5t8 7.5t8.5 10t10 13.5
l11 15v74h-3q-7 2 -11.5 9t-2.5 15z" />
    <glyph glyph-name="e" unicode="e" 
d="M135 193q24 -14 58 9t59 91q4 12 20 6q19 -6 12 -26q-29 -81 -72.5 -111.5t-102.5 -24.5q-75 7 -99 86q-22 72 8 144q30 70 88 73q24 2 51 -11q21 -10 25.5 -34t-4 -48.5t-30 -47t-49.5 -29.5q4 -58 36 -77zM101 324q-1 -6 -1 -15q37 21 39 49q1 19 -11 22q-13 3 -21 -21
q-5 -14 -6 -35z" />
    <glyph glyph-name="f" unicode="f" horiz-adv-x="247" 
d="M104 306l-8 -4l-1 -130q67 14 100.5 43.5t54.5 78.5q4 10 19 0q16 -12 10 -28q-33 -91 -130 -123q12 -6 20 -17t11 -28t4 -32t-1 -37.5t-3.5 -34.5t-5.5 -33t-4 -24q-7 -46 -25 -113t-37 -75q-28 -13 -50 3.5t-33.5 51.5t-19.5 79t-9.5 86.5t-3.5 73t0 39.5
q-36 -21 -48 -18q-14 7 -11.5 24.5t15.5 28.5q11 10 16.5 13t13.5 6t16 7q1 28 2.5 79.5t2.5 89.5t3.5 90t7 91t11.5 83t18 75.5t25.5 59.5t35.5 43.5t46 18.5q43 6 66.5 -14.5t26.5 -62.5q6 -86 -36 -213t-99 -177zM100 358q46 50 75 157.5t25 178.5q-3 36 -20 41
t-30.5 -22.5t-22 -77t-13.5 -92.5t-8.5 -91.5t-3.5 -52.5q-1 -7 -1 -19t-1 -22zM92 120q-10 -241 5 -311q18 60 30.5 121t11.5 123t-27 74q-12 -3 -21 -6h-1z" />
    <glyph glyph-name="g" unicode="g" horiz-adv-x="348" 
d="M268 495q-59 12 -103.5 -47t-64.5 -143q-24 -101 4 -112q19 -6 59 38q-7 54 3 109t42 90t78 20q19 -6 23 -23.5t-4 -41.5t-21.5 -49t-32.5 -51q1 -12 5.5 -53.5t4.5 -46.5q60 32 87 102q7 20 22 9t10 -29q-9 -31 -35 -63t-45 -47t-34 -25l7 -75q5 -28 1 -77t-12 -96
t-34.5 -85.5t-67.5 -46.5q-52 -10 -92 47q-46 66 -31 152q19 113 138 178l-6 58q-55 -69 -105 -60.5t-63 79.5q-7 36 -3.5 77.5t17 82t37 76t56.5 60t76.5 33.5t96.5 -2q17 -7 12 -25q-7 -18 -25 -13zM183 78q-40 -22 -65.5 -58t-32 -73t-2.5 -70.5t21 -56t40 -25.5
q59 -7 39 283zM249 355q27 44 20 60q-14 8 -18 -34q-2 -11 -2 -26z" />
    <glyph glyph-name="h" unicode="h" horiz-adv-x="413" 
d="M100 354q-12 -141 -4 -130q1 1 2 4q22 67 67.5 118.5t82.5 42.5q51 -13 56 -78.5t-22 -180.5q-37 -180 -10 -160q31 23 110 232q18 48 31 88q6 18 22 5t10 -30q-5 -13 -18 -52.5l-25 -73.5l-29.5 -80t-35.5 -82t-38 -69t-41.5 -51.5t-42.5 -18.5q-57 -1 -41 163
q4 45 18 138q21 138 12 156q-7 13 -28 -10q-34 -38 -102 -254q-5 -15 -31 -30t-35 4q-4 13 -7.5 77t-5 157t8 197t27 193.5t56 149.5t91.5 63q38 2 56 -31.5t19 -74.5q1 -92 -39.5 -184t-113.5 -198zM100 435q33 56 51.5 90t40.5 97t21 113q0 20 -8 46.5t-24 20.5
q-12 -4 -22.5 -22.5t-18 -48t-13.5 -60.5t-10.5 -70l-7.5 -66.5t-5.5 -59.5t-3.5 -40z" />
    <glyph glyph-name="i" unicode="i" horiz-adv-x="207" 
d="M103 337q-21 -186 -15 -228q-1 -16 9 -15q26 4 72 102q20 41 40 95q6 17 21 5q17 -14 10 -32q-62 -160 -101 -214q-45 -60 -87 -47q-19 6 -31.5 25.5t-17.5 50t-7.5 61t0 69t4.5 62.5t5.5 53.5t3.5 30.5q2 12 26.5 12.5t47 -9t20.5 -21.5zM115 462q-3 -30 -28 -45.5
t-48.5 -0.5t-22.5 59q4 27 21 41.5t35.5 13t32 -19.5t10.5 -48z" />
    <glyph glyph-name="j" unicode="j" horiz-adv-x="214" 
d="M116 396q-7 -30 -10.5 -111t-1.5 -144q78 58 110 148q6 17 19.5 0.5t8.5 -32.5q-15 -44 -54 -95.5t-81 -77.5q0 -12 3 -44q1 -26 2 -40.5t2 -43t0 -46.5l-2.5 -44t-6.5 -42t-12 -35t-18.5 -29t-26 -17.5t-34.5 -6t-44 9.5q-46 16 -63.5 62.5t7 117.5t95.5 141
q0 11 -3 72.5t-4.5 99.5t-1.5 89t3 79q7 18 63 13q51 -5 51 -21q0 -2 -1 -3zM14 3q-54 -64 -64.5 -124.5t34.5 -79.5q27 -10 32 25q4 23 -2 175v4zM115 520q-3 -30 -28 -45.5t-48.5 -0.5t-22.5 59q4 27 21 41.5t35.5 13t32 -19.5t10.5 -48z" />
    <glyph glyph-name="k" unicode="k" horiz-adv-x="357" 
d="M118 204q-8 37 -1 50q13 25 39 5q38 57 56 71q31 23 49 5q20 -20 -8 -61q-10 -16 -27 -32q-32 -30 -55 -31l-10 -14q31 -105 51 -129q9 -11 18 -13q17 -4 57 73t73 165q6 16 21.5 4.5t10.5 -27.5q-38 -109 -82.5 -195.5t-80.5 -91.5q-32 -4 -48.5 27t-41.5 122
q-5 16 -7 25l-9 -12q-49 -58 -62 -70q-39 -34 -45 10q-12 91 -14.5 209t17.5 248t67 176q43 41 92 30t67 -60q52 -139 -147 -371q-12 -103 1 -126q7 -12 19 13zM98 384q31 29 65.5 92.5t46.5 127.5t-37 90q-19 9 -32.5 -14t-21 -67.5t-11.5 -86.5t-6.5 -87.5t-3.5 -54.5z
" />
    <glyph glyph-name="l" unicode="l" 
d="M144 78q15 3 39 53t68 161q3 11 19 1q19 -11 11 -31q-58 -149 -82 -192q-54 -99 -106 -94q-26 2 -48.5 38t-28.5 86q-10 82 -13.5 193t10.5 240.5t51 176.5q27 35 66.5 39.5t70 -20t36.5 -67.5q5 -32 -2.5 -68t-15.5 -60t-35.5 -68.5t-37.5 -58.5l-47 -66q1 -12 0 -41.5
t1 -69t5 -75t13.5 -58t25.5 -19.5zM101 421q31 38 57 93t33 103t-20 67q-31 19 -50 -49q-22 -81 -20 -205v-9z" />
    <glyph glyph-name="m" unicode="m" horiz-adv-x="635" 
d="M102 342q-1 -28 -6 -75q-5 -53 0 -54q3 -1 10 10q8 11 22 40q58 114 86 154q31 43 52 22q31 -32 8 -193q-12 -88 -4 -88q10 0 52 127q32 96 67 176.5t55 97.5q35 36 67.5 14t22.5 -73q-14 -73 -30 -247q-22 -242 14 -219q13 8 32 48q34 71 86 206q3 14 19 8q19 -8 13 -30
q0 -1 -1 -3q-83 -233 -131 -291q-24 -28 -42 -24q-126 28 -79 389q12 93 10 94t-8 -10q-5 -11 -14 -35q-7 -17 -46.5 -135.5t-61.5 -160.5q-19 -33 -36 -33q-87 -1 -72 169q5 62 4 64q-2 2 -9 -9t-21 -40q-1 -1 -5.5 -11t-7.5 -16l-9 -17.5t-11 -19l-11.5 -17.5t-13.5 -16.5
l-14 -12.5t-15 -8.5t-16 -1.5q-65 8 -54 248q0 22 36 19q40 -4 57 -29q5 -8 5 -17z" />
    <glyph glyph-name="n" unicode="n" horiz-adv-x="443" 
d="M94 395q-10 -80 5 -119q7 -17 13 -3q22 48 58 139l40 101q44 99 98 70q18 -10 25 -47t3.5 -89.5t-10 -101t-14.5 -99.5t-9 -67q0 -3 -1 -15q-13 -127 12 -129q9 0 24 17q9 11 19.5 29t22.5 47l20 48.5t23 59.5t21 54q5 15 19 2q16 -16 10 -34q-2 -4 -10 -27t-13.5 -36
l-15.5 -38.5t-17.5 -42.5l-18 -40t-19.5 -38.5t-19.5 -30.5t-20 -24t-18.5 -11q-98 -26 -109 144q-5 81 18 279q7 63 2 63q-6 0 -32 -67q-58 -150 -93 -221q-1 -2 -3 -5.5t-2.5 -5t-2 -4t-2.5 -4t-2.5 -3l-2.5 -2.5t-2.5 -2t-3 -1.5t-3.5 -0.5q-20 -1 -36 10t-25 32t-15 44
t-8 51.5t-3 48t-1 40v21.5q0 15 24 22.5t48.5 3t26.5 -17.5z" />
    <glyph glyph-name="o" unicode="o" horiz-adv-x="289" 
d="M209 252q45 12 83 46q6 5 14 4t13 -8q9 -11 -4 -28q-35 -40 -114 -59q-31 -135 -98 -167q-48 -23 -79.5 2t-36.5 79q-7 70 18 135q-33 44 -34 107t30 112.5t81 57.5q53 9 87 -32.5t40.5 -107.5t-0.5 -141zM119 329q-1 -2 -7.5 -22t-11 -36.5t-4.5 -29.5q30 -8 70 -2
q11 67 7 127q-2 22 -7 43.5t-14.5 45.5t-28.5 34.5t-44 2.5q-44 -15 -62 -79t9 -116q28 51 41 65q11 10 23.5 4t22.5 -19t6 -18zM130 122q15 24 28 77q-39 -4 -73 4q-26 -104 -1 -118q18 -11 46 37z" />
    <glyph glyph-name="p" unicode="p" horiz-adv-x="391" 
d="M91 480l-11 -481v3q24 374 120 398q51 13 83.5 -29.5t24.5 -108.5q10 4 93 28q8 1 14 -4.5t7 -13.5q1 -16 -18 -21q-63 -17 -104 -36q-15 -45 -52.5 -79.5t-75.5 -20.5q-23 10 -18 31t22.5 42t33.5 30q8 131 -17 129q-24 -2 -51 -118q-43 -181 -45 -454q0 -22 -31 -29
q-40 -10 -65 17q-15 16 -15 42q-1 99 -0.5 204t0 242.5t-3.5 227.5q0 16 27 19t54.5 -4t27.5 -14z" />
    <glyph glyph-name="q" unicode="q" horiz-adv-x="374" 
d="M282 455q14 27 10 63.5t-38 35.5q-73 -3 -122 -160q-36 -114 -35 -206q0 -37 9 -35q2 1 5 4q11 13 27 61q0 24 5.5 56t17 71t35.5 62t57 17q49 -9 24 -108q-9 -38 -44 -109v-69q46 20 79 52t62 100q7 16 21 2q15 -16 8 -33q-16 -39 -35.5 -68t-47 -51t-42 -31l-45.5 -27
q0 -4 1 -11q99 -1 93 -165q-1 -19 -4 -43t-11 -56t-25 -51.5t-40 -15.5q-45 8 -76 92t-33 197q-11 -4 -14 -5q-20 -8 -32.5 14t8.5 33l37 22v49q-4 -15 -18.5 -36t-27.5 -23q-38 -6 -61.5 25.5t-28.5 84t1 115.5q10 82 52 153t103.5 108t122.5 23q23 -5 35.5 -22.5t15 -40
t-1.5 -46t-12 -44.5q-3 -7 -11 -10t-15 0q-18 9 -9 26zM234 32q0 -116 5.5 -177.5t21.5 -58.5q18 3 24.5 72t-2.5 108q-7 31 -18.5 43.5t-30.5 12.5zM240 326q10 34 6 38q-3 1 -4.5 -0.5t-1.5 -6.5v-9v-11.5v-10.5z" />
    <glyph glyph-name="r" unicode="r" horiz-adv-x="328" 
d="M1 289q36 109 46 130q-41 29 -53 79.5t4.5 92.5t50.5 52q27 8 52 -4.5t32 -34.5q6 -21 1 -47t-21.5 -69t-20.5 -58q3 -2 27.5 -17t47 -31t34.5 -29q10 -11 13.5 -30.5t0 -52.5t-7 -56.5t-13 -71l-13.5 -67.5q-27 -144 -15 -146q9 -1 43 69q0 1 1 2q51 106 121 293
q6 16 20 2q15 -15 8 -35l-32 -96t-52.5 -141.5t-72 -153.5t-61.5 -60q-38 -2 -57 28.5t-18.5 88.5t8 114.5t22.5 131.5q4 21 11 53.5l9.5 44t5 31.5t0.5 27.5t-7 20t-14.5 21.5t-24.5 20q-3 -8 -13.5 -39l-20 -58.5t-14.5 -36.5q-11 -19 -23 -8q-14 11 -4 41zM61 474
q45 121 24 131q-25 13 -34 -33q-10 -50 3 -87q3 -8 7 -11z" />
    <glyph glyph-name="s" unicode="s" horiz-adv-x="304" 
d="M4 300q-43 26 -57 96t14 129t91 53q29 -3 42 -23.5t9 -57.5t-14 -74t-28 -88q14 -16 89 -64q93 30 165 28q20 -1 25 -18q2 -16 -14 -18q-67 -3 -139 -25q53 -60 64.5 -139t-24 -149t-110.5 -101q-68 -28 -113 35q-43 63 -32 160q14 120 105 186q6 5 13 9q-8 11 -17 19
t-19.5 14.5t-12.5 8.5q-35 -71 -43 -72q-3 -1 -5.5 -2t-3.5 -1.5t-1.5 1t-1.5 5.5q-3 16 18 88zM107 200q-89 -59 -96 -167q-5 -76 31 -120q31 -38 67 -13q23 16 37 55t7 106t-46 139zM20 359q3 12 10 35t10.5 36l8.5 31.5t6 29t1 22t-4 17t-11 6.5q-16 2 -25.5 -13.5
t-12.5 -39.5t-2 -50t6.5 -47t12.5 -27z" />
    <glyph glyph-name="t" unicode="t" horiz-adv-x="222" 
d="M108 699q5 -32 7 -78q60 -2 82 29q10 15 27 6q17 -11 6 -28q-36 -48 -114 -46q0 -248 -8 -344q-19 -235 37 -138q29 50 78 187q9 20 22.5 5.5t7.5 -32.5q-2 -5 -11.5 -32l-14 -39.5l-14.5 -40t-17.5 -43l-18.5 -39t-21 -37.5t-22 -28.5t-24.5 -22t-24.5 -8.5
q-22 -2 -38 9t-25 33t-14.5 46.5t-7 56t-1.5 53.5t1 46.5t1 27.5q0 18 1 101.5t0.5 146t-3.5 104.5q-53 4 -61 -10q-9 -18 -26 -10q-19 8 -10 26q23 41 94 35q-1 19 -5 45q-1 7 10 14t28 11t34.5 5.5t30.5 -1.5t14 -10z" />
    <glyph glyph-name="u" unicode="u" horiz-adv-x="338" 
d="M97 470q0 -3 -3 -38.5t-5 -68t-3 -71t2.5 -64.5t11.5 -31q6 -4 12.5 4.5t12.5 30.5t10 40l10.5 49t8.5 42q1 6 25 10.5t48.5 -1t25.5 -24.5q1 -9 -1 -24.5t-2 -19.5q-6 -118 10 -129q19 -14 38.5 19.5t39.5 92.5q6 16 21 7q18 -10 12 -27q-28 -86 -63 -130.5t-72 -35.5
q-52 13 -70 154q-30 -121 -53 -151q-20 -25 -50.5 -22.5t-47.5 23.5q-41 50 -21 380q0 10 26 10.5t51.5 -7.5t25.5 -18z" />
    <glyph glyph-name="v" unicode="v" horiz-adv-x="338" 
d="M101 312v-38q3 -365 24 -363q1 0 3 2q29 55 67 349q-43 55 -22 106q12 31 36 31q14 0 24 -15q15 -21 5 -99q22 -22 41 -31t35 -1t24 35q6 19 22 6t10 -30q-18 -54 -63.5 -61.5t-76.5 28.5q-24 -172 -43 -243q0 -1 -5.5 -25t-10 -40t-12.5 -38.5t-18 -35.5t-21 -15
q-41 -8 -67 32.5t-35.5 109t-12.5 136t-3 133.5t-2 81q0 14 25 15t50.5 -8t25.5 -21z" />
    <glyph glyph-name="w" unicode="w" horiz-adv-x="576" 
d="M218 30q13 32 22 61q-26 55 -32.5 108.5t3 90.5t27.5 60t39 24q29 0 42.5 -18t12 -51t-7.5 -64t-19 -73q19 -44 42 -58t43 -1t36.5 41t23.5 65q-37 31 -39 74q-2 36 26 39q7 1 17 -2q36 -10 38 -74q18 -19 32 -23.5t24 6t15.5 22t13.5 34.5q5 14 22 7q19 -9 11 -26
q-16 -50 -41 -72.5t-45.5 -21t-41.5 15.5q-6 -45 -31 -86.5t-56 -66.5t-66.5 -23.5t-60.5 36.5q-32 -95 -68 -136q-22 -23 -48 -25q-55 -2 -99 123q-49 138 -48 305q0 178 62 222q28 20 67 6q47 -17 11 -117q-7 -20 -37 -89q17 -193 53 -293q31 -82 57 -20zM119 500
q-18 0 -16 -79q25 71 21 77q-2 2 -5 2zM279 241q1 7 4 23t5 25.5t3 20.5t-0.5 15t-6.5 2q-3 -2 -4.5 -31.5t-0.5 -54.5z" />
    <glyph glyph-name="x" unicode="x" horiz-adv-x="328" 
d="M240 428q-20 -12 -59 -91l15.5 -61t13.5 -46t17.5 -40.5t17.5 -11.5q26 0 43 25.5t41 85.5q7 18 22 6q16 -13 9 -31q-93 -240 -183 -167q-32 27 -61 116q-7 -16 -17 -36q-21 -42 -39.5 -74t-48.5 -71.5t-66 -63t-74 -25.5l-21 1q-8 1 -13.5 7t-4.5 14t7.5 13.5t14.5 4.5
h14q36 2 71 30t66.5 77.5t51 88t42.5 89.5q-12 41 -28 112q-12 -40 -41 -120q-4 -16 -17 -15q-18 2 -16 28q1 8 4 17q30 89 45 225q1 14 48 10.5t51 -17.5q2 -9 9 -47t13 -63q28 49 58 67q17 7 26 -11q7 -17 -11 -26z" />
    <glyph glyph-name="y" unicode="y" horiz-adv-x="364" 
d="M108 442q-20 -144 -8 -222q12 -82 65 -9q-5 85 25.5 146t93.5 42q24 -8 25 -36t-14 -61.5t-40 -67.5q1 -10 4 -49q83 44 105 102q7 20 22 9t10 -29q-18 -63 -132 -135l7 -75q12 -155 -11 -224q-28 -82 -102 -81q-25 0 -49 14.5t-41 39t-28 55t-9 66.5t15 71t45.5 69.5
t81.5 61.5l-3 30q-45 -50 -67 -60q-84 -38 -101 100q-12 105 11 238q2 10 3 16q0 8 23 11.5t46 -2t23 -20.5zM181 78q-40 -22 -64 -57.5t-28.5 -71.5t2 -69t25 -55t41.5 -25q14 -2 22.5 12.5t11.5 39t3.5 53.5t-2 60t-5 55t-4.5 41zM247 304q27 44 20 60q-14 8 -18 -34
q-2 -11 -2 -26z" />
    <glyph glyph-name="z" unicode="z" horiz-adv-x="455" 
d="M19 304l82 22q14 34 31 67t45.5 75.5t62.5 60t67 -0.5q23 -12 26 -36.5t-6.5 -47t-25.5 -41.5q-45 -57 -117 -90q-12 -23 -14 -38q54 20 104 -14.5t69 -92.5q42 16 65.5 41.5t47.5 80.5q10 14 23 5.5t8 -26.5q-14 -48 -49.5 -86t-78.5 -59q13 -97 -25.5 -190.5t-115 -145
t-162.5 -31.5q-51 12 -68.5 57t-2.5 96q25 88 94.5 142.5t175.5 86.5q-1 39 -14 66t-33.5 36t-50 -11.5t-59.5 -70.5q-8 -12 -20 -11t-16 12q-4 12 1 47t20 74q-21 -8 -60 -17q-8 0 -14.5 5.5t-6.5 12.5q-1 16 17 22zM260 97q-39 -13 -68 -26t-64 -34.5t-60.5 -52
t-40.5 -69.5q-7 -19 -9 -39t1.5 -39t17.5 -31t38 -11q46 1 91.5 46.5t72.5 116.5t21 139zM203 368q38 23 68 60q34 42 23 57q-5 3 -9 3t-12 -9t-14.5 -18t-15 -23.5l-15 -25.5l-14 -24.5t-11.5 -19.5z" />
    <glyph glyph-name="braceleft" unicode="{" horiz-adv-x="350" 
d="M125 262q0 -19 6.5 -29.5t15.5 -13t19.5 -15t18.5 -33.5t12 -71t1 -124q-1 -33 1.5 -64t10 -62.5t25 -48.5t42.5 -13q13 0 19.5 -8.5t1 -17t-20.5 -8.5q-39 1 -68.5 18.5t-45 42.5t-24.5 58.5t-11 61t-1 56.5q4 75 0.5 122.5t-11 70.5t-18 34t-19.5 13t-17 7.5t-10 17.5
h-1v3.5v3v3.5v3v7h1q2 14 12.5 18.5t22.5 10.5t23 24.5t16 72t1 139.5q-1 29 1 56.5t11 61t24.5 58.5t45 42.5t68.5 18.5q15 0 20.5 -8.5t-1 -17t-19.5 -8.5q-25 4 -42.5 -13t-25 -48.5t-10 -62.5t-1.5 -64q3 -66 0 -112.5t-9.5 -70t-15 -37t-17.5 -18.5t-16 -10
t-11.5 -15.5t-3.5 -30.5z" />
    <glyph glyph-name="bar" unicode="|" horiz-adv-x="166" 
d="M67 804q1 12 13 16.5t23.5 -1t11.5 -16.5q-3 -74 -3 -515.5t-10 -516.5q0 -11 -14 -15.5t-27 2t-10 19.5q7 99 9 514t7 513z" />
    <glyph glyph-name="braceright" unicode="}" horiz-adv-x="350" 
d="M225 262q1 20 -3.5 30.5t-11.5 15.5t-16 10t-17.5 18.5t-15 37t-9.5 70t0 112.5q1 33 -1.5 64t-10 62.5t-25 48.5t-42.5 13q-13 0 -19.5 8.5t-1 17t20.5 8.5q39 -1 68.5 -18.5t45 -42.5t24.5 -58.5t11 -61t1 -56.5q-4 -86 1 -139.5t16 -72t23 -24.5t22.5 -10.5
t12.5 -18.5h1v-7v-13h-1q-2 -12 -10 -17.5t-17 -7.5t-19.5 -13t-18 -34t-11 -70.5t0.5 -122.5q1 -29 -1 -56.5t-11 -61t-24.5 -58.5t-45 -42.5t-68.5 -18.5q-15 0 -20.5 8.5t1 17t19.5 8.5q25 -4 42.5 13t25 48.5t10 62.5t1.5 64q-3 74 1 124t12 71t18.5 33.5t19.5 15
t15.5 13t6.5 29.5z" />
    <glyph glyph-name="asciitilde" unicode="~" horiz-adv-x="564" 
d="M97 93q-58 36 -44 99q11 49 45.5 70.5t79.5 18t96 -13t94.5 -21t75.5 -7.5t39 28q2 15 18 13q14 -3 12 -18q-13 -51 -40 -74.5t-61 -22t-72 13.5t-76.5 28.5t-72 27t-61.5 4.5t-41 -35q-25 -55 22 -83q14 -7 7 -21q-2 -5 -9 -7t-12 0z" />
    <glyph glyph-name="exclamdown" unicode="&#xa1;" horiz-adv-x="254" 
d="M179 -145q4 -17 -29 -29q-46 -18 -77 -4q-21 10 -17 33q23 133 34 291t1 242q-8 75 20 79q19 2 35 -32q27 -58 -5 -124q-9 -42 16 -226.5t22 -229.5zM90 553q2 26 24 39.5t42.5 0t19.5 -51.5q-4 -31 -27 -42.5t-42.5 4t-16.5 50.5z" />
    <glyph glyph-name="cent" unicode="&#xa2;" horiz-adv-x="247" 
d="M108 804q1 12 13 16.5t23.5 -1t11.5 -16.5q-4 -73 -4 -358q25 -5 49 -16q40 -20 32 -58q-6 -30 -33 -37q-15 -4 -31 4q-7 4 -8.5 12t2.5 15q9 14 25 7q11 5 -6 11q-12 5 -29 4v-195q62 4 97 101q4 12 20 6q19 -6 12 -26q-44 -122 -129 -136q-2 -278 -10 -366
q0 -11 -14 -15.5t-27 2t-10 19.5q6 89 8 361q-46 7 -73.5 37.5t-32 70.5t5 80.5t37.5 73t64 42.5q2 261 7 362zM63 300q0 -39 7 -54.5t30 -37.5v80.5t1 80.5q-1 -1 -8.5 -6.5t-11 -9t-8.5 -11t-7.5 -18t-2.5 -24.5z" />
    <glyph glyph-name="sterling" unicode="&#xa3;" horiz-adv-x="493" 
d="M425 355q12 0 17 -13t0 -25t-16 -12h-65h-57h-38q15 -223 -17 -292q27 -11 44 -17t43 -12.5t43 -5.5t33 10t24 28q5 15 24 12q8 -3 11.5 -10.5t1.5 -15.5q-19 -43 -40 -64.5t-61 -24.5q-23 -2 -42 2.5t-31 11.5t-35.5 22.5t-42.5 25.5q-22 -34 -71.5 -53.5t-92.5 -15.5
q-65 6 -83 56q-16 44 16 79q40 44 118 27q38 -10 58 -21q3 7 5 18t2.5 27.5t0.5 32t-1 39.5t-1.5 42t-2 48.5l-2.5 49.5q-66 0 -122 1q-12 -1 -16.5 12t1 26t19.5 13q93 -2 116 -1q-2 41 -1 82t3 80.5t9.5 74.5t17.5 64.5t27 51t38.5 33.5t52 12t67.5 -14q21 -8 24.5 -18.5
t-7 -17t-24.5 -3.5q-90 18 -109 -105q-11 -69 0 -239q60 2 162 -1zM146 13q-19 11 -47 15q-65 15 -85 -18q-14 -23 5 -44q25 -29 70 -4q28 15 57 51z" />
    <glyph glyph-name="yen" unicode="&#xa5;" horiz-adv-x="603" 
d="M592 191q12 0 17 -13t0 -25t-16 -12h-91l-6 -73q54 0 96 -1q12 0 17 -13t0 -25t-16 -12h-103q-38 -270 -159 -267q-67 2 -103 47t-20 110q10 46 40.5 68t74.5 10q18 -9 12 -28q-8 -19 -27 -12q-36 12 -55 -29q-19 -43 1 -83q17 -33 54 -39q57 -9 80 222q-132 0 -176 1
q-12 -1 -16.5 12t1 26t19.5 13q87 -2 176 0q2 24 4 72q-137 0 -184 1q-12 -1 -16.5 12t1 26t19.5 13q90 -2 182 0q4 113 1 166q-19 -41 -27 -57t-22.5 -39.5t-28.5 -33t-32 -12.5q-35 -6 -63 0t-45 21t-30 36.5t-18 46.5t-9 51t-3 51t0 46v18q-1 41 6 88t7 83q1 33 -6 59
t-19 39.5t-26.5 18.5t-30.5 -3t-30 -28q-53 -73 40 -162q16 -12 2 -29q-15 -16 -29 -2q-101 97 -63 188q16 38 48 59t67.5 19t68 -18.5t52.5 -56t17 -91.5q0 -7 -2 -39.5t-2.5 -51.5t-2 -54.5t0 -58.5t3 -54.5t7 -52t12 -40.5t18 -30t25.5 -12q47 -5 108 210q2 7 3 10
q-1 86 7.5 146.5t24 91.5t36.5 49t45 18t49 -2q24 -3 31 -20t-2.5 -45.5t-23 -56l-32 -64t-26.5 -57.5v-3q4 -264 1 -342q50 0 87 -1z" />
    <glyph glyph-name="dieresis" unicode="&#xa8;" horiz-adv-x="309" 
d="M137 555q-2 -26 -24 -39.5t-42.5 0t-19.5 51.5q4 31 27 42.5t42.5 -4t16.5 -50.5zM258 555q-2 -26 -24 -39.5t-42.5 0t-19.5 51.5q4 31 27 42.5t42.5 -4t16.5 -50.5z" />
    <glyph glyph-name="ordfeminine" unicode="&#xaa;" horiz-adv-x="203" 
d="M159 304q9 8 25.5 40.5t23.5 51.5q2 7 12 0t6 -17q-1 -3 -6 -16l-8.5 -22.5t-10 -24t-13 -25t-14 -20.5t-16 -15.5t-16.5 -5.5q-44 0 -52 103q-29 -31 -52 -27q-41 8 -42 65q-1 55 30 90q30 33 66 10q18 -15 7 -45q-7 -14 -13 -13q-4 1 -7 5.5t-1 8.5q9 26 -1 27
q-11 1 -18 -37q-3 -17 -4 -38q-1 -39 7 -38q5 0 25 22q2 38 13 53q19 23 41.5 11.5t0.5 -45.5q-6 -104 14 -100q1 0 3 2z" />
    <glyph glyph-name="degree" unicode="&#xb0;" horiz-adv-x="235" 
d="M102 298q-35 0 -56.5 29t-25 72.5t3.5 88t29.5 80.5t52.5 46q6 5 17.5 2.5t15.5 -11.5q0 -3 -6 -5.5t-7 -3.5q33 -15 48.5 -64.5t11 -101t-27 -92.5t-56.5 -40zM107 315q16 -1 28.5 22t17.5 59t4.5 74.5t-11.5 71.5t-30 46q-20 -9 -35 -75t-9.5 -130.5t35.5 -67.5z" />
    <glyph glyph-name="plusminus" unicode="&#xb1;" horiz-adv-x="521" 
d="M283 95q0 -12 -13 -17t-25 0t-12 16v164q-28 -1 -164 1q-12 -1 -16.5 12t1 26t19.5 13q98 -3 159 -1q-1 28 1 166q-1 12 12 16.5t26 -1t13 -19.5q-2 -100 -1 -161q62 2 166 -1q12 0 17 -13t0 -25t-16 -12h-67.5h-59.5h-39q2 -62 -1 -164zM451 53q12 0 17 -13t0 -25
t-16 -12q-93 1 -190 -0.5t-191 0.5q-12 -1 -16.5 12t1 26t19.5 13q85 -2 177.5 0t198.5 -1z" />
    <glyph glyph-name="twosuperior" unicode="&#xb2;" horiz-adv-x="199" 
d="M54 510q1 -7 -7 -8q-9 0 -13 12q-14 39 8 70t60 22q30 -6 45 -27t10 -53q-4 -23 -25.5 -50.5t-44 -49t-36.5 -50.5t-5 -57q4 17 21.5 21.5t36.5 0.5t33.5 -2t13.5 16q0 3 1 3q3 2 8 -8q1 -1 1 -2q3 -36 -6 -47t-24.5 -4t-32.5 15.5t-34.5 6t-26.5 -25.5q-9 27 -10 46.5
t9 47t20.5 46.5l24 44.5t19.5 41.5q10 25 6.5 47t-19.5 23q-24 4 -35.5 -24t2.5 -55z" />
    <glyph glyph-name="threesuperior" unicode="&#xb3;" horiz-adv-x="215" 
d="M64 399q4 2 8 -1t4.5 -7.5t-3.5 -7.5q-20 -5 -18.5 -28.5t25.5 -27.5q35 -4 49 42q15 46 -4.5 82.5t-60.5 17.5q-1 1 -1.5 8t0.5 8q23 8 40.5 34.5t15.5 50.5q0 24 -14.5 32.5t-28.5 -1.5t-13 -32q3 -5 -2.5 -10.5t-12.5 1.5q-9 29 10.5 47.5t49.5 15.5t46 -28
q12 -29 -3.5 -58t-42.5 -40q55 0 73 -53q17 -50 -12 -96q-33 -52 -98 -42q-24 6 -31.5 26.5t0.5 40.5t24 26z" />
    <glyph glyph-name="acute" unicode="&#xb4;" horiz-adv-x="242" 
d="M118 632q31 32 57 11q24 -18 15 -48q-5 -16 -20 -28q-4 8 -10 8.5t-15 -6t-18.5 -14.5t-25 -20t-29.5 -20q-6 -4 -18 1q-5 2 -3 5q48 91 67 111z" />
    <glyph glyph-name="paragraph" unicode="&#xb6;" horiz-adv-x="539" 
d="M471 645q18 -5 17 -20.5t-18 -19.5q-14 0 -44 -0.5t-44 -0.5q-2 -71 0 -420t-8 -413q0 -11 -14 -15.5t-27 2t-10 19.5q6 96 6 410.5t5 415.5q-66 -2 -100 -2q-2 -72 0 -419.5t-8 -410.5q0 -11 -14 -15.5t-27 2t-10 19.5q4 56 5 138.5t1 230v192.5q-64 18 -97.5 54.5
t-33.5 77t17 79t52 64.5t74 28q47 0 139.5 2t138.5 2z" />
    <glyph glyph-name="periodcentered" unicode="&#xb7;" horiz-adv-x="192" 
d="M137 312q-2 -26 -24 -39.5t-42.5 0t-19.5 51.5q4 31 27 42.5t42.5 -4t16.5 -50.5z" />
    <glyph glyph-name="cedilla" unicode="&#xb8;" horiz-adv-x="221" 
d="M81 -184q-9 -4 -2 -10q10 -8 20 9q6 11 9 31q6 41 -23 58q-2 1 -9.5 4.5t-10.5 6t-8 9.5t-6 15.5t0.5 24.5t7.5 36q3 10 31 11q20 -1 19 -11q0 -2 -6 -11q-31 -47 -5 -50h3q53 -1 67 -52q12 -46 -16 -84q-29 -40 -79 -23q-28 10 -20 37q7 22 26 23q7 1 14 -3q11 -6 4 -17
q-6 -9 -16 -4z" />
    <glyph glyph-name="onesuperior" unicode="&#xb9;" horiz-adv-x="168" 
d="M117 320q0 -31 -23 -18q-19 12 -22 26q0 31 2.5 113t1.5 126q-1 0 -3 -3l-4.5 -6.5t-4.5 -4.5q-3 -3 -7 -3.5t-6.5 2.5t-0.5 7q3 7 17 25t15 20q11 4 25.5 -3.5t11.5 -14.5q-5 -31 -5.5 -78t1.5 -107t2 -81z" />
    <glyph glyph-name="ordmasculine" unicode="&#xba;" horiz-adv-x="289" 
d="M190 424q27 7 49 27q9 7 16 -2q5 -6 -2 -17q-22 -24 -67 -34q-19 -79 -58 -98q-28 -13 -46.5 1.5t-21.5 46.5q-4 39 11 79q-19 26 -19.5 62.5t17.5 65.5t47 34q46 8 65 -43.5t9 -121.5zM138 469q-14 -46 -14 -51q19 -5 41 -1q8 42 4 74q-1 13 -4 25.5t-8.5 26.5
t-16.5 20.5t-26 1.5q-26 -9 -36.5 -46.5t5.5 -67.5q19 32 24 38q6 5 13.5 1.5t13.5 -11t4 -10.5zM144 348q10 16 17 45q-25 -1 -43 3q-17 -67 1 -70q10 -2 25 22z" />
    <glyph glyph-name="onequarter" unicode="&#xbc;" horiz-adv-x="450" 
d="M355 595q7 10 19 9.5t20.5 -10t3.5 -19.5q-29 -57 -136.5 -289.5t-163.5 -331.5q-6 -10 -19 -9t-23 12.5t-2 22.5q47 87 151.5 307.5t149.5 307.5zM161 300q0 21 -2 81t-1.5 107t5.5 78q3 7 -11.5 14.5t-25.5 3.5q-1 -2 -15 -20t-17 -25q-2 -4 0.5 -7t6.5 -2.5t7 3.5
q2 1 4.5 4.5l4.5 6.5t3 3q1 -44 -1.5 -126t-2.5 -113q0 -12 19 -25q23 -10 26 17zM398 0v179q0 12 -27 -1q-19 -9 -25 -21q-2 -3 -0.5 -20.5t0.5 -21.5q-35 -7 -46 0q37 33 67 78t31 89q0 5 -12.5 12.5t-23 8.5t-13.5 -10q-14 -125 -59 -160q-24 -19 -16 -31q3 -7 16 -5
q42 0 56 1v-82q0 -17 26 -23q24 -5 26 7z" />
    <glyph glyph-name="onehalf" unicode="&#xbd;" horiz-adv-x="492" 
d="M355 595q7 10 19 9.5t20.5 -10t3.5 -19.5q-29 -57 -136.5 -289.5t-163.5 -331.5q-6 -10 -19 -9t-23 12.5t-2 22.5q47 87 151.5 307.5t149.5 307.5zM161 300q0 21 -2 81t-1.5 107t5.5 78q3 7 -11.5 14.5t-25.5 3.5q-1 -2 -15 -20t-17 -25q-2 -4 0.5 -7t6.5 -2.5t7 3.5
q2 1 4.5 4.5l4.5 6.5t3 3q1 -44 -1.5 -126t-2.5 -113q0 -12 19 -25q23 -10 26 17zM328 204q-14 28 -2.5 57t37.5 26q17 -2 20.5 -25t-7.5 -49q-6 -14 -16.5 -35t-20.5 -38.5t-20 -39.5t-15 -41.5t-4 -41t10 -40.5q10 24 28 26.5t36 -6.5t34.5 -16t26 4.5t6.5 48.5
q-2 7 -8 11q-2 1 -3 0v-3q1 -12 -8.5 -15.5t-25 -1.5t-31.5 3.5t-29 -4t-16 -20.5q-9 29 6 59.5t38 52.5t45.5 51t26.5 53q5 35 -10.5 56.5t-46.5 27.5q-40 10 -63.5 -22.5t-8.5 -73.5q6 -16 17 -11q5 2 4 7z" />
    <glyph glyph-name="threequarters" unicode="&#xbe;" horiz-adv-x="458" 
d="M363 595q7 10 19 9.5t20.5 -10t3.5 -19.5q-29 -57 -136.5 -289.5t-163.5 -331.5q-6 -10 -19 -9t-23 12.5t-2 22.5q47 87 151.5 307.5t149.5 307.5zM398 0v179q0 12 -27 -1q-19 -9 -25 -21q-2 -3 -0.5 -20.5t0.5 -21.5q-35 -7 -46 0q37 33 67 78t31 89q0 5 -12.5 12.5
t-23 8.5t-13.5 -10q-14 -125 -59 -160q-24 -19 -16 -31q3 -7 16 -5q42 0 56 1v-82q0 -17 26 -23q24 -5 26 7zM77 369q-25 -9 -26.5 -42.5t32.5 -43.5q64 -10 93 44q24 47 4 92q-18 40 -63 40q25 10 39 36.5t3 52.5q-14 23 -42 26.5t-46.5 -14t-9.5 -44.5q7 -6 12 -1t3 10
q-1 20 11.5 29.5t26 1.5t13.5 -30q2 -22 -14 -46.5t-37 -32.5q-1 -1 -1 -7t1 -7q43 19 59 -25q15 -40 -3 -79q-14 -30 -40 -27q-23 4 -24.5 25.5t16.5 25.5q4 3 3.5 7.5t-4 7.5t-6.5 1z" />
    <glyph glyph-name="questiondown" unicode="&#xbf;" horiz-adv-x="469" 
d="M298 131q-19 -3 -23 17q0 21 17 23q55 8 91 -53q37 -63 19 -136q-21 -86 -110 -111q-32 -9 -70 -9q-94 0 -141.5 55t-39.5 145q4 47 28.5 93t56 81l62 68.5t49 68t14.5 66.5q-7 69 29 79q26 7 48 -22q31 -43 -2 -100q-9 -17 -25 -34q-49 -32 -106.5 -108.5t-61.5 -143.5
q-3 -46 11 -94t49.5 -82.5t84.5 -26.5q67 11 87 80q18 60 -8 109q-22 41 -59 35zM250 604q2 26 24 39.5t42.5 0t19.5 -51.5q-4 -31 -27 -42.5t-42.5 4t-16.5 50.5z" />
    <glyph glyph-name="Agrave" unicode="&#xc0;" horiz-adv-x="579" 
d="M270 610q0 -13 -1 -19q-8 -115 -35 -273q23 1 98 -1q-30 252 -47 303q-18 51 -58 77.5t-86 0.5q-77 -45 -34 -151q6 -17 -11 -27q-17 -7 -25 11q-47 115 27 184q52 48 131 40t110 -65q28 -48 56.5 -163t39.5 -196l2 -10q1 1 5 2.5t5 2.5q15 8 29 37q2 5 5 7q9 11 18 6
q19 -9 13 -26q-21 -54 -70 -69q37 -254 95 -339q5 -5 12 -6.5t12.5 -0.5t10 -1t6.5 -9q3 -13 -15.5 -19.5t-43 -3.5t-38.5 13q-30 26 -53.5 61.5t-36.5 65.5t-25.5 79.5t-17 75.5t-12.5 80q-77 4 -110 1q-67 -334 -150 -367q-56 -24 -85 4.5t-27 86.5q3 97 54 183.5
t136 117.5q18 7 38 10q36 196 40 297q0 7 6 13t13 6q8 0 13.5 -5.5t5.5 -13.5zM183 272q-73 -21 -119 -89q-29 -40 -49 -111t-7 -112q6 -19 25 -21t34 10q58 41 116 323zM311 869q19 -20 67 -111q2 -4 -6 -6q-11 -3 -15 0q-14 8 -29.5 20t-25 20t-18.5 14.5t-15 6t-10 -8.5
q-31 25 -18 58q10 27 36 25q18 -1 34 -18z" />
    <glyph glyph-name="Aacute" unicode="&#xc1;" horiz-adv-x="579" 
d="M270 610q0 -13 -1 -19q-8 -115 -35 -273q23 1 98 -1q-30 252 -47 303q-18 51 -58 77.5t-86 0.5q-77 -45 -34 -151q6 -17 -11 -27q-17 -7 -25 11q-47 115 27 184q52 48 131 40t110 -65q28 -48 56.5 -163t39.5 -196l2 -10q1 1 5 2.5t5 2.5q15 8 29 37q2 5 5 7q9 11 18 6
q19 -9 13 -26q-21 -54 -70 -69q37 -254 95 -339q5 -5 12 -6.5t12.5 -0.5t10 -1t6.5 -9q3 -13 -15.5 -19.5t-43 -3.5t-38.5 13q-30 26 -53.5 61.5t-36.5 65.5t-25.5 79.5t-17 75.5t-12.5 80q-77 4 -110 1q-67 -334 -150 -367q-56 -24 -85 4.5t-27 86.5q3 97 54 183.5
t136 117.5q18 7 38 10q36 196 40 297q0 7 6 13t13 6q8 0 13.5 -5.5t5.5 -13.5zM183 272q-73 -21 -119 -89q-29 -40 -49 -111t-7 -112q6 -19 25 -21t34 10q58 41 116 323zM315 900q31 32 57 11q24 -18 15 -48q-5 -16 -20 -28q-4 8 -10 8.5t-15 -6t-18.5 -14.5t-25 -20
t-29.5 -20q-6 -4 -18 1q-5 2 -3 5q48 91 67 111z" />
    <glyph glyph-name="Acircumflex" unicode="&#xc2;" horiz-adv-x="579" 
d="M270 610q0 -13 -1 -19q-8 -115 -35 -273q23 1 98 -1q-30 252 -47 303q-18 51 -58 77.5t-86 0.5q-77 -45 -34 -151q6 -17 -11 -27q-17 -7 -25 11q-47 115 27 184q52 48 131 40t110 -65q28 -48 56.5 -163t39.5 -196l2 -10q1 1 5 2.5t5 2.5q15 8 29 37q2 5 5 7q9 11 18 6
q19 -9 13 -26q-21 -54 -70 -69q37 -254 95 -339q5 -5 12 -6.5t12.5 -0.5t10 -1t6.5 -9q3 -13 -15.5 -19.5t-43 -3.5t-38.5 13q-30 26 -53.5 61.5t-36.5 65.5t-25.5 79.5t-17 75.5t-12.5 80q-77 4 -110 1q-67 -334 -150 -367q-56 -24 -85 4.5t-27 86.5q3 97 54 183.5
t136 117.5q18 7 38 10q36 196 40 297q0 7 6 13t13 6q8 0 13.5 -5.5t5.5 -13.5zM183 272q-73 -21 -119 -89q-29 -40 -49 -111t-7 -112q6 -19 25 -21t34 10q58 41 116 323zM276 769q-19 20 -67 111q-2 4 6 6q11 3 15 0q14 -8 29.5 -20t25 -20t18.5 -14.5t15 -6t10 8.5
q31 -25 18 -58q-10 -27 -36 -25q-18 1 -34 18zM135 769q-31 -32 -57 -11q-24 18 -15 48q5 16 20 28q4 -8 10 -8.5t15 6t18.5 14.5t25 20t29.5 20q6 4 18 -1q5 -2 3 -5q-48 -91 -67 -111z" />
    <glyph glyph-name="Atilde" unicode="&#xc3;" horiz-adv-x="579" 
d="M270 610q0 -13 -1 -19q-8 -115 -35 -273q23 1 98 -1q-30 252 -47 303q-18 51 -58 77.5t-86 0.5q-77 -45 -34 -151q6 -17 -11 -27q-17 -7 -25 11q-47 115 27 184q52 48 131 40t110 -65q28 -48 56.5 -163t39.5 -196l2 -10q1 1 5 2.5t5 2.5q15 8 29 37q2 5 5 7q9 11 18 6
q19 -9 13 -26q-21 -54 -70 -69q37 -254 95 -339q5 -5 12 -6.5t12.5 -0.5t10 -1t6.5 -9q3 -13 -15.5 -19.5t-43 -3.5t-38.5 13q-30 26 -53.5 61.5t-36.5 65.5t-25.5 79.5t-17 75.5t-12.5 80q-77 4 -110 1q-67 -334 -150 -367q-56 -24 -85 4.5t-27 86.5q3 97 54 183.5
t136 117.5q18 7 38 10q36 196 40 297q0 7 6 13t13 6q8 0 13.5 -5.5t5.5 -13.5zM183 272q-73 -21 -119 -89q-29 -40 -49 -111t-7 -112q6 -19 25 -21t34 10q58 41 116 323zM77 770q5 35 29 51t56.5 13.5t71 -9.5t71.5 -15t57 -5.5t29 20.5q2 11 13 9q9 -1 9 -13
q-11 -43 -37.5 -59t-57.5 -9t-66.5 19.5t-65 25.5t-53 10t-30.5 -29q-7 -28 -17 -27q-10 3 -9 18z" />
    <glyph glyph-name="Adieresis" unicode="&#xc4;" horiz-adv-x="579" 
d="M270 610q0 -13 -1 -19q-8 -115 -35 -273q23 1 98 -1q-30 252 -47 303q-18 51 -58 77.5t-86 0.5q-77 -45 -34 -151q6 -17 -11 -27q-17 -7 -25 11q-47 115 27 184q52 48 131 40t110 -65q28 -48 56.5 -163t39.5 -196l2 -10q1 1 5 2.5t5 2.5q15 8 29 37q2 5 5 7q9 11 18 6
q19 -9 13 -26q-21 -54 -70 -69q37 -254 95 -339q5 -5 12 -6.5t12.5 -0.5t10 -1t6.5 -9q3 -13 -15.5 -19.5t-43 -3.5t-38.5 13q-30 26 -53.5 61.5t-36.5 65.5t-25.5 79.5t-17 75.5t-12.5 80q-77 4 -110 1q-67 -334 -150 -367q-56 -24 -85 4.5t-27 86.5q3 97 54 183.5
t136 117.5q18 7 38 10q36 196 40 297q0 7 6 13t13 6q8 0 13.5 -5.5t5.5 -13.5zM183 272q-73 -21 -119 -89q-29 -40 -49 -111t-7 -112q6 -19 25 -21t34 10q58 41 116 323zM204 812q-2 -26 -24 -39.5t-42.5 0t-19.5 51.5q4 31 27 42.5t42.5 -4t16.5 -50.5zM325 812
q-2 -26 -24 -39.5t-42.5 0t-19.5 51.5q4 31 27 42.5t42.5 -4t16.5 -50.5z" />
    <glyph glyph-name="Aring" unicode="&#xc5;" horiz-adv-x="579" 
d="M223 737q12 0 22 15q66 -13 94 -62q28 -48 56.5 -163t39.5 -196l2 -10q1 1 5 2.5t5 2.5q15 8 29 37q2 5 5 7q9 11 18 6q19 -9 13 -26q-21 -54 -70 -69q37 -254 95 -339q5 -5 12 -6.5t12.5 -0.5t10 -1t6.5 -9q3 -13 -15.5 -19.5t-43 -3.5t-38.5 13q-30 26 -53.5 61.5
t-36.5 65.5t-25.5 79.5t-17 75.5t-12.5 80q-77 4 -110 1q-67 -334 -150 -367q-56 -24 -85 4.5t-27 86.5q3 97 54 183.5t136 117.5q18 7 38 10q36 196 40 297q0 7 6 13t13 6q8 0 13.5 -5.5t5.5 -13.5q0 -13 -1 -19q-8 -115 -35 -273q23 1 98 -1q-30 252 -47 303
q-18 51 -58 77.5t-86 0.5q-77 -45 -34 -151q6 -17 -11 -27q-17 -7 -25 11q-47 115 27 184q38 35 97 40q10 -18 28 -18zM183 272q-73 -21 -119 -89q-29 -40 -49 -111t-7 -112q6 -19 25 -21t34 10q58 41 116 323zM245 752l-9 2q11 18 9.5 55t-17.5 48q-10 -5 -16 -42.5
t1 -58.5q-12 0 -18 -1q-13 25 -4 64.5t33 47.5q2 2 7 1.5t7 -4.5q0 -1 -3 -2l-3 -2q21 -9 24.5 -47.5t-11.5 -60.5zM224 744q-8 0 -11 12q9 0 23 -2q-5 -11 -12 -10z" />
    <glyph glyph-name="Ccedilla" unicode="&#xc7;" horiz-adv-x="442" 
d="M199 -244q-9 -4 -2 -10q10 -8 20 9q6 11 9 31q6 41 -23 58q-2 1 -8.5 4t-10 5t-8 8t-6.5 13.5t-1.5 20t3.5 28.5q-82 42 -120.5 152t-34.5 238q5 149 52 234q-37 18 -60 48q-66 78 -20 166q4 7 11.5 9t14.5 -2t9.5 -12t-2.5 -15q-40 -79 40 -143q16 -12 25 -16
q90 162 241 172q65 7 95 -33q24 -27 15.5 -59t-30.5 -58t-50 -43q-96 -60 -183 -46q-12 -37 -19.5 -109t-5 -156.5t15.5 -158.5t46.5 -117t83.5 -31q30 8 51 34t27.5 58.5t4.5 63.5t-17 53t-38 24q-18 2 -25 -22q-28 -24 -40 -4q-10 20 7 43q24 32 76 20q42 -10 61 -45.5
t17.5 -74.5t-13.5 -79q-15 -51 -48.5 -81t-75.5 -32q-41 -3 -75 8q-15 -29 11 -30q53 -1 67 -52q12 -46 -16 -84q-29 -40 -79 -23q-28 10 -20 37q7 22 26 23q7 1 14 -3q11 -6 4 -17q-6 -9 -16 -4zM189 552q63 0 101 14t78 51t30 67.5t-67 30.5q-34 0 -77 -48.5t-65 -114.5z
" />
    <glyph glyph-name="Egrave" unicode="&#xc8;" horiz-adv-x="427" 
d="M25 725q-38 -78 40 -141q25 -21 52 -27q4 81 65 141.5t145 52.5q53 -5 78 -34q38 -45 0.5 -96.5t-107 -82.5t-122.5 -29q-2 -22 7 -40q86 27 126 -8q26 -24 8 -51q-16 -24 -59 -29q-50 -6 -87 31q-63 -77 -66 -236q0 -104 33.5 -170.5t93.5 -62.5q56 2 95 61t36 114
q-3 24 -22 45t-45 18q-11 -2 -19 -20t-19 -21q-18 -5 -25 17q-10 29 18 48q10 7 25 11q52 13 86.5 -16.5t38.5 -78.5q6 -72 -42.5 -140t-123.5 -77t-135.5 34t-90.5 112t-27 144q8 176 159 259q-17 23 -22 63q-65 14 -105 64q-67 77 -21 165q4 7 11.5 9.5t14.5 -1.5
q17 -13 6 -28zM181 549q87 -5 155 56q47 42 44 78q-2 38 -66 25h-2q-31 -6 -72.5 -49t-58.5 -110zM203 434q22 -17 51 -14q32 7 33 13q0 3 -4 7q-5 6 -35 5.5t-45 -11.5zM230 882q19 -20 67 -111q2 -4 -6 -6q-11 -3 -15 0q-14 8 -29.5 20t-25 20t-18.5 14.5t-15 6t-10 -8.5
q-31 25 -18 58q10 27 36 25q18 -1 34 -18z" />
    <glyph glyph-name="Eacute" unicode="&#xc9;" horiz-adv-x="427" 
d="M25 725q-38 -78 40 -141q25 -21 52 -27q4 81 65 141.5t145 52.5q53 -5 78 -34q38 -45 0.5 -96.5t-107 -82.5t-122.5 -29q-2 -22 7 -40q86 27 126 -8q26 -24 8 -51q-16 -24 -59 -29q-50 -6 -87 31q-63 -77 -66 -236q0 -104 33.5 -170.5t93.5 -62.5q56 2 95 61t36 114
q-3 24 -22 45t-45 18q-11 -2 -19 -20t-19 -21q-18 -5 -25 17q-10 29 18 48q10 7 25 11q52 13 86.5 -16.5t38.5 -78.5q6 -72 -42.5 -140t-123.5 -77t-135.5 34t-90.5 112t-27 144q8 176 159 259q-17 23 -22 63q-65 14 -105 64q-67 77 -21 165q4 7 11.5 9.5t14.5 -1.5
q17 -13 6 -28zM181 549q87 -5 155 56q47 42 44 78q-2 38 -66 25h-2q-31 -6 -72.5 -49t-58.5 -110zM203 434q22 -17 51 -14q32 7 33 13q0 3 -4 7q-5 6 -35 5.5t-45 -11.5zM302 882q31 32 57 11q24 -18 15 -48q-5 -16 -20 -28q-4 8 -10 8.5t-15 -6t-18.5 -14.5t-25 -20
t-29.5 -20q-6 -4 -18 1q-5 2 -3 5q48 91 67 111z" />
    <glyph glyph-name="Ecircumflex" unicode="&#xca;" horiz-adv-x="427" 
d="M25 725q-38 -78 40 -141q25 -21 52 -27q4 81 65 141.5t145 52.5q53 -5 78 -34q38 -45 0.5 -96.5t-107 -82.5t-122.5 -29q-2 -22 7 -40q86 27 126 -8q26 -24 8 -51q-16 -24 -59 -29q-50 -6 -87 31q-63 -77 -66 -236q0 -104 33.5 -170.5t93.5 -62.5q56 2 95 61t36 114
q-3 24 -22 45t-45 18q-11 -2 -19 -20t-19 -21q-18 -5 -25 17q-10 29 18 48q10 7 25 11q52 13 86.5 -16.5t38.5 -78.5q6 -72 -42.5 -140t-123.5 -77t-135.5 34t-90.5 112t-27 144q8 176 159 259q-17 23 -22 63q-65 14 -105 64q-67 77 -21 165q4 7 11.5 9.5t14.5 -1.5
q17 -13 6 -28zM181 549q87 -5 155 56q47 42 44 78q-2 38 -66 25h-2q-31 -6 -72.5 -49t-58.5 -110zM203 434q22 -17 51 -14q32 7 33 13q0 3 -4 7q-5 6 -35 5.5t-45 -11.5zM383 769q-19 20 -67 111q-2 4 6 6q11 3 15 0q14 -8 29.5 -20t25 -20t18.5 -14.5t15 -6t10 8.5
q31 -25 18 -58q-10 -27 -36 -25q-18 1 -34 18zM242 769q-31 -32 -57 -11q-24 18 -15 48q5 16 20 28q4 -8 10 -8.5t15 6t18.5 14.5t25 20t29.5 20q6 4 18 -1q5 -2 3 -5q-48 -91 -67 -111z" />
    <glyph glyph-name="Edieresis" unicode="&#xcb;" horiz-adv-x="427" 
d="M25 725q-38 -78 40 -141q25 -21 52 -27q4 81 65 141.5t145 52.5q53 -5 78 -34q38 -45 0.5 -96.5t-107 -82.5t-122.5 -29q-2 -22 7 -40q86 27 126 -8q26 -24 8 -51q-16 -24 -59 -29q-50 -6 -87 31q-63 -77 -66 -236q0 -104 33.5 -170.5t93.5 -62.5q56 2 95 61t36 114
q-3 24 -22 45t-45 18q-11 -2 -19 -20t-19 -21q-18 -5 -25 17q-10 29 18 48q10 7 25 11q52 13 86.5 -16.5t38.5 -78.5q6 -72 -42.5 -140t-123.5 -77t-135.5 34t-90.5 112t-27 144q8 176 159 259q-17 23 -22 63q-65 14 -105 64q-67 77 -21 165q4 7 11.5 9.5t14.5 -1.5
q17 -13 6 -28zM181 549q87 -5 155 56q47 42 44 78q-2 38 -66 25h-2q-31 -6 -72.5 -49t-58.5 -110zM203 434q22 -17 51 -14q32 7 33 13q0 3 -4 7q-5 6 -35 5.5t-45 -11.5zM317 808q-2 -26 -24 -39.5t-42.5 0t-19.5 51.5q4 31 27 42.5t42.5 -4t16.5 -50.5zM438 808
q-2 -26 -24 -39.5t-42.5 0t-19.5 51.5q4 31 27 42.5t42.5 -4t16.5 -50.5z" />
    <glyph glyph-name="Igrave" unicode="&#xcc;" horiz-adv-x="407" 
d="M136 493q-21 20 -29 35.5t-11 43.5q-6 86 55 141.5t147 34.5q34 -9 47.5 -23t9.5 -46q-25 -247 -20 -383q2 -52 -6.5 -111.5t-28.5 -122.5t-63 -106.5t-101 -48.5q-50 -4 -89.5 26t-55.5 78.5t-14 100.5t36 97.5t93 64.5l22 5q18 6 24 -13q2 -8 -2.5 -15t-13.5 -8l-17 -5
q-79 -26 -98 -114q-17 -74 17 -135q32 -56 84 -45q41 11 67 80t33 138.5t5 128.5q-1 34 2.5 197t7.5 226q-31 0 -57 -21t-38.5 -50.5t-9 -63t25.5 -56.5q7 -4 9 -12.5t-3 -13.5q-5 -7 -13.5 -8t-14.5 4zM257 882q19 -20 67 -111q2 -4 -6 -6q-11 -3 -15 0q-14 8 -29.5 20
t-25 20t-18.5 14.5t-15 6t-10 -8.5q-31 25 -18 58q10 27 36 25q18 -1 34 -18z" />
    <glyph glyph-name="Iacute" unicode="&#xcd;" horiz-adv-x="407" 
d="M136 493q-21 20 -29 35.5t-11 43.5q-6 86 55 141.5t147 34.5q34 -9 47.5 -23t9.5 -46q-25 -247 -20 -383q2 -52 -6.5 -111.5t-28.5 -122.5t-63 -106.5t-101 -48.5q-50 -4 -89.5 26t-55.5 78.5t-14 100.5t36 97.5t93 64.5l22 5q18 6 24 -13q2 -8 -2.5 -15t-13.5 -8l-17 -5
q-79 -26 -98 -114q-17 -74 17 -135q32 -56 84 -45q41 11 67 80t33 138.5t5 128.5q-1 34 2.5 197t7.5 226q-31 0 -57 -21t-38.5 -50.5t-9 -63t25.5 -56.5q7 -4 9 -12.5t-3 -13.5q-5 -7 -13.5 -8t-14.5 4zM214 870q31 32 57 11q24 -18 15 -48q-5 -16 -20 -28q-4 8 -10 8.5
t-15 -6t-18.5 -14.5t-25 -20t-29.5 -20q-6 -4 -18 1q-5 2 -3 5q48 91 67 111z" />
    <glyph glyph-name="Icircumflex" unicode="&#xce;" horiz-adv-x="407" 
d="M136 493q-21 20 -29 35.5t-11 43.5q-6 86 55 141.5t147 34.5q34 -9 47.5 -23t9.5 -46q-25 -247 -20 -383q2 -52 -6.5 -111.5t-28.5 -122.5t-63 -106.5t-101 -48.5q-50 -4 -89.5 26t-55.5 78.5t-14 100.5t36 97.5t93 64.5l22 5q18 6 24 -13q2 -8 -2.5 -15t-13.5 -8l-17 -5
q-79 -26 -98 -114q-17 -74 17 -135q32 -56 84 -45q41 11 67 80t33 138.5t5 128.5q-1 34 2.5 197t7.5 226q-31 0 -57 -21t-38.5 -50.5t-9 -63t25.5 -56.5q7 -4 9 -12.5t-3 -13.5q-5 -7 -13.5 -8t-14.5 4zM332 759q-19 20 -67 111q-2 4 6 6q11 3 15 0q14 -8 29.5 -20t25 -20
t18.5 -14.5t15 -6t10 8.5q31 -25 18 -58q-10 -27 -36 -25q-18 1 -34 18zM191 759q-31 -32 -57 -11q-24 18 -15 48q5 16 20 28q4 -8 10 -8.5t15 6t18.5 14.5t25 20t29.5 20q6 4 18 -1q5 -2 3 -5q-48 -91 -67 -111z" />
    <glyph glyph-name="Idieresis" unicode="&#xcf;" horiz-adv-x="407" 
d="M136 493q-21 20 -29 35.5t-11 43.5q-6 86 55 141.5t147 34.5q34 -9 47.5 -23t9.5 -46q-25 -247 -20 -383q2 -52 -6.5 -111.5t-28.5 -122.5t-63 -106.5t-101 -48.5q-50 -4 -89.5 26t-55.5 78.5t-14 100.5t36 97.5t93 64.5l22 5q18 6 24 -13q2 -8 -2.5 -15t-13.5 -8l-17 -5
q-79 -26 -98 -114q-17 -74 17 -135q32 -56 84 -45q41 11 67 80t33 138.5t5 128.5q-1 34 2.5 197t7.5 226q-31 0 -57 -21t-38.5 -50.5t-9 -63t25.5 -56.5q7 -4 9 -12.5t-3 -13.5q-5 -7 -13.5 -8t-14.5 4zM239 815q-2 -26 -24 -39.5t-42.5 0t-19.5 51.5q4 31 27 42.5t42.5 -4
t16.5 -50.5zM360 815q-2 -26 -24 -39.5t-42.5 0t-19.5 51.5q4 31 27 42.5t42.5 -4t16.5 -50.5z" />
    <glyph glyph-name="Eth" unicode="&#xd0;" horiz-adv-x="715" 
d="M431 370q12 0 17 -13t0 -25t-16 -12h-114q0 -1 0.5 -3.5t0.5 -3.5q0 -6 3 -37t5 -59.5t1.5 -70.5t-4 -77t-14 -70.5t-27 -58.5t-45 -34.5t-65.5 -4.5q-27 5 -39.5 51.5t-11 117t6.5 130.5t13 119q-52 0 -91 1q-12 -1 -16.5 12t1 26t19.5 13q42 -1 95 -1v1q1 1 1 2
q18 99 44 168q-12 44 -18.5 65.5t-24 54t-38.5 45.5q-42 26 -83 -8q-32 -28 -28 -60q3 -21 24 -31q19 -6 12 -24q-7 -19 -27 -13q-71 37 -41 110q28 68 92 75q61 7 112 -25t71 -85q33 68 87.5 90.5t115.5 6.5q58 -16 100.5 -60t64 -99t31.5 -121t9.5 -122.5t-7.5 -105.5
q-8 -55 -36.5 -113t-81 -101.5t-113.5 -37.5q-41 4 -61 38.5t-18 77.5t15 85.5t33 63.5q41 45 81.5 22t34.5 -89l-4 -24q-8 -21 -25 -16q-8 2 -12 9t-2 15l3 20q4 43 -14.5 51t-40.5 -25q-14 -20 -24.5 -63.5t-2.5 -83.5t40 -41q21 -1 38.5 11.5t29 38.5t19.5 50.5t14 62.5
t8 57.5t5 51.5q14 196 -56 318q-47 83 -108 85q-64 2 -102 -92q31 -125 46 -234q64 0 118 -1zM180 319l-7 -65q-5 -43 -8 -99t0 -126t18 -88q8 -1 14 9q50 67 28 369h-45zM221 370l-10 91q-14 -46 -22 -91h32z" />
    <glyph glyph-name="Ntilde" unicode="&#xd1;" horiz-adv-x="555" 
d="M69 147q-34 1 -53.5 -39t-14 -86.5t34.5 -62.5q55 -29 99.5 10.5t69 116.5t37.5 152t13 130q-17 37 -40.5 117.5t-35 163.5t21.5 100q50 24 81 -64q23 -82 22 -191q27 -59 66 -153t43 -102q1 -6 14 -32q4 108 15 215q12 137 26 190q29 103 93 136l22 8q8 4 16 0t10 -12
t-2 -15.5t-11 -8.5l-19 -7q-17 -9 -31 -24t-23.5 -40l-16 -41.5t-11.5 -52.5l-6.5 -47t-4.5 -50l-4 -39q-1 -17 -7 -86t-9 -121.5t-3 -99.5q71 -210 14 -217q-28 -3 -41 22.5t-17 67.5q-70 192 -125 307q-2 -30 -4.5 -49.5t-6 -36t-5.5 -25t-8.5 -28t-10.5 -33.5
q-8 -29 -18.5 -56.5t-26 -59t-35.5 -53.5t-43.5 -36.5t-54 -12t-63.5 22.5q-44 28 -52.5 92t22.5 117t88 52q18 -2 18 -21q-2 -18 -23 -18zM263 590q-9 95 -38 123q-5 2 -7 1q-2 -3 -2 -7t2 -11l4 -13.5t7 -17.5l9 -20l11.5 -25.5zM236 777q5 35 29 51t56.5 13.5t71 -9.5
t71.5 -15t57 -5.5t29 20.5q2 11 13 9q9 -1 9 -13q-11 -43 -37.5 -59t-57.5 -9t-66.5 19.5t-65 25.5t-53 10t-30.5 -29q-7 -28 -17 -27q-10 3 -9 18z" />
    <glyph glyph-name="Ograve" unicode="&#xd2;" horiz-adv-x="437" 
d="M274 436q0 -21 -19 -21q-18 -2 -21 19q-3 32 -15 51.5t-41 31.5q-31 13 -54 -54q-33 -100 -28 -272q6 -179 52 -228q12 -13 26 -14q54 -1 97 82q42 76 58 205.5t-5 258.5t-78 191q-28 30 -61 36t-55.5 -10.5t-33 -49t6.5 -79.5q3 -7 0 -15t-11 -10q-17 -7 -26 11
q-24 64 -7.5 109t50 68.5t81 15t84.5 -50.5q64 -69 87.5 -212.5t3 -288.5t-74.5 -225q-41 -60 -100 -77t-119 25q-60 49 -86 153.5t-14.5 211.5t51.5 174q36 59 91.5 80t113.5 -16q26 -20 34 -41t13 -59zM214 874q19 -20 67 -111q2 -4 -6 -6q-11 -3 -15 0q-14 8 -29.5 20
t-25 20t-18.5 14.5t-15 6t-10 -8.5q-31 25 -18 58q10 27 36 25q18 -1 34 -18z" />
    <glyph glyph-name="Oacute" unicode="&#xd3;" horiz-adv-x="437" 
d="M274 436q0 -21 -19 -21q-18 -2 -21 19q-3 32 -15 51.5t-41 31.5q-31 13 -54 -54q-33 -100 -28 -272q6 -179 52 -228q12 -13 26 -14q54 -1 97 82q42 76 58 205.5t-5 258.5t-78 191q-28 30 -61 36t-55.5 -10.5t-33 -49t6.5 -79.5q3 -7 0 -15t-11 -10q-17 -7 -26 11
q-24 64 -7.5 109t50 68.5t81 15t84.5 -50.5q64 -69 87.5 -212.5t3 -288.5t-74.5 -225q-41 -60 -100 -77t-119 25q-60 49 -86 153.5t-14.5 211.5t51.5 174q36 59 91.5 80t113.5 -16q26 -20 34 -41t13 -59zM163 882q31 32 57 11q24 -18 15 -48q-5 -16 -20 -28q-4 8 -10 8.5
t-15 -6t-18.5 -14.5t-25 -20t-29.5 -20q-6 -4 -18 1q-5 2 -3 5q48 91 67 111z" />
    <glyph glyph-name="Ocircumflex" unicode="&#xd4;" horiz-adv-x="437" 
d="M274 436q0 -21 -19 -21q-18 -2 -21 19q-3 32 -15 51.5t-41 31.5q-31 13 -54 -54q-33 -100 -28 -272q6 -179 52 -228q12 -13 26 -14q54 -1 97 82q42 76 58 205.5t-5 258.5t-78 191q-28 30 -61 36t-55.5 -10.5t-33 -49t6.5 -79.5q3 -7 0 -15t-11 -10q-17 -7 -26 11
q-24 64 -7.5 109t50 68.5t81 15t84.5 -50.5q64 -69 87.5 -212.5t3 -288.5t-74.5 -225q-41 -60 -100 -77t-119 25q-60 49 -86 153.5t-14.5 211.5t51.5 174q36 59 91.5 80t113.5 -16q26 -20 34 -41t13 -59zM236 769q-19 20 -67 111q-2 4 6 6q11 3 15 0q14 -8 29.5 -20t25 -20
t18.5 -14.5t15 -6t10 8.5q31 -25 18 -58q-10 -27 -36 -25q-18 1 -34 18zM95 769q-31 -32 -57 -11q-24 18 -15 48q5 16 20 28q4 -8 10 -8.5t15 6t18.5 14.5t25 20t29.5 20q6 4 18 -1q5 -2 3 -5q-48 -91 -67 -111z" />
    <glyph glyph-name="Otilde" unicode="&#xd5;" horiz-adv-x="437" 
d="M274 436q0 -21 -19 -21q-18 -2 -21 19q-3 32 -15 51.5t-41 31.5q-31 13 -54 -54q-33 -100 -28 -272q6 -179 52 -228q12 -13 26 -14q54 -1 97 82q42 76 58 205.5t-5 258.5t-78 191q-28 30 -61 36t-55.5 -10.5t-33 -49t6.5 -79.5q3 -7 0 -15t-11 -10q-17 -7 -26 11
q-24 64 -7.5 109t50 68.5t81 15t84.5 -50.5q64 -69 87.5 -212.5t3 -288.5t-74.5 -225q-41 -60 -100 -77t-119 25q-60 49 -86 153.5t-14.5 211.5t51.5 174q36 59 91.5 80t113.5 -16q26 -20 34 -41t13 -59zM25 779q5 35 29 51t56.5 13.5t71 -9.5t71.5 -15t57 -5.5t29 20.5
q2 11 13 9q9 -1 9 -13q-11 -43 -37.5 -59t-57.5 -9t-66.5 19.5t-65 25.5t-53 10t-30.5 -29q-7 -28 -17 -27q-10 3 -9 18z" />
    <glyph glyph-name="Odieresis" unicode="&#xd6;" horiz-adv-x="437" 
d="M274 436q0 -21 -19 -21q-18 -2 -21 19q-3 32 -15 51.5t-41 31.5q-31 13 -54 -54q-33 -100 -28 -272q6 -179 52 -228q12 -13 26 -14q54 -1 97 82q42 76 58 205.5t-5 258.5t-78 191q-28 30 -61 36t-55.5 -10.5t-33 -49t6.5 -79.5q3 -7 0 -15t-11 -10q-17 -7 -26 11
q-24 64 -7.5 109t50 68.5t81 15t84.5 -50.5q64 -69 87.5 -212.5t3 -288.5t-74.5 -225q-41 -60 -100 -77t-119 25q-60 49 -86 153.5t-14.5 211.5t51.5 174q36 59 91.5 80t113.5 -16q26 -20 34 -41t13 -59zM159 810q-2 -26 -24 -39.5t-42.5 0t-19.5 51.5q4 31 27 42.5t42.5 -4
t16.5 -50.5zM280 810q-2 -26 -24 -39.5t-42.5 0t-19.5 51.5q4 31 27 42.5t42.5 -4t16.5 -50.5z" />
    <glyph glyph-name="multiply" unicode="&#xd7;" horiz-adv-x="464" 
d="M55 97l141 147l-140 145q-9 8 -3 20.5t18.5 17t23.5 -4.5l137 -142l137 142q9 10 23 4.5t18.5 -17t-2.5 -20.5l-140 -145l141 -147q8 -9 2.5 -22t-16.5 -17t-20 3l-143 146l-143 -146q-8 -9 -20 -3t-16.5 17.5t2.5 21.5z" />
    <glyph glyph-name="Oslash" unicode="&#xd8;" horiz-adv-x="437" 
d="M395 767q7 10 19 9.5t20.5 -10t3.5 -19.5q-33 -65 -88 -195q36 -139 18 -308t-78 -259q-39 -57 -95 -75.5t-113 15.5q-43 -92 -62 -125q-6 -10 -19 -9t-23 12.5t-2 22.5q28 53 65 137q-46 58 -63.5 157t-4.5 195t49 157q36 59 91.5 80t113.5 -16q28 -22 38 -53l40 91
q-22 70 -59 112q-28 30 -61 36t-55.5 -10.5t-33 -49t6.5 -79.5q3 -7 0 -15t-11 -10q-17 -7 -26 11q-24 64 -7.5 109t50 68.5t81 15t84.5 -50.5q28 -31 53 -87q38 84 68 143zM324 491l-203 -479q21 -62 53 -63q54 -1 97 82q42 76 57 208t-4 252zM103 102l136 319q-3 3 -5 13
q-3 32 -15 51.5t-41 31.5q-31 12 -54 -53q-33 -100 -28 -271q1 -49 7 -91z" />
    <glyph glyph-name="Ugrave" unicode="&#xd9;" horiz-adv-x="552" 
d="M33 503q-94 88 -58 176q29 70 101 72q41 2 70.5 -12t44.5 -42.5t23 -58.5t7.5 -72.5t-2.5 -72.5t-6.5 -70.5t-5.5 -54.5q-4 -53 -6 -103.5t-1.5 -129t15.5 -128t44 -51.5q40 -3 107 228q-11 257 13 388q35 192 136 189q48 -1 31 -92q-23 -159 -90 -399q2 -73 12 -186
q8 -107 25 -166q5 -16 -6 -26t-19 -5q-24 3 -57.5 63t-37.5 124q-24 -76 -52 -115.5t-69 -40.5q-38 -1 -66 14t-44 38.5t-25.5 60t-12.5 70.5t-2 78.5t4 75l7 68.5t5 52q0 6 2 32.5t3 43.5t2.5 47.5t1 52t-1.5 49t-5 45.5t-9.5 35t-14.5 25.5t-21 8.5q-34 0 -54 -32
q-50 -67 38 -150q13 -13 2 -27q-12 -14 -28 -2zM452 406q42 167 57 269q5 37 4 44q-27 -24 -41.5 -107t-17.5 -145q-2 -20 -2 -61zM292 865q21 -23 64 -103q2 -4 -6 -6q-10 -2 -14 0q-14 8 -28.5 19t-23.5 18.5t-18 13.5t-14.5 5.5t-9.5 -7.5q-31 23 -18 54q11 26 37 23
q16 -2 31 -17z" />
    <glyph glyph-name="Uacute" unicode="&#xda;" horiz-adv-x="552" 
d="M33 503q-94 88 -58 176q29 70 101 72q41 2 70.5 -12t44.5 -42.5t23 -58.5t7.5 -72.5t-2.5 -72.5t-6.5 -70.5t-5.5 -54.5q-4 -53 -6 -103.5t-1.5 -129t15.5 -128t44 -51.5q40 -3 107 228q-11 257 13 388q35 192 136 189q48 -1 31 -92q-23 -159 -90 -399q2 -73 12 -186
q8 -107 25 -166q5 -16 -6 -26t-19 -5q-24 3 -57.5 63t-37.5 124q-24 -76 -52 -115.5t-69 -40.5q-38 -1 -66 14t-44 38.5t-25.5 60t-12.5 70.5t-2 78.5t4 75l7 68.5t5 52q0 6 2 32.5t3 43.5t2.5 47.5t1 52t-1.5 49t-5 45.5t-9.5 35t-14.5 25.5t-21 8.5q-34 0 -54 -32
q-50 -67 38 -150q13 -13 2 -27q-12 -14 -28 -2zM452 406q42 167 57 269q5 37 4 44q-27 -24 -41.5 -107t-17.5 -145q-2 -20 -2 -61zM362 875q31 32 57 11q24 -18 15 -48q-5 -16 -20 -28q-4 8 -10 8.5t-15 -6t-18.5 -14.5t-25 -20t-29.5 -20q-6 -4 -18 1q-5 2 -3 5
q48 91 67 111z" />
    <glyph glyph-name="Ucircumflex" unicode="&#xdb;" horiz-adv-x="552" 
d="M33 503q-94 88 -58 176q29 70 101 72q41 2 70.5 -12t44.5 -42.5t23 -58.5t7.5 -72.5t-2.5 -72.5t-6.5 -70.5t-5.5 -54.5q-4 -53 -6 -103.5t-1.5 -129t15.5 -128t44 -51.5q40 -3 107 228q-11 257 13 388q35 192 136 189q48 -1 31 -92q-23 -159 -90 -399q2 -73 12 -186
q8 -107 25 -166q5 -16 -6 -26t-19 -5q-24 3 -57.5 63t-37.5 124q-24 -76 -52 -115.5t-69 -40.5q-38 -1 -66 14t-44 38.5t-25.5 60t-12.5 70.5t-2 78.5t4 75l7 68.5t5 52q0 6 2 32.5t3 43.5t2.5 47.5t1 52t-1.5 49t-5 45.5t-9.5 35t-14.5 25.5t-21 8.5q-34 0 -54 -32
q-50 -67 38 -150q13 -13 2 -27q-12 -14 -28 -2zM452 406q42 167 57 269q5 37 4 44q-27 -24 -41.5 -107t-17.5 -145q-2 -20 -2 -61zM375 774q-19 20 -67 111q-2 4 6 6q11 3 15 0q14 -8 29.5 -20t25 -20t18.5 -14.5t15 -6t10 8.5q31 -25 18 -58q-10 -27 -36 -25q-18 1 -34 18z
M234 774q-31 -32 -57 -11q-24 18 -15 48q5 16 20 28q4 -8 10 -8.5t15 6t18.5 14.5t25 20t29.5 20q6 4 18 -1q5 -2 3 -5q-48 -91 -67 -111z" />
    <glyph glyph-name="Udieresis" unicode="&#xdc;" horiz-adv-x="552" 
d="M33 503q-94 88 -58 176q29 70 101 72q41 2 70.5 -12t44.5 -42.5t23 -58.5t7.5 -72.5t-2.5 -72.5t-6.5 -70.5t-5.5 -54.5q-4 -53 -6 -103.5t-1.5 -129t15.5 -128t44 -51.5q40 -3 107 228q-11 257 13 388q35 192 136 189q48 -1 31 -92q-23 -159 -90 -399q2 -73 12 -186
q8 -107 25 -166q5 -16 -6 -26t-19 -5q-24 3 -57.5 63t-37.5 124q-24 -76 -52 -115.5t-69 -40.5q-38 -1 -66 14t-44 38.5t-25.5 60t-12.5 70.5t-2 78.5t4 75l7 68.5t5 52q0 6 2 32.5t3 43.5t2.5 47.5t1 52t-1.5 49t-5 45.5t-9.5 35t-14.5 25.5t-21 8.5q-34 0 -54 -32
q-50 -67 38 -150q13 -13 2 -27q-12 -14 -28 -2zM452 406q42 167 57 269q5 37 4 44q-27 -24 -41.5 -107t-17.5 -145q-2 -20 -2 -61zM283 800q-2 -26 -24 -39.5t-42.5 0t-19.5 51.5q4 31 27 42.5t42.5 -4t16.5 -50.5zM404 800q-2 -26 -24 -39.5t-42.5 0t-19.5 51.5
q4 31 27 42.5t42.5 -4t16.5 -50.5z" />
    <glyph glyph-name="Yacute" unicode="&#xdd;" horiz-adv-x="603" 
d="M35 550q-101 97 -63 188q16 38 48 59t67.5 19t68 -18.5t52.5 -56t17 -91.5q-28 -581 59 -591q17 -2 35.5 20t34 61t24 64.5t17.5 55.5q-2 214 47 340.5t115 117.5q45 -6 25 -101q-39 -175 -78 -297v-3q0 -16 1 -53.5t2 -66t0.5 -72.5t-2.5 -77.5t-7.5 -74.5t-14 -71.5
t-22 -61t-31.5 -49.5t-43 -30.5t-56 -10.5q-67 2 -103 47t-20 110q10 46 40.5 68t74.5 10q18 -9 12 -28q-8 -19 -27 -12q-36 12 -55 -29q-19 -43 1 -83q17 -33 54 -39q34 -5 56 41t27 108t8.5 120t-0.5 78q-29 -64 -51.5 -90.5t-58.5 -32.5q-31 -5 -56.5 4.5t-42 30t-30 49
t-20 61.5t-12 68t-6 68.5t-1.5 62.5t0 50v18q-1 42 6 117.5t7 109.5q1 33 -6 59t-19 39.5t-26.5 18.5t-30.5 -3t-30 -28q-53 -73 40 -162q16 -12 2 -29q-15 -16 -29 -2zM510 491q37 142 37 177q-28 -40 -37 -177zM380 874q31 32 57 11q24 -18 15 -48q-5 -16 -20 -28
q-4 8 -10 8.5t-15 -6t-18.5 -14.5t-25 -20t-29.5 -20q-6 -4 -18 1q-5 2 -3 5q48 91 67 111z" />
    <glyph glyph-name="Thorn" unicode="&#xde;" horiz-adv-x="387" 
d="M100 723l-20 -721q24 374 120 398q51 13 83.5 -29.5t24.5 -108.5q10 4 93 28q8 1 14 -4.5t7 -13.5q1 -16 -18 -21q-63 -17 -104 -36q-15 -45 -52.5 -79.5t-75.5 -20.5q-23 10 -18 31t22.5 42t33.5 30q8 131 -17 129q-24 -2 -51 -118q-43 -181 -45 -454q0 -22 -31 -29
q-40 -10 -65 17q-15 16 -15 42q0 45 4 422t1 495q0 16 27.5 19t54.5 -4t27 -14z" />
    <glyph glyph-name="germandbls" unicode="&#xdf;" horiz-adv-x="499" 
d="M312 576q-112 57 -174 -152q-50 -173 -50 -429q1 -167 21 -186q4 14 15.5 40.5t16.5 54.5q8 25 15.5 30.5t13 -4t12.5 -30.5v-3q-6 -40 -24 -92.5t-38 -55.5q-43 -7 -75 60t-45 180.5t-3 238.5q10 124 40.5 213.5t69.5 133t84 61.5t84 10.5t69 -32.5q34 -28 42.5 -54
t-2.5 -47t-29.5 -42t-35.5 -42.5t-24.5 -44.5t8 -52t57.5 -61q93 30 165 28q20 -1 25 -18q2 -16 -14 -18q-67 -3 -139 -25q53 -60 64.5 -139t-24 -149t-110.5 -101q-68 -28 -113 35q-43 63 -32 160q14 120 105 186q6 5 13 9q-32 35 -47.5 67t-15 56.5t9 47.5t23.5 40
t28 34.5t22.5 31.5t8 29.5t-16.5 30.5zM317 200q-89 -59 -96 -167q-5 -76 31 -120q31 -38 67 -13q23 16 37 55t7 106t-46 139z" />
    <glyph glyph-name="agrave" unicode="&#xe0;" horiz-adv-x="354" 
d="M276 141q15 13 43 68.5t38 85.5q4 11 19 1q18 -13 11 -30q-1 -2 -9.5 -26t-14.5 -38l-17 -40t-21.5 -42l-23 -34t-26.5 -26.5t-28 -8.5q-75 0 -88 171q-50 -52 -86 -45q-61 12 -70 91q-9 75 30 142q40 70 98 58q15 -4 31 -14q27 -23 15 -69q-8 -29 -21 -29h-3
q-7 2 -11.5 9.5t-2.5 14.5q13 40 0 45q-8 4 -18 -18q-17 -36 -20 -108q-1 -26 0.5 -41t5 -20t10 -2t13.5 10t17 18q5 6 8 9q0 2 0.5 12t0.5 13.5t0.5 11.5t2 13t4 12t5.5 13.5t8 12.5q20 24 48 25t36.5 -19.5t-13.5 -61.5q-8 -166 21 -167q4 0 8 3zM193 632q19 -20 67 -111
q2 -4 -6 -6q-11 -3 -15 0q-14 8 -29.5 20t-25 20t-18.5 14.5t-15 6t-10 -8.5q-31 25 -18 58q10 27 36 25q18 -1 34 -18z" />
    <glyph glyph-name="aacute" unicode="&#xe1;" horiz-adv-x="354" 
d="M276 141q15 13 43 68.5t38 85.5q4 11 19 1q18 -13 11 -30q-1 -2 -9.5 -26t-14.5 -38l-17 -40t-21.5 -42l-23 -34t-26.5 -26.5t-28 -8.5q-75 0 -88 171q-50 -52 -86 -45q-61 12 -70 91q-9 75 30 142q40 70 98 58q15 -4 31 -14q27 -23 15 -69q-8 -29 -21 -29h-3
q-7 2 -11.5 9.5t-2.5 14.5q13 40 0 45q-8 4 -18 -18q-17 -36 -20 -108q-1 -26 0.5 -41t5 -20t10 -2t13.5 10t17 18q5 6 8 9q0 2 0.5 12t0.5 13.5t0.5 11.5t2 13t4 12t5.5 13.5t8 12.5q20 24 48 25t36.5 -19.5t-13.5 -61.5q-8 -166 21 -167q4 0 8 3zM160 632q31 32 57 11
q24 -18 15 -48q-5 -16 -20 -28q-4 8 -10 8.5t-15 -6t-18.5 -14.5t-25 -20t-29.5 -20q-6 -4 -18 1q-5 2 -3 5q48 91 67 111z" />
    <glyph glyph-name="acircumflex" unicode="&#xe2;" horiz-adv-x="354" 
d="M276 141q15 13 43 68.5t38 85.5q4 11 19 1q18 -13 11 -30q-1 -2 -9.5 -26t-14.5 -38l-17 -40t-21.5 -42l-23 -34t-26.5 -26.5t-28 -8.5q-75 0 -88 171q-50 -52 -86 -45q-61 12 -70 91q-9 75 30 142q40 70 98 58q15 -4 31 -14q27 -23 15 -69q-8 -29 -21 -29h-3
q-7 2 -11.5 9.5t-2.5 14.5q13 40 0 45q-8 4 -18 -18q-17 -36 -20 -108q-1 -26 0.5 -41t5 -20t10 -2t13.5 10t17 18q5 6 8 9q0 2 0.5 12t0.5 13.5t0.5 11.5t2 13t4 12t5.5 13.5t8 12.5q20 24 48 25t36.5 -19.5t-13.5 -61.5q-8 -166 21 -167q4 0 8 3zM247 519q-19 20 -67 111
q-2 4 6 6q11 3 15 0q14 -8 29.5 -20t25 -20t18.5 -14.5t15 -6t10 8.5q31 -25 18 -58q-10 -27 -36 -25q-18 1 -34 18zM106 519q-31 -32 -57 -11q-24 18 -15 48q5 16 20 28q4 -8 10 -8.5t15 6t18.5 14.5t25 20t29.5 20q6 4 18 -1q5 -2 3 -5q-48 -91 -67 -111z" />
    <glyph glyph-name="atilde" unicode="&#xe3;" horiz-adv-x="354" 
d="M276 141q15 13 43 68.5t38 85.5q4 11 19 1q18 -13 11 -30q-1 -2 -9.5 -26t-14.5 -38l-17 -40t-21.5 -42l-23 -34t-26.5 -26.5t-28 -8.5q-75 0 -88 171q-50 -52 -86 -45q-61 12 -70 91q-9 75 30 142q40 70 98 58q15 -4 31 -14q27 -23 15 -69q-8 -29 -21 -29h-3
q-7 2 -11.5 9.5t-2.5 14.5q13 40 0 45q-8 4 -18 -18q-17 -36 -20 -108q-1 -26 0.5 -41t5 -20t10 -2t13.5 10t17 18q5 6 8 9q0 2 0.5 12t0.5 13.5t0.5 11.5t2 13t4 12t5.5 13.5t8 12.5q20 24 48 25t36.5 -19.5t-13.5 -61.5q-8 -166 21 -167q4 0 8 3zM10 535q5 35 29 51
t56.5 13.5t71 -9.5t71.5 -15t57 -5.5t29 20.5q2 11 13 9q9 -1 9 -13q-11 -43 -37.5 -59t-57.5 -9t-66.5 19.5t-65 25.5t-53 10t-30.5 -29q-7 -28 -17 -27q-10 3 -9 18z" />
    <glyph glyph-name="adieresis" unicode="&#xe4;" horiz-adv-x="354" 
d="M276 141q15 13 43 68.5t38 85.5q4 11 19 1q18 -13 11 -30q-1 -2 -9.5 -26t-14.5 -38l-17 -40t-21.5 -42l-23 -34t-26.5 -26.5t-28 -8.5q-75 0 -88 171q-50 -52 -86 -45q-61 12 -70 91q-9 75 30 142q40 70 98 58q15 -4 31 -14q27 -23 15 -69q-8 -29 -21 -29h-3
q-7 2 -11.5 9.5t-2.5 14.5q13 40 0 45q-8 4 -18 -18q-17 -36 -20 -108q-1 -26 0.5 -41t5 -20t10 -2t13.5 10t17 18q5 6 8 9q0 2 0.5 12t0.5 13.5t0.5 11.5t2 13t4 12t5.5 13.5t8 12.5q20 24 48 25t36.5 -19.5t-13.5 -61.5q-8 -166 21 -167q4 0 8 3zM157 555
q-2 -26 -24 -39.5t-42.5 0t-19.5 51.5q4 31 27 42.5t42.5 -4t16.5 -50.5zM278 555q-2 -26 -24 -39.5t-42.5 0t-19.5 51.5q4 31 27 42.5t42.5 -4t16.5 -50.5z" />
    <glyph glyph-name="aring" unicode="&#xe5;" horiz-adv-x="354" 
d="M276 141q15 13 43 68.5t38 85.5q4 11 19 1q18 -13 11 -30q-1 -2 -9.5 -26t-14.5 -38l-17 -40t-21.5 -42l-23 -34t-26.5 -26.5t-28 -8.5q-75 0 -88 171q-50 -52 -86 -45q-61 12 -70 91q-9 75 30 142q40 70 98 58q15 -4 31 -14q27 -23 15 -69q-8 -29 -21 -29h-3
q-7 2 -11.5 9.5t-2.5 14.5q13 40 0 45q-8 4 -18 -18q-17 -36 -20 -108q-1 -26 0.5 -41t5 -20t10 -2t13.5 10t17 18q5 6 8 9q0 2 0.5 12t0.5 13.5t0.5 11.5t2 13t4 12t5.5 13.5t8 12.5q20 24 48 25t36.5 -19.5t-13.5 -61.5q-8 -166 21 -167q4 0 8 3zM178 502q-24 0 -32 29.5
t2 61.5t31 39q2 2 7 1.5t7 -4.5q0 -1 -3 -3l-3 -1q18 -8 23.5 -38.5t-4.5 -57.5t-28 -27zM179 509q11 -1 17.5 23t3 52.5t-16.5 37.5q-13 -7 -17.5 -58.5t13.5 -54.5z" />
    <glyph glyph-name="ccedilla" unicode="&#xe7;" horiz-adv-x="247" 
d="M101 -35q-9 -4 -2 -10q10 -8 20 9q6 11 9 31q6 41 -23 58q-1 0 -9 4t-10.5 6t-8 9t-6.5 15t0 22.5t6 33.5q-64 22 -77 102q-13 76 26 137q45 70 121 49l8 -2q40 -13 34 -51q-5 -31 -31 -42q-17 -7 -35 2q-7 4 -8.5 12t2.5 15q9 14 25 7q13 6 5 15q-11 11 -26 -4
q-16 -17 -22 -59q-15 -103 34 -131q24 -14 58 9t59 91q4 12 20 6q19 -6 12 -26q-28 -76 -67.5 -107.5t-93.5 -29.5q-32 -48 0 -48q53 -1 67 -52q12 -46 -16 -84q-29 -40 -79 -23q-28 10 -20 37q7 22 26 23q7 1 14 -3q11 -6 4 -17q-6 -9 -16 -4z" />
    <glyph glyph-name="egrave" unicode="&#xe8;" 
d="M135 193q24 -14 58 9t59 91q4 12 20 6q19 -6 12 -26q-29 -81 -72.5 -111.5t-102.5 -24.5q-75 7 -99 86q-22 72 8 144q30 70 88 73q24 2 51 -11q21 -10 25.5 -34t-4 -48.5t-30 -47t-49.5 -29.5q4 -58 36 -77zM101 324q-1 -6 -1 -15q37 21 39 49q1 19 -11 22q-13 3 -21 -21
q-5 -14 -6 -35zM141 632q19 -20 67 -111q2 -4 -6 -6q-11 -3 -15 0q-14 8 -29.5 20t-25 20t-18.5 14.5t-15 6t-10 -8.5q-31 25 -18 58q10 27 36 25q18 -1 34 -18z" />
    <glyph glyph-name="eacute" unicode="&#xe9;" 
d="M135 193q24 -14 58 9t59 91q4 12 20 6q19 -6 12 -26q-29 -81 -72.5 -111.5t-102.5 -24.5q-75 7 -99 86q-22 72 8 144q30 70 88 73q24 2 51 -11q21 -10 25.5 -34t-4 -48.5t-30 -47t-49.5 -29.5q4 -58 36 -77zM101 324q-1 -6 -1 -15q37 21 39 49q1 19 -11 22q-13 3 -21 -21
q-5 -14 -6 -35zM109 632q31 32 57 11q24 -18 15 -48q-5 -16 -20 -28q-4 8 -10 8.5t-15 -6t-18.5 -14.5t-25 -20t-29.5 -20q-6 -4 -18 1q-5 2 -3 5q48 91 67 111z" />
    <glyph glyph-name="ecircumflex" unicode="&#xea;" 
d="M135 193q24 -14 58 9t59 91q4 12 20 6q19 -6 12 -26q-29 -81 -72.5 -111.5t-102.5 -24.5q-75 7 -99 86q-22 72 8 144q30 70 88 73q24 2 51 -11q21 -10 25.5 -34t-4 -48.5t-30 -47t-49.5 -29.5q4 -58 36 -77zM101 324q-1 -6 -1 -15q37 21 39 49q1 19 -11 22q-13 3 -21 -21
q-5 -14 -6 -35zM196 519q-19 20 -67 111q-2 4 6 6q11 3 15 0q14 -8 29.5 -20t25 -20t18.5 -14.5t15 -6t10 8.5q31 -25 18 -58q-10 -27 -36 -25q-18 1 -34 18zM55 519q-31 -32 -57 -11q-24 18 -15 48q5 16 20 28q4 -8 10 -8.5t15 6t18.5 14.5t25 20t29.5 20q6 4 18 -1
q5 -2 3 -5q-48 -91 -67 -111z" />
    <glyph glyph-name="edieresis" unicode="&#xeb;" 
d="M135 193q24 -14 58 9t59 91q4 12 20 6q19 -6 12 -26q-29 -81 -72.5 -111.5t-102.5 -24.5q-75 7 -99 86q-22 72 8 144q30 70 88 73q24 2 51 -11q21 -10 25.5 -34t-4 -48.5t-30 -47t-49.5 -29.5q4 -58 36 -77zM101 324q-1 -6 -1 -15q37 21 39 49q1 19 -11 22q-13 3 -21 -21
q-5 -14 -6 -35zM105 555q-2 -26 -24 -39.5t-42.5 0t-19.5 51.5q4 31 27 42.5t42.5 -4t16.5 -50.5zM226 555q-2 -26 -24 -39.5t-42.5 0t-19.5 51.5q4 31 27 42.5t42.5 -4t16.5 -50.5z" />
    <glyph glyph-name="igrave" unicode="&#xec;" horiz-adv-x="207" 
d="M103 408q-5 -47 -12.5 -158t-2.5 -141q-1 -16 9 -15q26 4 72 102q20 41 40 95q6 17 21 5q17 -14 10 -32q-62 -160 -101 -214q-45 -60 -87 -47q-33 10 -46.5 86.5t-12 148t8.5 135.5q-15 -15 -34 -17t-33.5 15t-14.5 51q5 22 19.5 29.5t35.5 2t42.5 -14.5l46 -19t39.5 -12
zM120 632q19 -20 67 -111q2 -4 -6 -6q-11 -3 -15 0q-14 8 -29.5 20t-25 20t-18.5 14.5t-15 6t-10 -8.5q-31 25 -18 58q10 27 36 25q18 -1 34 -18z" />
    <glyph glyph-name="iacute" unicode="&#xed;" horiz-adv-x="207" 
d="M103 408q-5 -47 -12.5 -158t-2.5 -141q-1 -16 9 -15q26 4 72 102q20 41 40 95q6 17 21 5q17 -14 10 -32q-62 -160 -101 -214q-45 -60 -87 -47q-33 10 -46.5 86.5t-12 148t8.5 135.5q-15 -15 -34 -17t-33.5 15t-14.5 51q5 22 19.5 29.5t35.5 2t42.5 -14.5l46 -19t39.5 -12
zM87 632q31 32 57 11q24 -18 15 -48q-5 -16 -20 -28q-4 8 -10 8.5t-15 -6t-18.5 -14.5t-25 -20t-29.5 -20q-6 -4 -18 1q-5 2 -3 5q48 91 67 111z" />
    <glyph glyph-name="icircumflex" unicode="&#xee;" horiz-adv-x="207" 
d="M103 408q-5 -47 -12.5 -158t-2.5 -141q-1 -16 9 -15q26 4 72 102q20 41 40 95q6 17 21 5q17 -14 10 -32q-62 -160 -101 -214q-45 -60 -87 -47q-33 10 -46.5 86.5t-12 148t8.5 135.5q-15 -15 -34 -17t-33.5 15t-14.5 51q5 22 19.5 29.5t35.5 2t42.5 -14.5l46 -19t39.5 -12
zM114 519q-19 20 -67 111q-2 4 6 6q11 3 15 0q14 -8 29.5 -20t25 -20t18.5 -14.5t15 -6t10 8.5q31 -25 18 -58q-10 -27 -36 -25q-18 1 -34 18zM-27 519q-31 -32 -57 -11q-24 18 -15 48q5 16 20 28q4 -8 10 -8.5t15 6t18.5 14.5t25 20t29.5 20q6 4 18 -1q5 -2 3 -5
q-48 -91 -67 -111z" />
    <glyph glyph-name="idieresis" unicode="&#xef;" horiz-adv-x="207" 
d="M103 408q-5 -47 -12.5 -158t-2.5 -141q-1 -16 9 -15q26 4 72 102q20 41 40 95q6 17 21 5q17 -14 10 -32q-62 -160 -101 -214q-45 -60 -87 -47q-33 10 -46.5 86.5t-12 148t8.5 135.5q-15 -15 -34 -17t-33.5 15t-14.5 51q5 22 19.5 29.5t35.5 2t42.5 -14.5l46 -19t39.5 -12
zM31 555q-2 -26 -24 -39.5t-42.5 0t-19.5 51.5q4 31 27 42.5t42.5 -4t16.5 -50.5zM152 555q-2 -26 -24 -39.5t-42.5 0t-19.5 51.5q4 31 27 42.5t42.5 -4t16.5 -50.5z" />
    <glyph glyph-name="ntilde" unicode="&#xf1;" horiz-adv-x="443" 
d="M94 395q-10 -80 5 -119q7 -17 13 -3q22 48 58 139l40 101q44 99 98 70q18 -10 25 -47t3.5 -89.5t-10 -101t-14.5 -99.5t-9 -67q0 -3 -1 -15q-13 -127 12 -129q9 0 24 17q9 11 19.5 29t22.5 47l20 48.5t23 59.5t21 54q5 15 19 2q16 -16 10 -34q-2 -4 -10 -27t-13.5 -36
l-15.5 -38.5t-17.5 -42.5l-18 -40t-19.5 -38.5t-19.5 -30.5t-20 -24t-18.5 -11q-98 -26 -109 144q-5 81 18 279q7 63 2 63q-6 0 -32 -67q-58 -150 -93 -221q-1 -2 -3 -5.5t-2.5 -5t-2 -4t-2.5 -4t-2.5 -3l-2.5 -2.5t-2.5 -2t-3 -1.5t-3.5 -0.5q-20 -1 -36 10t-25 32t-15 44
t-8 51.5t-3 48t-1 40v21.5q0 15 24 22.5t48.5 3t26.5 -17.5zM41 633q5 35 29 51t56.5 13.5t71 -9.5t71.5 -15t57 -5.5t29 20.5q2 11 13 9q9 -1 9 -13q-11 -43 -37.5 -59t-57.5 -9t-66.5 19.5t-65 25.5t-53 10t-30.5 -29q-7 -28 -17 -27q-10 3 -9 18z" />
    <glyph glyph-name="ograve" unicode="&#xf2;" horiz-adv-x="289" 
d="M209 252q45 12 83 46q6 5 14 4t13 -8q9 -11 -4 -28q-35 -40 -114 -59q-31 -135 -98 -167q-48 -23 -79.5 2t-36.5 79q-7 70 18 135q-33 44 -34 107t30 112.5t81 57.5q53 9 87 -32.5t40.5 -107.5t-0.5 -141zM119 329q-1 -2 -7.5 -22t-11 -36.5t-4.5 -29.5q30 -8 70 -2
q11 67 7 127q-2 22 -7 43.5t-14.5 45.5t-28.5 34.5t-44 2.5q-44 -15 -62 -79t9 -116q28 51 41 65q11 10 23.5 4t22.5 -19t6 -18zM130 122q15 24 28 77q-39 -4 -73 4q-26 -104 -1 -118q18 -11 46 37zM161 632q19 -20 67 -111q2 -4 -6 -6q-11 -3 -15 0q-14 8 -29.5 20t-25 20
t-18.5 14.5t-15 6t-10 -8.5q-31 25 -18 58q10 27 36 25q18 -1 34 -18z" />
    <glyph glyph-name="oacute" unicode="&#xf3;" horiz-adv-x="289" 
d="M209 252q45 12 83 46q6 5 14 4t13 -8q9 -11 -4 -28q-35 -40 -114 -59q-31 -135 -98 -167q-48 -23 -79.5 2t-36.5 79q-7 70 18 135q-33 44 -34 107t30 112.5t81 57.5q53 9 87 -32.5t40.5 -107.5t-0.5 -141zM119 329q-1 -2 -7.5 -22t-11 -36.5t-4.5 -29.5q30 -8 70 -2
q11 67 7 127q-2 22 -7 43.5t-14.5 45.5t-28.5 34.5t-44 2.5q-44 -15 -62 -79t9 -116q28 51 41 65q11 10 23.5 4t22.5 -19t6 -18zM130 122q15 24 28 77q-39 -4 -73 4q-26 -104 -1 -118q18 -11 46 37zM62 632q31 32 57 11q24 -18 15 -48q-5 -16 -20 -28q-4 8 -10 8.5t-15 -6
t-18.5 -14.5t-25 -20t-29.5 -20q-6 -4 -18 1q-5 2 -3 5q48 91 67 111z" />
    <glyph glyph-name="ocircumflex" unicode="&#xf4;" horiz-adv-x="289" 
d="M209 252q45 12 83 46q6 5 14 4t13 -8q9 -11 -4 -28q-35 -40 -114 -59q-31 -135 -98 -167q-48 -23 -79.5 2t-36.5 79q-7 70 18 135q-33 44 -34 107t30 112.5t81 57.5q53 9 87 -32.5t40.5 -107.5t-0.5 -141zM119 329q-1 -2 -7.5 -22t-11 -36.5t-4.5 -29.5q30 -8 70 -2
q11 67 7 127q-2 22 -7 43.5t-14.5 45.5t-28.5 34.5t-44 2.5q-44 -15 -62 -79t9 -116q28 51 41 65q11 10 23.5 4t22.5 -19t6 -18zM130 122q15 24 28 77q-39 -4 -73 4q-26 -104 -1 -118q18 -11 46 37zM167 536q-19 20 -67 111q-2 4 6 6q11 3 15 0q14 -8 29.5 -20t25 -20
t18.5 -14.5t15 -6t10 8.5q31 -25 18 -58q-10 -27 -36 -25q-18 1 -34 18zM26 536q-31 -32 -57 -11q-24 18 -15 48q5 16 20 28q4 -8 10 -8.5t15 6t18.5 14.5t25 20t29.5 20q6 4 18 -1q5 -2 3 -5q-48 -91 -67 -111z" />
    <glyph glyph-name="otilde" unicode="&#xf5;" horiz-adv-x="289" 
d="M209 252q45 12 83 46q6 5 14 4t13 -8q9 -11 -4 -28q-35 -40 -114 -59q-31 -135 -98 -167q-48 -23 -79.5 2t-36.5 79q-7 70 18 135q-33 44 -34 107t30 112.5t81 57.5q53 9 87 -32.5t40.5 -107.5t-0.5 -141zM119 329q-1 -2 -7.5 -22t-11 -36.5t-4.5 -29.5q30 -8 70 -2
q11 67 7 127q-2 22 -7 43.5t-14.5 45.5t-28.5 34.5t-44 2.5q-44 -15 -62 -79t9 -116q28 51 41 65q11 10 23.5 4t22.5 -19t6 -18zM130 122q15 24 28 77q-39 -4 -73 4q-26 -104 -1 -118q18 -11 46 37zM-22 535q5 35 29 51t56.5 13.5t71 -9.5t71.5 -15t57 -5.5t29 20.5
q2 11 13 9q9 -1 9 -13q-11 -43 -37.5 -59t-57.5 -9t-66.5 19.5t-65 25.5t-53 10t-30.5 -29q-7 -28 -17 -27q-10 3 -9 18z" />
    <glyph glyph-name="odieresis" unicode="&#xf6;" horiz-adv-x="289" 
d="M209 252q45 12 83 46q6 5 14 4t13 -8q9 -11 -4 -28q-35 -40 -114 -59q-31 -135 -98 -167q-48 -23 -79.5 2t-36.5 79q-7 70 18 135q-33 44 -34 107t30 112.5t81 57.5q53 9 87 -32.5t40.5 -107.5t-0.5 -141zM119 329q-1 -2 -7.5 -22t-11 -36.5t-4.5 -29.5q30 -8 70 -2
q11 67 7 127q-2 22 -7 43.5t-14.5 45.5t-28.5 34.5t-44 2.5q-44 -15 -62 -79t9 -116q28 51 41 65q11 10 23.5 4t22.5 -19t6 -18zM130 122q15 24 28 77q-39 -4 -73 4q-26 -104 -1 -118q18 -11 46 37zM83 579q-2 -26 -24 -39.5t-42.5 0t-19.5 51.5q4 31 27 42.5t42.5 -4
t16.5 -50.5zM204 579q-2 -26 -24 -39.5t-42.5 0t-19.5 51.5q4 31 27 42.5t42.5 -4t16.5 -50.5z" />
    <glyph glyph-name="divide" unicode="&#xf7;" horiz-adv-x="365" 
d="M295 248q12 0 17 -13t0 -25t-16 -12q-97 1 -113 -0.5t-114 0.5q-12 -1 -16.5 12t1 26t19.5 13q86 -2 100.5 0t121.5 -1zM224 318q-2 -26 -24 -39.5t-42.5 0t-19.5 51.5q4 31 27 42.5t42.5 -4t16.5 -50.5zM224 117q-2 -26 -24 -39.5t-42.5 0t-19.5 51.5q4 31 27 42.5
t42.5 -4t16.5 -50.5z" />
    <glyph glyph-name="oslash" unicode="&#xf8;" horiz-adv-x="316" 
d="M321 665q7 10 19 9.5t20.5 -10t3.5 -19.5l-127 -262q8 -65 -1 -131q45 12 83 46q6 5 14 4t13 -8q9 -11 -4 -28q-35 -40 -114 -59q-31 -135 -98 -167q-31 -14 -62 -9q-51 -103 -93 -179q-6 -10 -19 -9t-23 12.5t-2 22.5q23 43 90 178q-24 24 -29 65q-7 70 18 135
q-25 33 -28 79t12 87.5t46 73t69 37.5q74 13 110 -72zM146 329q-2 -6 -33 -38.5t-32 -49.5q6 -2 29 -4l83 172q-22 105 -87 83q-46 -16 -73.5 -80.5t-1.5 -114.5q5 10 16.5 21.5t26 24.5t20.5 19q11 10 23.5 4t22.5 -19t6 -18zM157 122q15 24 28 77q-18 -2 -36 -2l-55 -113
q35 -9 63 38zM193 239q6 44 7 65l-32 -67q11 0 25 2zM92 200l-22 3q-9 -37 -7 -64z" />
    <glyph glyph-name="ugrave" unicode="&#xf9;" horiz-adv-x="338" 
d="M97 470q0 -3 -3 -38.5t-5 -68t-3 -71t2.5 -64.5t11.5 -31q6 -4 12.5 4.5t12.5 30.5t10 40l10.5 49t8.5 42q1 6 25 10.5t48.5 -1t25.5 -24.5q1 -9 -1 -24.5t-2 -19.5q-6 -118 10 -129q19 -14 38.5 19.5t39.5 92.5q6 16 21 7q18 -10 12 -27q-28 -86 -63 -130.5t-72 -35.5
q-52 13 -70 154q-30 -121 -53 -151q-20 -25 -50.5 -22.5t-47.5 23.5q-41 50 -21 380q0 10 26 10.5t51.5 -7.5t25.5 -18zM185 632q19 -20 67 -111q2 -4 -6 -6q-11 -3 -15 0q-14 8 -29.5 20t-25 20t-18.5 14.5t-15 6t-10 -8.5q-31 25 -18 58q10 27 36 25q18 -1 34 -18z" />
    <glyph glyph-name="uacute" unicode="&#xfa;" horiz-adv-x="338" 
d="M97 470q0 -3 -3 -38.5t-5 -68t-3 -71t2.5 -64.5t11.5 -31q6 -4 12.5 4.5t12.5 30.5t10 40l10.5 49t8.5 42q1 6 25 10.5t48.5 -1t25.5 -24.5q1 -9 -1 -24.5t-2 -19.5q-6 -118 10 -129q19 -14 38.5 19.5t39.5 92.5q6 16 21 7q18 -10 12 -27q-28 -86 -63 -130.5t-72 -35.5
q-52 13 -70 154q-30 -121 -53 -151q-20 -25 -50.5 -22.5t-47.5 23.5q-41 50 -21 380q0 10 26 10.5t51.5 -7.5t25.5 -18zM152 632q31 32 57 11q24 -18 15 -48q-5 -16 -20 -28q-4 8 -10 8.5t-15 -6t-18.5 -14.5t-25 -20t-29.5 -20q-6 -4 -18 1q-5 2 -3 5q48 91 67 111z" />
    <glyph glyph-name="ucircumflex" unicode="&#xfb;" horiz-adv-x="338" 
d="M97 470q0 -3 -3 -38.5t-5 -68t-3 -71t2.5 -64.5t11.5 -31q6 -4 12.5 4.5t12.5 30.5t10 40l10.5 49t8.5 42q1 6 25 10.5t48.5 -1t25.5 -24.5q1 -9 -1 -24.5t-2 -19.5q-6 -118 10 -129q19 -14 38.5 19.5t39.5 92.5q6 16 21 7q18 -10 12 -27q-28 -86 -63 -130.5t-72 -35.5
q-52 13 -70 154q-30 -121 -53 -151q-20 -25 -50.5 -22.5t-47.5 23.5q-41 50 -21 380q0 10 26 10.5t51.5 -7.5t25.5 -18zM240 519q-19 20 -67 111q-2 4 6 6q11 3 15 0q14 -8 29.5 -20t25 -20t18.5 -14.5t15 -6t10 8.5q31 -25 18 -58q-10 -27 -36 -25q-18 1 -34 18zM99 519
q-31 -32 -57 -11q-24 18 -15 48q5 16 20 28q4 -8 10 -8.5t15 6t18.5 14.5t25 20t29.5 20q6 4 18 -1q5 -2 3 -5q-48 -91 -67 -111z" />
    <glyph glyph-name="udieresis" unicode="&#xfc;" horiz-adv-x="338" 
d="M97 470q0 -3 -3 -38.5t-5 -68t-3 -71t2.5 -64.5t11.5 -31q6 -4 12.5 4.5t12.5 30.5t10 40l10.5 49t8.5 42q1 6 25 10.5t48.5 -1t25.5 -24.5q1 -9 -1 -24.5t-2 -19.5q-6 -118 10 -129q19 -14 38.5 19.5t39.5 92.5q6 16 21 7q18 -10 12 -27q-28 -86 -63 -130.5t-72 -35.5
q-52 13 -70 154q-30 -121 -53 -151q-20 -25 -50.5 -22.5t-47.5 23.5q-41 50 -21 380q0 10 26 10.5t51.5 -7.5t25.5 -18zM149 555q-2 -26 -24 -39.5t-42.5 0t-19.5 51.5q4 31 27 42.5t42.5 -4t16.5 -50.5zM270 555q-2 -26 -24 -39.5t-42.5 0t-19.5 51.5q4 31 27 42.5t42.5 -4
t16.5 -50.5z" />
    <glyph glyph-name="yacute" unicode="&#xfd;" horiz-adv-x="364" 
d="M108 442q-20 -144 -8 -222q12 -82 65 -9q-5 85 25.5 146t93.5 42q24 -8 25 -36t-14 -61.5t-40 -67.5q1 -10 4 -49q83 44 105 102q7 20 22 9t10 -29q-18 -63 -132 -135l7 -75q12 -155 -11 -224q-28 -82 -102 -81q-25 0 -49 14.5t-41 39t-28 55t-9 66.5t15 71t45.5 69.5
t81.5 61.5l-3 30q-45 -50 -67 -60q-84 -38 -101 100q-12 105 11 238q2 10 3 16q0 8 23 11.5t46 -2t23 -20.5zM181 78q-40 -22 -64 -57.5t-28.5 -71.5t2 -69t25 -55t41.5 -25q14 -2 22.5 12.5t11.5 39t3.5 53.5t-2 60t-5 55t-4.5 41zM247 304q27 44 20 60q-14 8 -18 -34
q-2 -11 -2 -26zM165 632q31 32 57 11q24 -18 15 -48q-5 -16 -20 -28q-4 8 -10 8.5t-15 -6t-18.5 -14.5t-25 -20t-29.5 -20q-6 -4 -18 1q-5 2 -3 5q48 91 67 111z" />
    <glyph glyph-name="thorn" unicode="&#xfe;" horiz-adv-x="166" 
d="M-69 221q22 38 54 67t68 41t69.5 5.5t59.5 -43.5t36 -101q71 38 94 99q6 17 21 8t10 -29q-11 -39 -44.5 -73t-71.5 -53q3 -80 -14 -142.5t-46.5 -96.5t-64.5 -48t-69 -6q-52 13 -69 59.5t0 90.5q21 69 157 143q3 43 -22 88.5t-60 39.5q-40 -7 -74 -83t-41 -131
q0 -3 -2 -97.5t-3.5 -187.5t-2.5 -94q-9 -9 -43.5 14t-36.5 42q-7 47 -9.5 328t-2.5 284q-3 45 3 105.5t22 126.5t50 114t81 54q48 6 70.5 -27.5t23.5 -84.5q1 -82 -41 -178.5t-106 -156.5q1 -7 1.5 -34.5t2.5 -42.5zM-80 352q55 67 89 156t23 152q-4 23 -13.5 35t-22.5 11
q-24 -1 -40 -28t-22.5 -75.5t-9 -88.5t-3 -95.5t-1.5 -66.5zM122 87q-7 -5 -30.5 -19t-33.5 -21.5t-24.5 -24.5t-22.5 -38q-12 -24 -5 -55t36 -34q25 -3 43.5 19.5t26 55t11.5 65.5t-1 52z" />
    <glyph glyph-name="ydieresis" unicode="&#xff;" horiz-adv-x="364" 
d="M108 442q-20 -144 -8 -222q12 -82 65 -9q-5 85 25.5 146t93.5 42q24 -8 25 -36t-14 -61.5t-40 -67.5q1 -10 4 -49q83 44 105 102q7 20 22 9t10 -29q-18 -63 -132 -135l7 -75q12 -155 -11 -224q-28 -82 -102 -81q-25 0 -49 14.5t-41 39t-28 55t-9 66.5t15 71t45.5 69.5
t81.5 61.5l-3 30q-45 -50 -67 -60q-84 -38 -101 100q-12 105 11 238q2 10 3 16q0 8 23 11.5t46 -2t23 -20.5zM181 78q-40 -22 -64 -57.5t-28.5 -71.5t2 -69t25 -55t41.5 -25q14 -2 22.5 12.5t11.5 39t3.5 53.5t-2 60t-5 55t-4.5 41zM247 304q27 44 20 60q-14 8 -18 -34
q-2 -11 -2 -26zM162 555q-2 -26 -24 -39.5t-42.5 0t-19.5 51.5q4 31 27 42.5t42.5 -4t16.5 -50.5zM283 555q-2 -26 -24 -39.5t-42.5 0t-19.5 51.5q4 31 27 42.5t42.5 -4t16.5 -50.5z" />
    <glyph glyph-name="dotlessi" unicode="&#x131;" horiz-adv-x="207" 
d="M103 408q-5 -47 -12.5 -158t-2.5 -141q-1 -16 9 -15q26 4 72 102q20 41 40 95q6 17 21 5q17 -14 10 -32q-62 -160 -101 -214q-45 -60 -87 -47q-33 10 -46.5 86.5t-12 148t8.5 135.5q-15 -15 -34 -17t-33.5 15t-14.5 51q5 22 19.5 29.5t35.5 2t42.5 -14.5l46 -19t39.5 -12
z" />
    <glyph glyph-name="Scaron" unicode="&#x160;" horiz-adv-x="444" 
d="M298 468q50 -4 72 49q25 56 -3 114q-33 70 -121 77q-91 8 -136 -74q-41 -75 -18 -170q25 -104 113 -149q15 -8 31 -13q25 -7 53 -25q48 -29 72 -80t19.5 -104t-26.5 -100t-67.5 -74.5t-102.5 -21.5q-63 7 -105.5 51.5t-47.5 102t27 118.5l19 27q5 7 13 8t14 -4
q15 -12 4 -27l-16 -23q-41 -68 -8.5 -137.5t106.5 -64.5q31 3 58.5 47.5t34.5 102.5q10 64 -28.5 125t-114.5 81q-66 17 -107.5 56.5t-54 87.5t-4 101t36.5 96.5t75 73.5t104 34q50 2 103 -15q88 -28 117 -111q25 -74 -9 -138q-36 -67 -109 -61q-17 2 -17 23q4 19 23 17z
M279 885q31 32 57 11q24 -18 15 -48q-5 -16 -20 -28q-4 8 -10 8.5t-15 -6t-18.5 -14.5t-25 -20t-29.5 -20q-6 -4 -18 1q-5 2 -3 5q48 91 67 111zM138 885q19 -20 67 -111q2 -4 -6 -6q-11 -3 -15 0q-14 8 -29.5 20t-25 20t-18.5 14.5t-15 6t-10 -8.5q-31 25 -18 58
q10 27 36 25q18 -1 34 -18z" />
    <glyph glyph-name="scaron" unicode="&#x161;" horiz-adv-x="304" 
d="M4 300q-43 26 -57 96t14 129t91 53q29 -3 42 -23.5t9 -57.5t-14 -74t-28 -88q14 -16 89 -64q93 30 165 28q20 -1 25 -18q2 -16 -14 -18q-67 -3 -139 -25q53 -60 64.5 -139t-24 -149t-110.5 -101q-68 -28 -113 35q-43 63 -32 160q14 120 105 186q6 5 13 9q-8 11 -17 19
t-19.5 14.5t-12.5 8.5q-2 -4 -11 -28.5t-17 -40.5t-13 -17q-7 -1 -9.5 3t-4.5 14q-3 16 18 88zM107 200q-89 -59 -96 -167q-5 -76 31 -120q31 -38 67 -13q23 16 37 55t7 106t-46 139zM20 359q3 12 10 35t10.5 36l8.5 31.5t6 29t1 22t-4 17t-11 6.5q-16 2 -25.5 -13.5
t-12.5 -39.5t-2 -50t6.5 -47t12.5 -27zM117 737q31 32 57 11q24 -18 15 -48q-5 -16 -20 -28q-4 8 -10 8.5t-15 -6t-18.5 -14.5t-25 -20t-29.5 -20q-6 -4 -18 1q-5 2 -3 5q48 91 67 111zM-24 737q19 -20 67 -111q2 -4 -6 -6q-11 -3 -15 0q-14 8 -29.5 20t-25 20t-18.5 14.5
t-15 6t-10 -8.5q-31 25 -18 58q10 27 36 25q18 -1 34 -18z" />
    <glyph glyph-name="Ydieresis" unicode="&#x178;" horiz-adv-x="603" 
d="M35 550q-101 97 -63 188q16 38 48 59t67.5 19t68 -18.5t52.5 -56t17 -91.5q-28 -581 59 -591q17 -2 35.5 20t34 61t24 64.5t17.5 55.5q-2 214 47 340.5t115 117.5q45 -6 25 -101q-39 -175 -78 -297v-3q0 -16 1 -53.5t2 -66t0.5 -72.5t-2.5 -77.5t-7.5 -74.5t-14 -71.5
t-22 -61t-31.5 -49.5t-43 -30.5t-56 -10.5q-67 2 -103 47t-20 110q10 46 40.5 68t74.5 10q18 -9 12 -28q-8 -19 -27 -12q-36 12 -55 -29q-19 -43 1 -83q17 -33 54 -39q34 -5 56 41t27 108t8.5 120t-0.5 78q-29 -64 -51.5 -90.5t-58.5 -32.5q-31 -5 -56.5 4.5t-42 30t-30 49
t-20 61.5t-12 68t-6 68.5t-1.5 62.5t0 50v18q-1 42 6 117.5t7 109.5q1 33 -6 59t-19 39.5t-26.5 18.5t-30.5 -3t-30 -28q-53 -73 40 -162q16 -12 2 -29q-15 -16 -29 -2zM510 491q37 142 37 177q-28 -40 -37 -177zM338 753q-2 -26 -24 -39.5t-42.5 0t-19.5 51.5q4 31 27 42.5
t42.5 -4t16.5 -50.5zM459 753q-2 -26 -24 -39.5t-42.5 0t-19.5 51.5q4 31 27 42.5t42.5 -4t16.5 -50.5z" />
    <glyph glyph-name="Zcaron" unicode="&#x17d;" horiz-adv-x="555" 
d="M180 557q10 2 18 -3t9 -13q2 -19 -20 -21q-63 -5 -101.5 21t-42.5 78q-3 55 38.5 94t106.5 32q42 -4 110.5 -34t83.5 -34q26 38 69 55.5t78.5 8t41.5 -42.5q7 -30 -8.5 -47t-39.5 -21t-60 -2q-37 -44 -110.5 -146l-90.5 -125q103 1 161 -56.5t72 -159.5q5 -47 5.5 -95.5
t-13.5 -96.5t-36.5 -87.5t-64.5 -67.5t-97 -36q-103 -15 -153 54q-39 54 -20 120q19 67 87 87l14 4l34 4q23 0 23 -20q0 -8 -6.5 -13.5t-16.5 -5.5l-23 -2q-39 -8 -57.5 -39.5t-13.5 -66t34 -61t73 -25.5q57 0 89 99q36 109 18 238q-18 138 -87 174q-26 13 -56 9
q-41 -50 -57 -58q-29 -12 -62 10q-30 21 -15 42q9 14 37 22l12 14l93 137t120 167q-18 5 -62 24.5t-84 29.5q-49 11 -81 -5.5t-38 -57.5q-6 -40 17.5 -62.5t71.5 -19.5zM492 664q14 1 24.5 6t9.5 13q0 5 -1 7q-3 10 -22 -11q-7 -7 -11 -15zM379 861q31 32 57 11
q24 -18 15 -48q-5 -16 -20 -28q-4 8 -10 8.5t-15 -6t-18.5 -14.5t-25 -20t-29.5 -20q-6 -4 -18 1q-5 2 -3 5q48 91 67 111zM238 861q19 -20 67 -111q2 -4 -6 -6q-11 -3 -15 0q-14 8 -29.5 20t-25 20t-18.5 14.5t-15 6t-10 -8.5q-31 25 -18 58q10 27 36 25q18 -1 34 -18z" />
    <glyph glyph-name="zcaron" unicode="&#x17e;" horiz-adv-x="455" 
d="M19 304l82 22q14 34 31 67t45.5 75.5t62.5 60t67 -0.5q23 -12 26 -36.5t-6.5 -47t-25.5 -41.5q-45 -57 -117 -90q-12 -23 -14 -38q54 20 104 -14.5t69 -92.5q42 16 65.5 41.5t47.5 80.5q10 14 23 5.5t8 -26.5q-14 -48 -49.5 -86t-78.5 -59q13 -97 -25.5 -190.5t-115 -145
t-162.5 -31.5q-51 12 -68.5 57t-2.5 96q25 88 94.5 142.5t175.5 86.5q-1 39 -14 66t-33.5 36t-50 -11.5t-59.5 -70.5q-8 -12 -20 -11t-16 12q-4 12 1 47t20 74q-21 -8 -60 -17q-8 0 -14.5 5.5t-6.5 12.5q-1 16 17 22zM260 97q-39 -13 -68 -26t-64 -34.5t-60.5 -52
t-40.5 -69.5q-7 -19 -9 -39t1.5 -39t17.5 -31t38 -11q46 1 91.5 46.5t72.5 116.5t21 139zM203 368q38 23 68 60q34 42 23 57q-5 3 -9 3t-12 -9t-14.5 -18t-15 -23.5l-15 -25.5l-14 -24.5t-11.5 -19.5zM306 673q31 32 57 11q24 -18 15 -48q-5 -16 -20 -28q-4 8 -10 8.5
t-15 -6t-18.5 -14.5t-25 -20t-29.5 -20q-6 -4 -18 1q-5 2 -3 5q48 91 67 111zM165 673q19 -20 67 -111q2 -4 -6 -6q-11 -3 -15 0q-14 8 -29.5 20t-25 20t-18.5 14.5t-15 6t-10 -8.5q-31 25 -18 58q10 27 36 25q18 -1 34 -18z" />
    <glyph glyph-name="circumflex" unicode="&#x2c6;" horiz-adv-x="354" 
d="M240 519q-19 20 -67 111q-2 4 6 6q11 3 15 0q14 -8 29.5 -20t25 -20t18.5 -14.5t15 -6t10 8.5q31 -25 18 -58q-10 -27 -36 -25q-18 1 -34 18zM99 519q-31 -32 -57 -11q-24 18 -15 48q5 16 20 28q4 -8 10 -8.5t15 6t18.5 14.5t25 20t29.5 20q6 4 18 -1q5 -2 3 -5
q-48 -91 -67 -111z" />
    <glyph glyph-name="caron" unicode="&#x2c7;" horiz-adv-x="351" 
d="M240 620q31 32 57 11q24 -18 15 -48q-5 -16 -20 -28q-4 8 -10 8.5t-15 -6t-18.5 -14.5t-25 -20t-29.5 -20q-6 -4 -18 1q-5 2 -3 5q48 91 67 111zM99 620q19 -20 67 -111q2 -4 -6 -6q-11 -3 -15 0q-14 8 -29.5 20t-25 20t-18.5 14.5t-15 6t-10 -8.5q-31 25 -18 58
q10 27 36 25q18 -1 34 -18z" />
    <glyph glyph-name="dotaccent" unicode="&#x2d9;" horiz-adv-x="188" 
d="M137 560q-2 -26 -24 -39.5t-42.5 0t-19.5 51.5q4 31 27 42.5t42.5 -4t16.5 -50.5z" />
    <glyph glyph-name="ring" unicode="&#x2da;" horiz-adv-x="137" 
d="M74 502q-24 0 -32 29.5t2 61.5t31 39q2 2 7 1.5t7 -4.5q0 -1 -3 -3l-3 -1q18 -8 23.5 -38.5t-4.5 -57.5t-28 -27zM75 509q11 -1 17.5 23t3 52.5t-16.5 37.5q-13 -7 -17.5 -58.5t13.5 -54.5z" />
    <glyph glyph-name="tilde" unicode="&#x2dc;" horiz-adv-x="437" 
d="M51 535q5 35 29 51t56.5 13.5t71 -9.5t71.5 -15t57 -5.5t29 20.5q2 11 13 9q9 -1 9 -13q-11 -43 -37.5 -59t-57.5 -9t-66.5 19.5t-65 25.5t-53 10t-30.5 -29q-7 -28 -17 -27q-10 3 -9 18z" />
    <glyph glyph-name="hungarumlaut" unicode="&#x2dd;" horiz-adv-x="356" 
d="M101 632q31 32 57 11q24 -18 15 -48q-5 -16 -20 -28q-4 8 -10 8.5t-15 -6t-18.5 -14.5t-25 -20t-29.5 -20q-6 -4 -18 1q-5 2 -3 5q48 91 67 111zM249 632q31 32 57 11q24 -18 15 -48q-5 -16 -20 -28q-4 8 -10 8.5t-15 -6t-18.5 -14.5t-25 -20t-29.5 -20q-6 -4 -18 1
q-5 2 -3 5q48 91 67 111z" />
    <glyph glyph-name="emdash" unicode="&#x2014;" horiz-adv-x="665" 
d="M595 248q12 0 17 -13t0 -25t-16 -12q-91 1 -263 -0.5t-264 0.5q-12 -1 -16.5 12t1 26t19.5 13q85 -2 250.5 0t271.5 -1z" />
    <glyph glyph-name="quoteleft" unicode="&#x2018;" horiz-adv-x="195" 
d="M51 488q2 25 24.5 64.5t48.5 46.5q13 3 20 -4q1 -1 -8 -7.5t-20 -23t-11 -39.5q32 5 32 -49q-4 -31 -27 -42.5t-42.5 4t-16.5 50.5z" />
    <glyph glyph-name="quoteright" unicode="&#x2019;" horiz-adv-x="195" 
d="M144 546q-2 -25 -24.5 -64.5t-48.5 -46.5q-13 -3 -20 4q-1 1 8 7.5t20 23t11 39.5q-32 -5 -32 49q4 31 27 42.5t42.5 -4t16.5 -50.5z" />
    <glyph glyph-name="quotesinglbase" unicode="&#x201a;" horiz-adv-x="195" 
d="M144 58q-2 -25 -24.5 -64.5t-48.5 -46.5q-13 -3 -20 4q-1 1 8 7.5t20 23t11 39.5q-32 -5 -32 49q4 31 27 42.5t42.5 -4t16.5 -50.5z" />
    <glyph glyph-name="quotedblleft" unicode="&#x201c;" horiz-adv-x="314" 
d="M51 488q2 25 24.5 64.5t48.5 46.5q13 3 20 -4q1 -1 -8 -7.5t-20 -23t-11 -39.5q32 5 32 -49q-4 -31 -27 -42.5t-42.5 4t-16.5 50.5zM170 488q2 25 24.5 64.5t48.5 46.5q13 3 20 -4q1 -1 -8 -7.5t-20 -23t-11 -39.5q32 5 32 -49q-4 -31 -27 -42.5t-42.5 4t-16.5 50.5z" />
    <glyph glyph-name="quotedblright" unicode="&#x201d;" horiz-adv-x="310" 
d="M144 546q-2 -25 -24.5 -64.5t-48.5 -46.5q-13 -3 -20 4q-1 1 8 7.5t20 23t11 39.5q-32 -5 -32 49q4 31 27 42.5t42.5 -4t16.5 -50.5zM259 546q-2 -25 -24.5 -64.5t-48.5 -46.5q-13 -3 -20 4q-1 1 8 7.5t20 23t11 39.5q-32 -5 -32 49q4 31 27 42.5t42.5 -4t16.5 -50.5z
" />
    <glyph glyph-name="quotedblbase" unicode="&#x201e;" horiz-adv-x="308" 
d="M144 58q-2 -25 -24.5 -64.5t-48.5 -46.5q-13 -3 -20 4q-1 1 8 7.5t20 23t11 39.5q-32 -5 -32 49q4 31 27 42.5t42.5 -4t16.5 -50.5zM257 58q-2 -25 -24.5 -64.5t-48.5 -46.5q-13 -3 -20 4q-1 1 8 7.5t20 23t11 39.5q-32 -5 -32 49q4 31 27 42.5t42.5 -4t16.5 -50.5z" />
    <glyph glyph-name="ellipsis" unicode="&#x2026;" horiz-adv-x="455" 
d="M137 58q-2 -26 -24 -39.5t-42.5 0t-19.5 51.5q4 31 27 42.5t42.5 -4t16.5 -50.5zM270 58q-2 -26 -24 -39.5t-42.5 0t-19.5 51.5q4 31 27 42.5t42.5 -4t16.5 -50.5zM404 58q-2 -26 -24 -39.5t-42.5 0t-19.5 51.5q4 31 27 42.5t42.5 -4t16.5 -50.5z" />
    <glyph glyph-name="perthousand" unicode="&#x2030;" horiz-adv-x="788" 
d="M398 -10q33 -1 58.5 32t35 82.5t8.5 101t-20.5 94.5t-52.5 58q1 2 8.5 5.5t7.5 6.5q-6 11 -20 14t-22 -4q-38 -12 -65.5 -56t-36 -99.5t-4 -108.5t32 -89.5t70.5 -36.5zM403 11q-37 3 -43.5 82.5t12 162t43.5 94.5q39 -27 48.5 -112t-9.5 -157.5t-51 -69.5zM155 359
q33 -1 58.5 32t35 82.5t8.5 101t-20.5 94.5t-52.5 58q1 2 8.5 5.5t7.5 6.5q-6 11 -20 14t-22 -4q-38 -12 -65.5 -56t-36 -99.5t-4 -108.5t32 -89.5t70.5 -36.5zM160 380q-37 3 -43.5 82.5t12 162t43.5 94.5q39 -27 48.5 -112t-9.5 -157.5t-51 -69.5zM453 768q7 10 19 9.5
t20.5 -10t3.5 -19.5l-176 -366t-213 -427q-6 -10 -19 -9t-23 12.5t-2 22.5q48 89 197 396t193 391zM635 -10q33 -1 58.5 32t35 82.5t8.5 101t-20.5 94.5t-52.5 58q1 2 8.5 5.5t7.5 6.5q-6 11 -20 14t-22 -4q-38 -12 -65.5 -56t-36 -99.5t-4 -108.5t32 -89.5t70.5 -36.5z
M640 11q-37 3 -43.5 82.5t12 162t43.5 94.5q39 -27 48.5 -112t-9.5 -157.5t-51 -69.5z" />
    <glyph glyph-name="fraction" unicode="&#x2044;" horiz-adv-x="165" 
d="M259 967q7 10 19 9.5t20.5 -10t3.5 -19.5l-176 -366t-213 -427q-6 -10 -19 -9t-23 12.5t-2 22.5q48 89 197 396t193 391z" />
    <glyph glyph-name="Euro" unicode="&#x20ac;" horiz-adv-x="484" 
d="M414 410q12 0 17 -13t0 -25t-16 -12q-71 1 -131 0t-66 -1q-2 -24 -2 -73q103 2 198 0q12 0 17 -13t0 -25t-16 -12q-70 1 -130 0t-65 -1q12 -107 56 -175.5t107 -59.5q18 3 20 -10q1 -12 -16 -16q-3 -1 -6 -1q-101 -8 -168 68t-85 194q-36 0 -59 1q-12 -1 -16.5 12t1 26
t19.5 13q20 -1 50 -1q-1 36 3 73q-35 0 -57 1q-12 -1 -16.5 12t1 26t19.5 13q27 -1 61 -1q24 103 94 170t183 73q17 1 16 -14q-1 -17 -19 -20q-1 -1 -3 -1q-72 -7 -117 -64t-62 -144q78 2 188 0z" />
    <glyph glyph-name="trademark" unicode="&#x2122;" horiz-adv-x="649" 
d="M206 714q-2 -193 -5 -311q-1 -41 -24 -75.5t-63 -26.5q-35 8 -50.5 40.5t-8.5 68.5q3 22 14.5 43.5t29.5 28.5l8 2q11 1 14 -9q0 -13 -11 -13q-16 -4 -25 -34t-2.5 -62t29.5 -40q9 -3 17 11t12 32.5t5 35.5q1 37 2.5 100.5t2.5 116t1 100.5q0 8 13.5 9t27 -4t13.5 -13z
M52 659q-43 26 -32 73q8 36 30.5 51.5t54.5 13.5t64 -9l66.5 -14.5t53.5 -4.5q21 4 25 11q2 3 3 8t5 7.5t8 1.5q11 -2 9 -13q-4 -17 -19 -39.5t-28 -28.5q-23 -10 -49.5 -2.5t-57.5 19.5t-57 23.5t-48.5 9t-32.5 -24.5q-20 -40 15 -62q10 -5 6 -16q-6 -9 -16 -4zM285 446
q-20 1 -31.5 -22.5t-8.5 -51t20 -38.5q19 -10 34 -11.5t27.5 9.5t22 25.5t16.5 36t12 41t8.5 41t5 36t2.5 26.5q-31 65 -44 124t-8 94t22 43q28 13 47 -38q16 -50 11 -144l25 -56t30 -73l43 89l18 46v14q0 172 38 168q2 0 4 -1q14 -4 17.5 -24t-2.5 -49.5t-14.5 -56.5
t-19.5 -55q1 -61 4 -110q14 -163 33 -198q6 -11 -2 -16q-11 -7 -17 3q-35 63 -39 266q-7 -15 -17 -34.5t-17.5 -35.5t-14.5 -35q13 -56 7.5 -95t-24.5 -52q-11 -8 -21 -6.5t-14 13.5q-7 24 -5 40t14 50q-6 18 -36 85q-3 -28 -9.5 -56t-19 -60t-33.5 -53.5t-47 -23.5
q-24 -2 -49 14q-26 16 -31 54t13 69.5t52 30.5q10 0 10 -13q-1 -10 -12 -10zM399 674q-3 84 -23 102q-5 6 -6 -7v-15q2 -12 5.5 -22.5t11.5 -28.5t12 -29zM562 694q17 64 10 84q-8 -25 -10 -84zM464 373q-9 -12 -11.5 -25.5t5.5 -15.5q8 5 6 41z" />
    <glyph glyph-name="minus" unicode="&#x2212;" horiz-adv-x="522" 
d="M453 248q12 0 17 -13t0 -25t-16 -12q-93 1 -190 -0.5t-191 0.5q-12 -1 -16.5 12t1 26t19.5 13q85 -2 177.5 0t198.5 -1z" />
    <glyph glyph-name="t.001" unicode="&#xe000;" horiz-adv-x="222" 
d="M108 699q5 -32 7 -78q60 -2 82 29q10 15 27 6q17 -11 6 -28q-36 -48 -114 -46q0 -248 -8 -344q-19 -235 37 -138q29 50 78 187q9 20 22.5 5.5t7.5 -32.5q-2 -5 -11.5 -32l-14 -39.5l-14.5 -40t-17.5 -43l-18.5 -39t-21 -37.5t-22 -28.5t-24.5 -22t-24.5 -8.5
q-86 -9 -86 202q-51 -96 -127 -161.5t-154 -92.5t-155.5 -32t-137.5 11.5t-94 46.5q-43 39 -24 75q14 26 41 24q24 -2 35 -29q13 -24 44.5 -43t76.5 -26.5t97 -5t108.5 24.5t109 59t101 102t81.5 149q0 287 -2 320q-53 4 -61 -10q-9 -18 -26 -10q-19 8 -10 26q23 41 94 35
q-1 19 -5 45q-1 7 10 14t28 11t34.5 5.5t30.5 -1.5t14 -10z" />
    <glyph glyph-name="g.001" unicode="&#xe001;" horiz-adv-x="348" 
d="M268 495q-59 12 -103.5 -47t-64.5 -143q-24 -101 4 -112q19 -6 59 38q-7 54 3 109t42 90t78 20q19 -6 23 -23.5t-4 -41.5t-21.5 -49t-32.5 -51q1 -12 5.5 -53.5t4.5 -46.5q60 32 87 102q7 20 22 9t10 -29q-9 -31 -35 -63t-45 -47t-34 -25l7 -75q5 -28 1 -77t-12 -96
t-34.5 -85.5t-67.5 -46.5q-52 -10 -92 47q-46 66 -31 152q19 113 138 178l-6 58q-52 -64 -98 -61.5t-65 60.5q-50 -100 -126.5 -168.5t-155.5 -97t-157.5 -34.5t-140 11t-95.5 47q-43 39 -24 75q14 26 41 24q24 -2 35 -29q13 -24 44 -42.5t75.5 -26.5t96 -5.5t107.5 23.5
t108.5 57t101 99t81.5 145q1 54 20 107t53 95.5t89.5 62t121.5 4.5q17 -7 12 -25q-7 -18 -25 -13zM183 78q-40 -22 -65.5 -58t-32 -73t-2.5 -70.5t21 -56t40 -25.5q59 -7 39 283zM249 355q27 44 20 60q-14 8 -18 -34q-2 -11 -2 -26z" />
    <glyph glyph-name="d.001" unicode="&#xe002;" horiz-adv-x="362" 
d="M366 295q4 11 19 1q18 -13 11 -30q-87 -226 -153 -232q-23 -2 -39.5 13t-25.5 46.5t-13 59t-7 69.5q-50 -52 -86 -45q-33 6 -53 37q-48 -108 -124.5 -182.5t-157.5 -106t-162.5 -39t-145 9.5t-98.5 48q-43 39 -24 75q14 26 41 24q24 -2 35 -29q13 -24 44.5 -43
t76.5 -26.5t97 -5t109 25t109.5 59.5t100.5 102t81 150q-3 53 18 105.5t57.5 76.5t84.5 -4q3 55 13 115q5 29 9 48t14 53t22.5 55t33 38t45.5 17q107 2 43 -218q-34 -121 -88 -214q1 -16 -1 -72.5t0 -98.5t13 -47q12 -5 28 13t31 49.5t25 56t17 46.5zM251 424q35 53 65 165
q38 141 -2 150h-3q-18 1 -33 -72.5t-21 -144t-6 -98.5zM138 380q11 50 -1 47q-13 -2 -26 -52q-10 -38 -10 -80q0 -16 0.5 -28t2 -18t3 -11t5.5 -3.5t5.5 1.5t8 7.5t8.5 10t10 13.5l11 15v74h-3q-7 2 -11.5 9t-2.5 15z" />
    <glyph glyph-name="j.001" unicode="&#xe003;" horiz-adv-x="214" 
d="M116 396q-7 -30 -10.5 -111t-1.5 -144q78 58 110 148q6 17 19.5 0.5t8.5 -32.5q-15 -44 -54 -95.5t-81 -77.5q0 -12 3 -44q1 -26 2 -40.5t2 -43t0 -46.5l-2.5 -44t-6.5 -42t-12 -35t-18.5 -29t-26 -17.5t-34.5 -6t-44 9.5q-46 16 -63.5 62.5t7 117.5t95.5 141l-5 114
q-50 -99 -126.5 -166.5t-155.5 -95.5t-157 -33.5t-139 11.5t-95 47q-43 39 -24 75q14 26 41 24q24 -2 35 -29q13 -24 44.5 -43t76.5 -26.5t97 -5t108.5 24.5t109 59t101 102t81.5 149q-2 91 2 133q7 18 63 13q51 -5 51 -21q0 -2 -1 -3zM14 3q-54 -64 -64.5 -124.5
t34.5 -79.5q27 -10 32 25q4 23 -2 175v4zM115 520q-3 -30 -28 -45.5t-48.5 -0.5t-22.5 59q4 27 21 41.5t35.5 13t32 -19.5t10.5 -48z" />
    <glyph glyph-name="x.001" unicode="&#xe004;" horiz-adv-x="328" 
d="M-3 285q1 1 2.5 4t2.5 4q29 88 44 222q1 14 48 10.5t51 -17.5q2 -9 9 -47t13 -63q28 49 58 67q17 7 26 -11q7 -17 -11 -26q-20 -12 -59 -91l15.5 -61t13.5 -46t17.5 -40.5t17.5 -11.5q26 0 43 25.5t41 85.5q7 18 22 6q16 -13 9 -31q-93 -240 -183 -167q-32 27 -61 116
q-7 -16 -17 -36q-21 -42 -39.5 -74t-48.5 -71.5t-66 -63t-74 -25.5l-21 1q-8 1 -13.5 7t-4.5 14t7.5 13.5t14.5 4.5h14q36 2 71 30t66.5 77.5t51 88t42.5 89.5q-12 41 -28 112q-12 -40 -41 -120l-3 -8q-45 -119 -122 -201.5t-160.5 -118t-168 -45t-151 7.5t-102.5 49
q-43 39 -24 75q14 26 41 24q24 -2 35 -29q13 -25 45 -43.5t77.5 -26t98 -4.5t110 25.5t110 61t101 105t80.5 153.5z" />
    <glyph glyph-name="p.001" unicode="&#xe005;" horiz-adv-x="391" 
d="M91 480l-11 -481v3q24 374 120 398q51 13 83.5 -29.5t24.5 -108.5q10 4 93 28q8 1 14 -4.5t7 -13.5q1 -16 -18 -21q-63 -17 -104 -36q-15 -45 -52.5 -79.5t-75.5 -20.5q-23 10 -18 31t22.5 42t33.5 30q8 131 -17 129q-24 -2 -51 -118q-43 -181 -45 -454q0 -22 -31 -29
q-40 -10 -65 17q-15 16 -15 42v343q-52 -89 -127.5 -149.5t-151.5 -85t-151.5 -28t-133.5 13t-91 45.5q-43 39 -24 75q14 26 41 24q24 -2 35 -29q18 -33 68.5 -55t121 -20t144.5 27.5t147.5 95.5t121.5 176q-2 169 -4 241q0 16 27 19t54.5 -4t27.5 -14z" />
    <glyph glyph-name="f.001" unicode="&#xe006;" horiz-adv-x="247" 
d="M104 306l-8 -4l-1 -130q67 14 100.5 43.5t54.5 78.5q4 10 19 0q16 -12 10 -28q-33 -91 -130 -123q12 -6 20 -17t11 -28t4 -32t-1 -37.5t-3.5 -34.5t-5.5 -33t-4 -24q-7 -46 -25 -113t-37 -75q-28 -13 -50 3.5t-33.5 51.5t-19.5 79t-9.5 86.5t-3.5 73t0 39.5l-9 -6
q-184 -120 -374 -161.5t-278 29.5q-43 39 -24 75q14 26 41 24q24 -2 35 -29q29 -45 86.5 -55.5t138 12.5t163.5 60t188 94q10 7 18 10l17 10q1 28 2.5 80l2.5 89t3.5 89.5t7 91t11.5 82.5t18 75.5t25.5 59t35.5 43t46 18.5q43 6 66.5 -14.5t26.5 -62.5q6 -86 -36 -213
t-99 -177zM100 358q46 50 75 157.5t25 178.5q-3 36 -20 41t-30.5 -22.5t-22 -77t-13.5 -92.5t-8.5 -91.5t-3.5 -52.5q-1 -7 -1 -19t-1 -22zM92 120q-10 -241 5 -311q18 60 30.5 121t11.5 123t-27 74q-12 -3 -21 -6h-1z" />
    <glyph glyph-name="y.001" unicode="&#xe007;" horiz-adv-x="364" 
d="M108 442q-20 -144 -8 -222q12 -82 65 -9q-5 85 25.5 146t93.5 42q24 -8 25 -36t-14 -61.5t-40 -67.5q1 -10 4 -49q83 44 105 102q7 20 22 9t10 -29q-18 -63 -132 -135l7 -75q12 -155 -11 -224q-28 -82 -102 -81q-25 0 -49 14.5t-41 39t-28 55t-9 66.5t15 71t45.5 69.5
t81.5 61.5l-3 30q-45 -50 -67 -60q-79 -36 -99 83q-42 -83 -103 -144.5t-125.5 -93.5t-132.5 -48t-128 -12t-108 19.5t-76 40.5q-43 39 -24 75q14 26 41 24q24 -2 35 -29q13 -24 44 -42.5t75.5 -26.5t96.5 -5.5t108.5 24t109 57.5t101 100t81.5 147q0 111 17 185
q0 8 23 11.5t46 -2t23 -20.5zM181 78q-40 -22 -64 -57.5t-28.5 -71.5t2 -69t25 -55t41.5 -25q14 -2 22.5 12.5t11.5 39t3.5 53.5t-2 60t-5 55t-4.5 41zM247 304q27 44 20 60q-14 8 -18 -34q-2 -11 -2 -26z" />
    <glyph glyph-name="l.001" unicode="&#xe008;" 
d="M144 78q15 3 39 53t68 161q3 11 19 1q19 -11 11 -31q-58 -149 -82 -192q-54 -99 -106 -94q-26 2 -48.5 38t-28.5 86l-8 90q-50 -101 -126.5 -170.5t-155.5 -98.5t-158 -35t-141 10.5t-96 47.5q-43 39 -24 75q14 26 41 24q24 -2 35 -29q18 -35 72 -57t128 -18t151 34
t151 110t119 199q-9 341 60 428q27 35 66.5 39.5t70 -20t36.5 -67.5q5 -32 -2.5 -68t-15.5 -60t-35.5 -68.5t-37.5 -58.5l-47 -66q1 -12 0 -41.5t1 -69t5 -75t13.5 -58t25.5 -19.5zM101 421q31 38 57 93t33 103t-20 67q-31 19 -50 -49q-22 -81 -20 -205v-9z" />
    <glyph glyph-name="u.001" unicode="&#xe009;" horiz-adv-x="349" 
d="M108 470q0 -3 -3 -38.5t-5 -68t-3 -71t2.5 -64.5t11.5 -31q6 -4 12.5 4.5t12.5 30.5t10 40l10.5 49t8.5 42q1 6 25 10.5t48.5 -1t25.5 -24.5q1 -9 -1 -24.5t-2 -19.5q-6 -118 10 -129q19 -14 38.5 19.5t39.5 92.5q6 16 21 7q18 -10 12 -27q-28 -86 -63 -130.5t-72 -35.5
q-52 13 -70 154q-30 -121 -53 -151q-20 -25 -50.5 -22.5t-47.5 23.5q-16 18 -22 78q-50 -99 -126 -167t-155 -96t-157.5 -34t-139.5 11t-95 47q-43 39 -24 75q14 26 41 24q24 -2 35 -29q13 -24 44.5 -42.5t76 -26.5t96.5 -5.5t108.5 24.5t109 58.5t101 100.5t81.5 148
q-2 87 5 214q0 10 26 10.5t51.5 -7.5t25.5 -18z" />
    <glyph glyph-name="k.001" unicode="&#xe00a;" horiz-adv-x="357" 
d="M118 204q-8 37 -1 50q13 25 39 5q38 57 56 71q31 23 49 5q20 -20 -8 -61q-10 -16 -27 -32q-32 -30 -55 -31l-10 -14q31 -105 51 -129q9 -11 18 -13q17 -4 57 73t73 165q6 16 21.5 4.5t10.5 -27.5q-38 -109 -82.5 -195.5t-80.5 -91.5q-32 -4 -48.5 27t-41.5 122
q-5 16 -7 25l-9 -12q-49 -58 -62 -70q-39 -34 -45 10q-5 31 -10 101q-50 -100 -126.5 -169t-155.5 -97t-157.5 -34t-140 10.5t-95.5 47.5q-43 39 -24 75q14 26 41 24q24 -2 35 -29q13 -24 45 -43t76.5 -26.5t97 -4.5t109.5 25.5t109.5 59.5t100.5 103t81 151q-6 350 84 439
q43 41 92 30t67 -60q52 -139 -147 -371q-12 -103 1 -126q7 -12 19 13zM98 384q31 29 65.5 92.5t46.5 127.5t-37 90q-19 9 -32.5 -14t-21 -67.5t-11.5 -86.5t-6.5 -87.5t-3.5 -54.5z" />
    <glyph glyph-name="c.001" unicode="&#xe00b;" horiz-adv-x="247" 
d="M142 372q13 6 5 15q-11 11 -26 -4q-16 -17 -22 -59q-15 -103 34 -131q24 -14 58 9t59 91q4 12 20 6q19 -6 12 -26q-29 -81 -72.5 -111.5t-102.5 -24.5q-65 6 -94 64q-49 -104 -125.5 -176t-156.5 -102t-160 -36.5t-142.5 10t-97.5 47.5q-43 39 -24 75q14 26 41 24
q24 -2 35 -29q18 -34 70.5 -56t125.5 -19t149 31.5t150 104.5t120 190q-5 78 39.5 133t117.5 31q40 -13 34 -51q-5 -31 -31 -42q-17 -7 -35 2q-7 4 -8.5 12t2.5 15q9 14 25 7z" />
    <glyph glyph-name="q.001" unicode="&#xe00c;" horiz-adv-x="374" 
d="M282 455q14 27 10 63.5t-38 35.5q-73 -3 -122 -160q-36 -114 -35 -206q0 -37 9 -35q2 1 5 4q11 13 27 61q0 24 5.5 56t17 71t35.5 62t57 17q49 -9 24 -108q-9 -38 -44 -109v-69q46 20 79 52t62 100q7 16 21 2q15 -16 8 -33q-16 -39 -35.5 -68t-47 -51t-42 -31l-45.5 -27
q0 -4 1 -11q99 -1 93 -165q-1 -19 -4 -43t-11 -56t-25 -51.5t-40 -15.5q-45 8 -76 92t-33 197q-11 -4 -14 -5q-20 -8 -32.5 14t8.5 33l37 22v49q-4 -15 -18.5 -36t-27.5 -23q-35 -6 -57.5 20.5t-31.5 75.5q-50 -98 -126.5 -165t-154.5 -94.5t-156.5 -33t-139 11t-94.5 46.5
q-43 39 -24 75q14 26 41 24q24 -2 35 -29q13 -24 44 -42.5t75.5 -26.5t96.5 -5.5t108.5 24t109 57.5t101 100t81.5 147q0 19 3 40q10 82 52 153t103.5 108t122.5 23q23 -5 35.5 -22.5t15 -40t-1.5 -46t-12 -44.5q-3 -7 -11 -10t-15 0q-18 9 -9 26zM234 32q0 -116 5.5 -177.5
t21.5 -58.5q18 3 24.5 72t-2.5 108q-7 31 -18.5 43.5t-30.5 12.5zM240 326q10 34 6 38q-3 1 -4.5 -0.5t-1.5 -6.5v-9v-11.5v-10.5z" />
    <glyph glyph-name="v.001" unicode="&#xe00d;" horiz-adv-x="338" 
d="M101 312v-38q3 -365 24 -363q1 0 3 2q29 55 67 349q-43 55 -22 106q12 31 36 31q14 0 24 -15q15 -21 5 -99q22 -22 41 -31t35 -1t24 35q6 19 22 6t10 -30q-18 -54 -63.5 -61.5t-76.5 28.5q-24 -172 -43 -243q0 -1 -5.5 -25t-10 -40t-12.5 -38.5t-18 -35.5t-21 -15
q-36 -7 -60.5 22t-36 87t-16 112t-5.5 124q-50 -98 -126.5 -165t-154.5 -94.5t-156.5 -33t-139 11t-94.5 46.5q-43 39 -24 75q14 26 41 24q24 -2 35 -29q13 -24 44.5 -43t76.5 -26.5t97.5 -4.5t109 25t109.5 59t101 102.5t81 150.5q0 29 -2 49q0 14 25 15t50.5 -8t25.5 -21z
" />
    <glyph glyph-name="i.001" unicode="&#xe00e;" horiz-adv-x="207" 
d="M103 337q-21 -186 -15 -228q-1 -16 9 -15q26 4 72 102q20 41 40 95q6 17 21 5q17 -14 10 -32q-62 -160 -101 -214q-45 -60 -87 -47q-55 16 -57 161q-43 -79 -104 -137t-124.5 -88t-130.5 -44t-125.5 -10t-105.5 19t-74 40q-43 39 -24 75q14 26 41 24q24 -2 35 -29
q13 -24 44.5 -43t76 -26.5t97 -5t109 24t108.5 58.5t100.5 101t81.5 148q2 24 5.5 53.5t3.5 30.5q2 12 26.5 12.5t47 -9t20.5 -21.5zM115 462q-3 -30 -28 -45.5t-48.5 -0.5t-22.5 59q4 27 21 41.5t35.5 13t32 -19.5t10.5 -48z" />
    <glyph glyph-name="r.001" unicode="&#xe00f;" horiz-adv-x="328" 
d="M-4 285q4 8 7 10q36 108 44 124q-41 29 -53 79.5t4.5 92.5t50.5 52q27 8 52 -4.5t32 -34.5q6 -21 1 -47t-21.5 -69t-20.5 -58q3 -2 27.5 -17t47 -31t34.5 -29q10 -11 13.5 -30.5t0 -52.5t-7 -56.5t-13 -71l-13.5 -67.5q-27 -144 -15 -146q9 -1 43 69q0 1 1 2
q51 106 121 293q6 16 20 2q15 -15 8 -35l-32 -96t-52.5 -141.5t-72 -153.5t-61.5 -60q-38 -2 -57 28.5t-18.5 88.5t8 114.5t22.5 131.5q4 21 11 53.5l9.5 44t5 31.5t0.5 27.5t-7 20t-14.5 21.5t-24.5 20q-3 -8 -13.5 -39l-20 -58.5t-14.5 -36.5l-2 -4q-45 -119 -122 -201.5
t-160.5 -118t-168 -45t-151 7.5t-102.5 49q-43 39 -24 75q14 26 41 24q24 -2 35 -29q13 -25 45 -43.5t77.5 -26t98 -4.5t110 25.5t110 61t101 105t80.5 153.5zM61 474q45 121 24 131q-25 13 -34 -33q-10 -50 3 -87q3 -8 7 -11z" />
    <glyph glyph-name="m.001" unicode="&#xe010;" horiz-adv-x="635" 
d="M102 342q-1 -28 -6 -75q-5 -53 0 -54q3 -1 10 10q8 11 22 40q58 114 86 154q31 43 52 22q31 -32 8 -193q-12 -88 -4 -88q10 0 52 127q32 96 67 176.5t55 97.5q35 36 67.5 14t22.5 -73q-14 -73 -30 -247q-22 -242 14 -219q13 8 32 48q34 71 86 206q3 14 19 8q19 -8 13 -30
q0 -1 -1 -3q-83 -233 -131 -291q-24 -28 -42 -24q-126 28 -79 389q12 93 10 94t-8 -10q-5 -11 -14 -35q-7 -17 -46.5 -135.5t-61.5 -160.5q-19 -33 -36 -33q-87 -1 -72 169q5 62 4 64q-2 2 -9 -9t-21 -40q-1 -1 -5.5 -11t-7.5 -16l-9 -17.5t-11 -19l-11.5 -17.5t-13.5 -16.5
l-14 -12.5t-15 -8.5t-16 -1.5q-35 4 -49 72q-49 -102 -125.5 -172t-156 -99t-159 -35.5t-141.5 10t-96 47.5q-43 39 -24 75q14 26 41 24q24 -2 35 -29q13 -24 44.5 -43t76.5 -26.5t97.5 -4.5t109 25t109.5 59t101 102.5t81 150.5q-1 43 2 92q0 22 36 19q40 -4 57 -29
q5 -8 5 -17z" />
    <glyph glyph-name="o.001" unicode="&#xe011;" horiz-adv-x="289" 
d="M209 252q45 12 83 46q6 5 14 4t13 -8q9 -11 -4 -28q-35 -40 -114 -59q-31 -135 -98 -167q-48 -23 -79 1.5t-37 77.5q-66 -100 -163 -158.5t-188 -70t-168 3t-117 50.5q-43 39 -24 75q14 26 41 24q24 -2 35 -29q17 -32 65.5 -53.5t116.5 -21.5t139.5 22.5t144.5 86
t122 160.5q8 32 14 48q-33 44 -34 107t30 112.5t81 57.5q53 9 87 -32.5t40.5 -107.5t-0.5 -141zM119 329q-1 -2 -7.5 -22t-11 -36.5t-4.5 -29.5q30 -8 70 -2q11 67 7 127q-2 22 -7 43.5t-14.5 45.5t-28.5 34.5t-44 2.5q-44 -15 -62 -79t9 -116q28 51 41 65q11 10 23.5 4
t22.5 -19t6 -18zM130 122q15 24 28 77q-39 -4 -73 4q-26 -104 -1 -118q18 -11 46 37z" />
    <glyph glyph-name="a.001" unicode="&#xe012;" horiz-adv-x="354" 
d="M276 141q15 13 43 68.5t38 85.5q4 11 19 1q18 -13 11 -30q-1 -2 -9.5 -26t-14.5 -38l-17 -40t-21.5 -42l-23 -34t-26.5 -26.5t-28 -8.5q-75 0 -88 171q-50 -52 -86 -45q-61 12 -70 91q-9 75 30 142q40 70 98 58q15 -4 31 -14q27 -23 15 -69q-8 -29 -21 -29h-3
q-7 2 -11.5 9.5t-2.5 14.5q13 40 0 45q-8 4 -18 -18q-17 -36 -20 -108q-1 -26 0.5 -41t5 -20t10 -2t13.5 10t17 18q5 6 8 9q0 2 0.5 12t0.5 13.5t0.5 11.5t2 13t4 12t5.5 13.5t8 12.5q20 24 48 25t36.5 -19.5t-13.5 -61.5q-8 -166 21 -167q4 0 8 3zM5 285q7 19 25 14t13 -25
q-36 -105 -96.5 -184t-128.5 -121t-142.5 -64.5t-141 -20.5t-120 17.5t-83.5 42.5q-43 39 -24 75q14 26 41 24q24 -2 35 -29q13 -25 45 -43.5t77.5 -26t98 -4.5t110 25.5t110 61t101 105t80.5 153.5z" />
    <glyph glyph-name="s.001" unicode="&#xe013;" horiz-adv-x="304" 
d="M-4 285l3 5l3 10q-43 26 -56.5 96t15 129t91.5 53q20 -2 31.5 -11.5t13.5 -29t1 -38.5t-10 -51t-16 -53.5t-21 -59.5q8 -8 21.5 -17t37.5 -23l40 -24q93 30 165 28q20 -1 25 -18q2 -16 -14 -18q-67 -3 -139 -25q53 -60 64.5 -139t-24 -149t-110.5 -101q-68 -28 -113 35
q-43 63 -32 160q14 120 105 186q6 5 13 9q-8 11 -18.5 19t-21 14.5t-13.5 8.5l-3 -8q-36 -105 -96.5 -184t-128.5 -121t-142.5 -64t-141 -20t-120 17.5t-83.5 42.5q-43 39 -24 75q14 26 41 24q24 -2 35 -29q13 -25 45 -43.5t77.5 -26t98 -4.5t110 25.5t110 61t101 105
t80.5 153.5zM107 200q-89 -59 -96 -167q-5 -76 31 -120q31 -38 67 -13q23 16 37 55t7 106t-46 139zM20 359q3 12 10 35t10.5 36l8.5 31.5t6 29t1 22t-4 17t-11 6.5q-16 2 -25.5 -13.5t-12.5 -39.5t-2 -50t6.5 -47t12.5 -27z" />
    <glyph glyph-name="n.001" unicode="&#xe014;" horiz-adv-x="443" 
d="M94 395q-10 -80 5 -119q7 -17 13 -3q22 48 58 139l40 101q44 99 98 70q18 -10 25 -47t3.5 -89.5t-10 -101t-14.5 -99.5t-9 -67q0 -3 -1 -15q-13 -127 12 -129q9 0 24 17q9 11 19.5 29t22.5 47l20 48.5t23 59.5t21 54q5 15 19 2q16 -16 10 -34q-2 -4 -10 -27t-13.5 -36
l-15.5 -38.5t-17.5 -42.5l-18 -40t-19.5 -38.5t-19.5 -30.5t-20 -24t-18.5 -11q-98 -26 -109 144q-5 81 18 279q7 63 2 63q-6 0 -32 -67q-58 -150 -93 -221q-1 -2 -3 -5.5t-2.5 -5t-2 -4t-2.5 -4t-2.5 -3l-2.5 -2.5t-2.5 -2t-3 -1.5t-3.5 -0.5q-48 -4 -69 62
q-49 -105 -125.5 -177t-157 -102t-160.5 -37t-142.5 10t-97.5 48q-43 39 -24 75q14 26 41 24q24 -2 35 -29q13 -24 44.5 -42.5t76 -26.5t96.5 -5.5t108.5 24.5t109 58.5t101 100.5t81.5 148q-3 23 -4 51t-0.5 42t-0.5 23q0 15 24 22.5t48.5 3t26.5 -17.5z" />
    <glyph glyph-name="b.001" unicode="&#xe015;" horiz-adv-x="488" 
d="M108 221q22 38 54 67t68 41t69.5 5.5t59.5 -43.5t36 -101q71 38 94 99q6 17 21 8t10 -29q-11 -39 -44.5 -73t-71.5 -53q3 -80 -14 -142.5t-46.5 -96.5t-64.5 -48t-69 -6q-52 13 -69 59.5t0 90.5q21 69 157 143q3 43 -22 88.5t-60 39.5q-40 -7 -82 -83.5t-49 -124.5
q-1 -10 -5 -16q-8 -9 -34 -5t-28 18q-7 41 -11 128q-50 -100 -126.5 -169t-155.5 -97.5t-158 -34.5t-140.5 10.5t-95.5 47.5q-43 39 -24 75q14 26 41 24q24 -2 35 -29q13 -24 45 -43t77 -26.5t97.5 -4.5t109.5 25.5t109.5 60t100.5 103t81 151.5l-2 65q-3 45 3 105.5
t22 126.5t50 114t81 54q48 6 70.5 -27.5t23.5 -84.5q1 -82 -41 -178.5t-106 -156.5q1 -7 1.5 -34.5t2.5 -42.5zM97 352q55 67 89 156t23 152q-4 23 -13.5 35t-22.5 11q-24 -1 -40 -28t-22.5 -75.5t-9 -88.5t-3 -95.5t-1.5 -66.5zM299 87q-7 -5 -30.5 -19t-33.5 -21.5
t-24.5 -24.5t-22.5 -38q-12 -24 -5 -55t36 -34q25 -3 43.5 19.5t26 55t11.5 65.5t-1 52z" />
    <glyph glyph-name="z.001" unicode="&#xe016;" horiz-adv-x="455" 
d="M0 285l3 7q4 9 16 12l82 22q14 34 31 67t45.5 75.5t62.5 60t67 -0.5q23 -12 26 -36.5t-6.5 -47t-25.5 -41.5q-45 -57 -117 -90q-12 -23 -14 -38q54 20 104 -14.5t69 -92.5q42 16 65.5 41.5t47.5 80.5q10 14 23 5.5t8 -26.5q-14 -48 -49.5 -86t-78.5 -59
q13 -97 -25.5 -190.5t-115 -145t-162.5 -31.5q-51 12 -68.5 57t-2.5 96q25 88 94.5 142.5t175.5 86.5q-1 39 -14 66t-33.5 36t-50 -11.5t-59.5 -70.5q-8 -12 -20 -11t-16 12q-4 12 1 47t20 74q-13 -6 -48 -15q-36 -103 -96.5 -180.5t-128.5 -118.5t-141.5 -63t-139.5 -20
t-119.5 17.5t-83.5 42.5q-43 39 -24 75q14 26 41 24q24 -2 35 -29q13 -25 45 -43.5t77.5 -26t98 -4.5t110 25.5t110 61t101 105t80.5 153.5zM260 97q-39 -13 -68 -26t-64 -34.5t-60.5 -52t-40.5 -69.5q-7 -19 -9 -39t1.5 -39t17.5 -31t38 -11q46 1 91.5 46.5t72.5 116.5
t21 139zM203 368q38 23 68 60q34 42 23 57q-5 3 -9 3t-12 -9t-14.5 -18t-15 -23.5l-15 -25.5l-14 -24.5t-11.5 -19.5z" />
    <glyph glyph-name="h.001" unicode="&#xe017;" horiz-adv-x="413" 
d="M100 354q-12 -141 -4 -130q1 1 2 4q22 67 67.5 118.5t82.5 42.5q51 -13 56 -78.5t-22 -180.5q-37 -180 -10 -160q31 23 110 232q18 48 31 88q6 18 22 5t10 -30q-5 -13 -18 -52.5l-25 -73.5l-29.5 -80t-35.5 -82t-38 -69t-41.5 -51.5t-42.5 -18.5q-57 -1 -41 163
q4 45 18 138q21 138 12 156q-7 13 -28 -10q-34 -38 -102 -254q-5 -15 -31 -30t-35 4q-8 21 -11 162q-51 -94 -127.5 -159t-154 -91t-154.5 -31t-136.5 11.5t-93.5 46.5q-43 39 -24 75q14 26 41 24q24 -2 35 -29q13 -24 44 -42.5t75 -26.5t95.5 -5.5t107.5 23.5t108.5 56.5
t100.5 98t82 144.5q1 104 9.5 195t27.5 182t56 146t89 57q38 2 56 -31.5t19 -74.5q1 -92 -39.5 -184t-113.5 -198zM100 435q33 56 51.5 90t40.5 97t21 113q0 20 -8 46.5t-24 20.5q-12 -4 -22.5 -22.5t-18 -48t-13.5 -60.5t-10.5 -70l-7.5 -66.5t-5.5 -59.5t-3.5 -40z" />
    <glyph glyph-name="w.001" unicode="&#xe018;" horiz-adv-x="576" 
d="M218 30q13 32 22 61q-26 55 -32.5 108.5t3 90.5t27.5 60t39 24q29 0 42.5 -18t12 -51t-7.5 -64t-19 -73q19 -44 42 -58t43 -1t36.5 41t23.5 65q-37 31 -39 74q-2 36 26 39q7 1 17 -2q36 -10 38 -74q18 -19 32 -23.5t24 6t15.5 22t13.5 34.5q5 14 22 7q19 -9 11 -26
q-16 -50 -41 -72.5t-45.5 -21t-41.5 15.5q-6 -45 -31 -86.5t-56 -66.5t-66.5 -23.5t-60.5 36.5q-32 -95 -68 -136q-22 -23 -48 -25q-32 -1 -61.5 43t-49 112.5t-29.5 149.5q-49 -103 -125.5 -174.5t-156.5 -101t-160 -36t-142 10t-97 47.5q-43 39 -24 75q14 26 41 24
q24 -2 35 -29q13 -25 45 -43.5t77.5 -26t98 -4.5t110 25.5t110 61t101 105t80.5 153.5q-5 132 27 210.5t102 53.5q47 -17 11 -117q-7 -20 -37 -89q17 -193 53 -293q31 -82 57 -20zM119 500q-18 0 -16 -79q25 71 21 77q-2 2 -5 2zM279 241q1 7 4 23t5 25.5t3 20.5t-0.5 15
t-6.5 2q-3 -2 -4.5 -31.5t-0.5 -54.5z" />
    <glyph glyph-name="e.001" unicode="&#xe019;" 
d="M135 193q24 -14 58 9t59 91q4 12 20 6q19 -6 12 -26q-29 -81 -72.5 -111.5t-102.5 -24.5q-66 6 -93 69q-41 -89 -102 -155t-126.5 -100.5t-135 -52t-131.5 -14t-111.5 18.5t-78.5 41q-43 39 -24 75q14 26 41 24q24 -2 35 -29q13 -24 44.5 -43t76.5 -26.5t97 -5t109 25
t109.5 59.5t100.5 102t81 150q-2 80 42.5 132.5t113.5 20.5q21 -10 25.5 -34t-4 -48.5t-30 -47t-49.5 -29.5q4 -58 36 -77zM101 324q-1 -6 -1 -15q37 21 39 49q1 19 -11 22q-13 3 -21 -21q-5 -14 -6 -35z" />
    <glyph glyph-name="a.002" unicode="&#xe024;" horiz-adv-x="354" 
d="M276 141l55.5 112.5t51 102t36.5 61.5q62 92 145.5 145.5t160.5 63t143 -5.5t105 -50q43 -39 24 -75q-14 -26 -41 -24q-24 2 -35 29q-20 38 -73 58t-120 16t-145 -54.5t-138 -142.5q-34 -52 -78.5 -155t-53.5 -120q-12 -24 -30 -37.5t-36 -13.5q-75 0 -88 171
q-50 -52 -86 -45q-61 12 -70 91q-9 75 30 142q40 70 98 58q15 -4 31 -14q27 -23 15 -69q-8 -29 -21 -29h-3q-7 2 -11.5 9.5t-2.5 14.5q13 40 0 45q-8 4 -18 -18q-17 -36 -20 -108q-1 -26 0.5 -41t5 -20t10 -2t13.5 10t17 18q5 6 8 9q0 2 0.5 12t0.5 13.5t0.5 11.5t2 13t4 12
t5.5 13.5t8 12.5q20 24 48 25t36.5 -19.5t-13.5 -61.5q-7 -143 18 -167q7 -6 11 3z" />
    <glyph glyph-name="b.002" unicode="&#xe025;" horiz-adv-x="488" 
d="M108 221q43 75 113 104.5t124 -18.5q128 137 280.5 227.5t275.5 94.5q65 2 119.5 -13.5t87.5 -45.5q43 -39 24 -75q-14 -26 -41 -24q-24 2 -35 29q-17 31 -57.5 51.5t-93.5 23.5q-112 6 -259.5 -82t-273.5 -225q27 -58 32 -126q3 -80 -14 -142.5t-46.5 -96.5t-64.5 -48
t-69 -6q-39 9 -56.5 41t-15 67.5t16.5 70.5q37 92 122 200q-26 48 -61 42q-40 -7 -82 -83.5t-49 -124.5q-1 -10 -5 -16q-8 -9 -34 -5t-28 18q-5 35 -8.5 86t-6 123t-2.5 77q-3 45 3 105.5t22 126.5t50 114t81 54q48 6 70.5 -27.5t23.5 -84.5q1 -82 -41 -178.5t-106 -156.5
q1 -7 1.5 -34.5t2.5 -42.5zM97 352q55 67 89 156t23 152q-4 23 -13.5 35t-22.5 11q-24 -1 -40 -28t-22.5 -75.5t-9 -88.5t-3 -95.5t-1.5 -66.5zM289 177q-87 -113 -101 -193q-15 -84 31 -89q32 -4 51.5 58.5t20 127t-1.5 96.5z" />
    <glyph glyph-name="c.002" unicode="&#xe026;" horiz-adv-x="247" 
d="M278 263q-53 -138 -171 -126q-76 7 -101 83q-23 70 8 140q32 72 95 76q22 1 46 -7q40 -13 34 -51q-5 -31 -31 -42q-17 -7 -35 2q-7 4 -8.5 12t2.5 15q9 14 25 7q13 6 5 15q-11 11 -26 -4q-16 -17 -22 -59q-15 -103 34 -131q13 -5 29.5 -5.5t36 16t32.5 47.5
q48 120 119 204t144 121.5t146 47.5t131 -5.5t95 -48.5q43 -39 24 -75q-14 -26 -41 -24q-24 2 -35 29q-18 34 -62.5 55.5t-105.5 19.5t-125.5 -29t-130.5 -100t-112 -183z" />
    <glyph glyph-name="d.002" unicode="&#xe027;" horiz-adv-x="362" 
d="M383 229q-14 -38 -25.5 -64t-30 -59t-40 -51.5t-44.5 -20.5t-39.5 13t-25.5 46.5t-13 59t-7 69.5q-50 -52 -86 -45q-61 12 -70 91q-9 75 30 142q40 70 98 58q15 -4 31 -14q3 55 13 115q5 29 9 48t14 53t22.5 55t33 38t45.5 17q107 2 43 -218q-34 -121 -88 -214
q1 -16 -1 -72.5t0 -98.5t13 -47q16 -7 37.5 25.5t41.5 82.5q1 1 1 2q43 125 112.5 212.5t143.5 125.5t149.5 48t136 -6.5t97.5 -49.5q43 -39 24 -75q-14 -26 -41 -24q-24 2 -35 29q-13 25 -41 43.5t-66.5 26t-83.5 4.5t-94.5 -26t-95.5 -61t-90.5 -104.5t-77.5 -153.5z
M251 424q35 53 65 165q38 141 -2 150h-3q-18 1 -33 -72.5t-21 -144t-6 -98.5zM138 380q11 50 -1 47q-13 -2 -26 -52q-10 -38 -10 -80q0 -16 0.5 -28t2 -18t3 -11t5.5 -3.5t5.5 1.5t8 7.5t8.5 10t10 13.5l11 15v74h-3q-7 2 -11.5 9t-2.5 15z" />
    <glyph glyph-name="e.002" unicode="&#xe028;" 
d="M268 229q-46 -107 -159 -92q-74 10 -99 89q-22 72 9 143q30 70 88 72q24 0 50 -12q21 -10 25.5 -34t-4 -48.5t-30 -47t-49.5 -29.5q4 -58 36 -77q13 -5 29.5 -7.5t37.5 16t34 55.5q44 120 113 203.5t142 119.5t147.5 45.5t134 -6.5t96.5 -49q43 -39 24 -75
q-14 -26 -41 -24q-24 2 -35 29q-13 25 -41 43.5t-67 26t-84 4.5t-94 -25.5t-95.5 -61t-91 -105t-76.5 -153.5zM101 324q-1 -6 -1 -15q37 21 39 49q1 19 -11 22q-13 3 -21 -21q-5 -14 -6 -35z" />
    <glyph glyph-name="f.002" unicode="&#xe029;" horiz-adv-x="247" 
d="M104 306l-8 -4l-1 -130l5 -3q29 7 64 35.5t69.5 68l73 86t81 92.5t86.5 84.5t97 64.5t106 30q67 5 110 -11t79 -49q43 -39 24 -75q-14 -26 -41 -24q-24 2 -35 29q-31 60 -127 73q-58 7 -121.5 -28.5t-120.5 -94.5t-108.5 -121t-102 -116t-85.5 -70q12 -6 20 -17.5
t11 -28.5t4 -32t-1 -37t-3.5 -34.5t-5.5 -33t-4 -23.5q-7 -46 -25 -113t-37 -75q-28 -13 -50 3.5t-33.5 51.5t-19.5 79t-9.5 86.5t-3.5 73t0 39.5q-36 -21 -48 -18q-14 7 -11.5 24.5t15.5 28.5q11 10 16.5 13t13.5 6t16 7q1 28 2.5 79.5t2.5 89.5t3.5 90t7 91t11.5 83
t18 75.5t25.5 59.5t35.5 43.5t46 18.5q43 6 66.5 -14.5t26.5 -62.5q6 -86 -36 -213t-99 -177zM100 358q46 50 75 157.5t25 178.5q-3 36 -20 41t-30.5 -22.5t-22 -77t-13.5 -92.5t-8.5 -91.5t-3.5 -52.5q-1 -7 -1 -19t-1 -22zM92 120q-10 -241 5 -311q18 60 30.5 121
t11.5 123t-27 74q-12 -3 -21 -6h-1z" />
    <glyph glyph-name="g.002" unicode="&#xe02a;" horiz-adv-x="348" 
d="M268 495q-59 12 -103.5 -47t-64.5 -143q-24 -101 4 -112q19 -6 59 38q-7 54 3 109t42 90t78 20q19 -6 23 -23.5t-4 -41.5t-21.5 -49t-32.5 -51l3 -34q140 172 301 280.5t301 98.5q124 -8 182 -60q43 -39 24 -75q-14 -26 -41 -24q-24 2 -35 29q-15 28 -49 48t-80 26
q-136 17 -297 -95t-300 -290l13 -132q5 -28 1 -76.5t-12 -95.5t-35 -85.5t-67 -47.5q-46 -10 -80 30q-52 61 -13 174q25 76 90 162l16 25l-4 44q-55 -69 -105 -60.5t-63 79.5q-7 36 -3.5 77.5t17 82t37 76t56.5 60t76.5 33.5t96.5 -2q17 -7 12 -25q-7 -18 -25 -13zM183 78
l-2 -1q-6 -10 -19 -29.5l-18.5 -27.5t-15 -25t-14.5 -30t-11.5 -32.5t-12.5 -42.5q-10 -39 7.5 -65.5t46.5 -29.5q59 -7 39 283zM249 355q27 44 20 60q-14 8 -18 -34q-2 -11 -2 -26z" />
    <glyph glyph-name="h.002" unicode="&#xe02b;" horiz-adv-x="413" 
d="M433 229q-10 -26 -33.5 -93.5t-41.5 -109.5q-78 -187 -143 -188q-57 -1 -41 163q4 45 18 138q21 138 12 156q-7 13 -28 -10q-34 -38 -102 -254q-5 -15 -31 -30t-35 4q-4 13 -7.5 77t-5 157t8 197t27 193.5t56 149.5t91.5 63q38 2 56 -31.5t19 -74.5q1 -92 -39.5 -184
t-113.5 -198q-12 -141 -4 -130q1 1 2 4q22 67 67.5 118.5t82.5 42.5q51 -13 56 -78.5t-22 -180.5q-37 -181 -9 -160q16 13 55 100q34 76 88 226q46 109 115 184.5t140 107.5t142.5 39.5t128.5 -9t92 -48.5q43 -39 24 -75q-14 -26 -41 -24q-24 2 -35 29q-13 25 -41 43.5
t-66.5 26t-83.5 4.5t-94.5 -25.5t-96 -61t-90.5 -105t-77 -153.5zM100 435q33 56 51.5 90t40.5 97t21 113q0 20 -8 46.5t-24 20.5q-12 -4 -22.5 -22.5t-18 -48t-13.5 -60.5t-10.5 -70l-7.5 -66.5t-5.5 -59.5t-3.5 -40z" />
    <glyph glyph-name="i.002" unicode="&#xe02c;" horiz-adv-x="207" 
d="M103 337q-21 -186 -15 -228q3 -27 27 -5q39 34 73 136q31 91 76 162.5t95 115t105 71t108 35.5t102 4t88 -19.5t65 -38.5q43 -39 24 -75q-14 -26 -41 -24q-24 2 -35 29q-18 34 -62 55.5t-105 19.5t-125.5 -29t-130.5 -99.5t-112 -181.5v-1l-27 -70t-26.5 -63t-30.5 -59.5
t-30.5 -41t-36 -27.5t-37.5 0t-31.5 25.5t-17.5 50t-7.5 61t0 69t4.5 62.5t5.5 53.5t3.5 30.5q2 12 26.5 12.5t47 -9t20.5 -21.5zM115 462q-3 -30 -28 -45.5t-48.5 -0.5t-22.5 59q4 27 21 41.5t35.5 13t32 -19.5t10.5 -48z" />
    <glyph glyph-name="j.002" unicode="&#xe02d;" horiz-adv-x="214" 
d="M116 396q-11 -53 -13 -166q141 180 307.5 295t311.5 105q124 -8 182 -60q43 -39 24 -75q-14 -26 -41 -24q-24 2 -35 29q-15 28 -49 48t-80 26q-97 12 -213 -46.5t-217.5 -153.5t-189.5 -215q2 -53 4 -75q0 -12 3 -44q1 -26 2 -40.5t2 -43t0 -46.5l-2.5 -44t-6.5 -42
t-12 -35t-18.5 -29t-26 -17.5t-34.5 -6t-44 9.5q-37 13 -56.5 51t-11.5 85q10 63 106 213q-11 246 -5 312q7 18 63 13q51 -5 51 -21q0 -2 -1 -3zM14 18q-54 -64 -64.5 -132t34.5 -87q27 -10 33 32q3 27 -3 187zM115 520q-3 -30 -28 -45.5t-48.5 -0.5t-22.5 59q4 27 21 41.5
t35.5 13t32 -19.5t10.5 -48z" />
    <glyph glyph-name="k.002" unicode="&#xe02e;" horiz-adv-x="357" 
d="M118 204q-8 37 -1 50q13 25 39 5q38 57 56 71q31 23 49 5q20 -20 -8 -61q-10 -16 -27 -32q-32 -30 -55 -31l-10 -14q31 -105 51 -129q9 -11 18 -13t28 25.5t39.5 68.5t41.5 90q36 106 91 185t115 121t124.5 64.5t123.5 20.5t107 -17.5t78 -42.5q43 -39 24 -75
q-14 -26 -41 -24q-24 2 -35 29q-13 24 -41 42.5t-66.5 26.5t-83 5t-94 -25.5t-95.5 -60t-90 -103t-77 -151.5q-37 -99 -77.5 -172.5t-72.5 -78.5q-32 -4 -48.5 27t-41.5 122q-5 16 -7 25l-9 -12q-49 -58 -62 -70q-39 -34 -45 10q-12 91 -14.5 209t17.5 248t67 176
q43 41 92 30t67 -60q52 -139 -147 -371q-12 -103 1 -126q7 -12 19 13zM98 384q31 29 65.5 92.5t46.5 127.5t-37 90q-19 9 -32.5 -14t-21 -67.5t-11.5 -86.5t-6.5 -87.5t-3.5 -54.5z" />
    <glyph glyph-name="l.002" unicode="&#xe02f;" 
d="M93 -24q-26 2 -48.5 38t-28.5 86q-10 82 -13.5 193t10.5 240.5t51 176.5q27 35 66.5 39.5t70 -20t36.5 -67.5q5 -32 -2.5 -68t-15.5 -60t-35.5 -68.5t-37.5 -58.5l-47 -66v-42t1.5 -72.5t5.5 -74t13.5 -59.5t24.5 -15q12 5 38.5 53.5t47.5 108.5q37 105 92 184t115.5 121
t124.5 64.5t122.5 20.5t106.5 -17.5t78 -42.5q43 -39 24 -75q-14 -26 -41 -24q-24 2 -35 29q-18 34 -62.5 55.5t-105.5 19.5t-125.5 -29t-130.5 -100t-112 -183v-1q-60 -152 -88 -201q-51 -90 -100 -85zM101 421q31 38 57 93t33 103t-20 67q-31 19 -50 -49q-22 -81 -20 -205
v-9z" />
    <glyph glyph-name="m.002" unicode="&#xe030;" horiz-adv-x="635" 
d="M656 229q-34 -102 -81.5 -195t-80.5 -86q-126 28 -79 389q12 93 10 94t-8 -10q-5 -11 -14 -35q-7 -17 -46.5 -135.5t-61.5 -160.5q-19 -33 -36 -33q-87 -1 -72 169q5 62 4 64q-2 2 -9 -9t-21 -40q-1 -1 -5.5 -11t-7.5 -16l-9 -17.5t-11 -19l-11.5 -17.5t-13.5 -16.5
l-14 -12.5t-15 -8.5t-16 -1.5q-65 8 -54 248q0 22 36 19q40 -4 57 -29q5 -8 5 -17q-1 -28 -6 -75q-5 -53 0 -54q3 -1 10 10q8 11 22 40q58 114 86 154q31 43 52 22q31 -32 8 -193q-12 -88 -4 -88q10 0 52 127q32 96 67 176.5t55 97.5q35 36 67.5 14t22.5 -73
q-14 -73 -30 -247q-22 -242 14 -219q13 8 32 48q20 42 47.5 112.5t40.5 98.5q46 110 114.5 186t140 108.5t143.5 40t129 -9t92 -48.5q43 -39 24 -75q-14 -26 -41 -24q-24 2 -35 29q-13 25 -41 43.5t-67 26t-84 4.5t-94 -25.5t-95.5 -61t-91 -105t-76.5 -153.5z" />
    <glyph glyph-name="n.002" unicode="&#xe031;" horiz-adv-x="443" 
d="M463 229q0 -1 -0.5 -2.5t-1.5 -2.5q-89 -240 -140 -254q-98 -26 -109 144q-5 81 18 279q7 63 2 63q-6 0 -32 -67q-58 -150 -93 -221q-1 -2 -3 -5.5t-2.5 -5t-2 -4t-2.5 -4t-2.5 -3l-2.5 -2.5t-2.5 -2t-3 -1.5t-3.5 -0.5q-20 -1 -36 10t-25 32t-15 44t-8 51.5t-3 48t-1 40
v21.5q0 15 24 22.5t48.5 3t26.5 -17.5q-10 -80 5 -119q7 -17 13 -3q22 48 58 139l40 101q44 99 98 70q18 -10 25 -47t3.5 -89.5t-10 -101t-14.5 -99.5t-9 -67q0 -3 -1 -15q-13 -127 12 -129q9 0 24 17q26 31 91 200l15 39l1 2q46 110 115 186t140 108.5t143 40t129 -9
t92 -48.5q43 -39 24 -75q-14 -26 -41 -24q-24 2 -35 29q-13 25 -41 43.5t-67 26t-84 4.5t-94 -25.5t-95.5 -61t-91 -105t-76.5 -153.5z" />
    <glyph glyph-name="o.002" unicode="&#xe032;" horiz-adv-x="289" 
d="M209 252q15 3 32 11q24 16 86.5 76.5l123.5 117.5t144.5 108.5t154.5 60.5q74 9 137.5 -6.5t101.5 -49.5q43 -39 24 -75q-14 -26 -41 -24q-24 2 -35 29q-21 38 -73 60t-117 14q-56 -7 -119.5 -44.5t-109.5 -78.5l-107 -98.5t-93 -82.5q-46 -46 -117 -63
q-31 -135 -98 -167q-48 -23 -79.5 2t-36.5 79q-7 70 18 135q-33 44 -34 107t30 112.5t81 57.5q53 9 87 -32.5t40.5 -107.5t-0.5 -141zM119 329q-1 -2 -7.5 -22t-11 -36.5t-4.5 -29.5q30 -8 70 -2q11 67 7 127q-2 22 -7 43.5t-14.5 45.5t-28.5 34.5t-44 2.5q-44 -15 -62 -79
t9 -116q28 51 41 65q11 10 23.5 4t22.5 -19t6 -18zM130 122q15 24 28 77q-39 -4 -73 4q-26 -104 -1 -118q18 -11 46 37z" />
    <glyph glyph-name="p.002" unicode="&#xe033;" horiz-adv-x="391" 
d="M91 480l-11 -481v3q24 374 120 398q54 14 87 -36q80 88 190.5 147.5t210 80.5t182.5 15.5t119 -37.5q43 -39 24 -75q-14 -26 -41 -24q-24 2 -35 29q-15 28 -63.5 41.5t-119 7t-147.5 -30.5t-158.5 -75.5t-142.5 -122.5q7 -54 -6 -105q-15 -45 -52.5 -79.5t-75.5 -20.5
q-14 5 -16.5 18.5t5.5 32.5t17.5 37t20 36t12.5 24q0 89 -20 83q-26 -6 -53 -132q-39 -179 -41 -439q0 -22 -31 -29q-40 -10 -65 17q-15 16 -15 42q-1 99 -0.5 204t0 242.5t-3.5 227.5q0 16 27 19t54.5 -4t27.5 -14z" />
    <glyph glyph-name="q.002" unicode="&#xe034;" horiz-adv-x="374" 
d="M282 455q14 27 10 63.5t-38 35.5q-73 -3 -122 -160q-36 -114 -35 -206q0 -37 9 -35q2 1 5 4q11 13 27 61q0 24 5.5 56t17 71t35.5 62t57 17q49 -9 24 -108q-9 -38 -44 -109v-49q39 29 96 79.5l107.5 97l111.5 98t121 88t122.5 60.5t128 22t126.5 -33q48 -24 33 -61
q-11 -27 -40 -33q-32 -7 -45 24q-42 42 -98 44.5t-111.5 -24t-128 -80t-134 -108l-144 -124.5t-143.5 -114l-2 -12q0 -4 1 -11q99 -1 93 -165q-1 -19 -4 -43t-11 -56t-25 -51.5t-40 -15.5q-45 8 -76 92t-33 197q-11 -4 -14 -5q-20 -8 -32.5 14t8.5 33l37 22v49
q-4 -15 -18.5 -36t-27.5 -23q-38 -6 -61.5 25.5t-28.5 84t1 115.5q10 82 52 153t103.5 108t122.5 23q23 -5 35.5 -22.5t15 -40t-1.5 -46t-12 -44.5q-3 -7 -11 -10t-15 0q-18 9 -9 26zM234 32q0 -116 5.5 -177.5t21.5 -58.5q18 3 24.5 72t-2.5 108q-7 31 -18.5 43.5
t-30.5 12.5zM240 326q10 34 6 38q-3 1 -4.5 -0.5t-1.5 -6.5v-9v-11.5v-10.5z" />
    <glyph glyph-name="r.002" unicode="&#xe035;" horiz-adv-x="328" 
d="M1 289q36 109 46 130q-41 29 -53 79.5t4.5 92.5t50.5 52q27 8 52 -4.5t32 -34.5q6 -21 1 -47t-21.5 -69t-20.5 -58q3 -2 27.5 -17t47 -31t34.5 -29q10 -11 13.5 -30.5t0 -52.5t-7 -56.5t-13 -71l-13.5 -67.5q-27 -144 -15 -146q9 -1 43 69q0 1 1 2q48 99 99 236q0 2 1 4
q43 125 112.5 212.5t143.5 125.5t149.5 48t136 -6.5t97.5 -49.5q43 -39 24 -75q-14 -26 -41 -24q-24 2 -35 29q-18 34 -63 56t-107.5 18.5t-128 -32t-132 -104.5t-111.5 -190l-35.5 -106t-52.5 -139.5t-67 -138t-59 -55.5q-38 -2 -57 28.5t-18.5 88.5t8 114.5t22.5 131.5
q4 21 11 53.5l9.5 44t5 31.5t0.5 27.5t-7 20t-14.5 21.5t-24.5 20q-3 -8 -13.5 -39l-20 -58.5t-14.5 -36.5q-11 -19 -23 -8q-14 11 -4 41zM61 474q45 121 24 131q-25 13 -34 -33q-10 -50 3 -87q3 -8 7 -11z" />
    <glyph glyph-name="s.002" unicode="&#xe036;" horiz-adv-x="304" 
d="M88 241q-8 10 -18 18t-20 14t-13 8q-3 -6 -10.5 -29t-14.5 -39.5t-12 -17.5q-7 -1 -9.5 3t-4.5 14q-4 20 16 88q-43 26 -56.5 96t15 129t91.5 53q20 -2 31.5 -11.5t13.5 -29t1 -38.5t-10 -51t-16 -53.5t-21 -59.5q5 -6 13.5 -12t16 -10.5l22 -13l22.5 -13.5
q136 159 288 256t285 88q124 -8 182 -60q43 -39 24 -75q-14 -26 -41 -24q-24 2 -35 29q-15 28 -49 48t-80 26q-117 15 -260.5 -76t-274.5 -238q46 -36 67.5 -101t16.5 -128t-39.5 -115.5t-91.5 -66.5t-100 32q-56 59 -33 164q20 93 104 196zM109 -100q24 0 38.5 41
t6.5 112.5t-46 143.5q-36 -43 -57.5 -87t-26.5 -81t2 -66.5t29 -46t54 -16.5zM20 359q3 12 10 35t10.5 36l8.5 31.5t6 29t1 22t-4 17t-11 6.5q-16 2 -25.5 -13.5t-12.5 -39.5t-2 -50t6.5 -47t12.5 -27z" />
    <glyph glyph-name="t.002" unicode="&#xe037;" horiz-adv-x="222" 
d="M243 229l-3 -6q-84 -245 -155 -253q-22 -2 -38 9t-25 33t-14.5 46.5t-7 56t-1.5 53.5t1 46.5t1 27.5q0 18 1 101.5t0.5 146t-3.5 104.5q-53 4 -61 -10q-9 -18 -26 -10q-19 8 -10 26q23 41 94 35q-1 19 -5 45q-1 7 10 14t28 11t34.5 5.5t30.5 -1.5t14 -10q5 -32 7 -78
q60 -2 82 29q10 15 27 6q17 -11 6 -28q-36 -48 -114 -46q0 -248 -8 -344q-17 -212 27 -154q25 33 69 152q0 2 1 4q43 125 112.5 212.5t143.5 125.5t149.5 48t136 -6.5t97.5 -49.5q43 -39 24 -75q-14 -26 -41 -24q-24 2 -35 29q-13 25 -41 43.5t-67 26t-84 4.5t-94 -25.5
t-95.5 -61t-91 -105t-76.5 -153.5z" />
    <glyph glyph-name="u.002" unicode="&#xe038;" horiz-adv-x="338" 
d="M358 229l-3 -6q-26 -66 -56.5 -98t-62.5 -24q-52 13 -70 154q-30 -121 -53 -151q-20 -25 -50.5 -22.5t-47.5 23.5q-41 50 -21 380q0 10 26 10.5t51.5 -7.5t25.5 -18q0 -3 -3 -38.5t-5 -68t-3 -71t2.5 -64.5t11.5 -31q6 -4 12.5 4.5t12.5 30.5t10 40l10.5 49t8.5 42
q1 6 25 10.5t48.5 -1t25.5 -24.5q1 -9 -1 -24.5t-2 -19.5q-6 -118 10 -129q14 -11 28.5 7t30.5 55q0 1 1 3q43 125 112.5 212.5t143.5 125.5t149.5 48t136 -6.5t97.5 -49.5q43 -39 24 -75q-14 -26 -41 -24q-24 2 -35 29q-13 25 -41 43.5t-67 26t-84 4.5t-94 -25.5t-95.5 -61
t-91 -105t-76.5 -153.5z" />
    <glyph glyph-name="v.002" unicode="&#xe039;" horiz-adv-x="338" 
d="M230 231q-24 -172 -43 -243q0 -1 -5.5 -25t-10 -40t-12.5 -38.5t-18 -35.5t-21 -15q-41 -8 -67 32.5t-35.5 109t-12.5 136t-3 133.5t-2 81q0 14 25 15t50.5 -8t25.5 -21v-38q3 -365 24 -363q1 0 3 2q29 55 67 349q-43 55 -22 106q12 31 36 31q14 0 24 -15q15 -21 5 -99
q58 -58 87 -24q37 100 92 175t114.5 114.5t123 60.5t120.5 19t104 -17.5t77 -42.5q43 -39 24 -75q-14 -26 -41 -24q-24 2 -35 29q-18 34 -61.5 55.5t-104.5 19.5t-125 -28.5t-130 -98t-112 -179.5q0 -1 -0.5 -2.5t-0.5 -2.5q-16 -49 -58.5 -60t-81.5 27z" />
    <glyph glyph-name="w.002" unicode="&#xe03a;" horiz-adv-x="576" 
d="M482 194q-6 -45 -31 -86.5t-56 -66.5t-66.5 -23.5t-60.5 36.5q-32 -95 -68 -136q-22 -23 -48 -25q-55 -2 -99 123q-49 138 -48 305q0 178 62 222q28 20 67 6q47 -17 11 -117q-7 -20 -37 -89q17 -193 53 -293q31 -82 57 -20q13 32 22 61q-26 55 -32.5 108.5t3 90.5
t27.5 60t39 24q29 0 42.5 -18t12 -51t-7.5 -64t-19 -73q19 -44 42 -58t43 -1t36.5 41t23.5 65q-37 31 -39 74q-2 36 26 39q7 1 17 -2q36 -10 38 -74q41 -43 65 -7q43 124 112.5 210t143 123.5t149 47.5t135.5 -6.5t97 -49.5q43 -39 24 -75q-14 -26 -41 -24q-24 2 -35 29
q-18 34 -62 55.5t-104.5 19.5t-125 -28.5t-130 -98t-111.5 -179.5q-15 -49 -50 -76t-77 1zM119 500q-18 0 -16 -79q25 71 21 77q-2 2 -5 2zM279 241q1 7 4 23t5 25.5t3 20.5t-0.5 15t-6.5 2q-3 -2 -4.5 -31.5t-0.5 -54.5z" />
    <glyph glyph-name="y.002" unicode="&#xe03b;" horiz-adv-x="364" 
d="M108 442q-20 -144 -8 -222q12 -82 65 -9q-5 85 25.5 146t93.5 42q24 -8 25 -36t-14 -61.5t-40 -67.5q2 -22 2 -26q91 120 194 214.5t221.5 154.5t220.5 53q124 -8 182 -60q43 -39 24 -75q-14 -26 -41 -24q-24 2 -35 29q-15 28 -49 48t-80 26q-75 9 -162 -23.5t-170 -95.5
t-159 -142.5t-141 -170.5l2 -10l7 -75q12 -155 -11 -224q-28 -82 -102 -81q-36 1 -61.5 17t-36 46.5t-5 70.5t36 93.5t83.5 109.5l-5 70q-45 -50 -67 -60q-84 -38 -101 100q-12 105 11 238q2 10 3 16q0 8 23 11.5t46 -2t23 -20.5zM157 -200q56 -7 30 227q-35 -36 -59 -85
t-19.5 -91.5t48.5 -50.5zM247 304q27 44 20 60q-14 8 -18 -34q-2 -11 -2 -26z" />
    <glyph glyph-name="z.002" unicode="&#xe03c;" horiz-adv-x="455" 
d="M19 304l82 22q14 34 31 67t45.5 75.5t62.5 60t67 -0.5q23 -12 26 -36.5t-6.5 -47t-25.5 -41.5q-45 -57 -117 -90q-12 -23 -14 -38q30 10 60 4q146 150 315 250t311 101q115 0 182 -60q43 -39 24 -75q-14 -26 -41 -24q-24 2 -35 29q-16 30 -50.5 51t-78.5 23
q-107 4 -272 -87t-310 -228q32 -20 50.5 -49t33.5 -86q13 -97 -25.5 -190.5t-115 -145t-162.5 -31.5q-130 31 -51 212q51 118 156 238q19 21 34 36q-46 2 -97 -84q-8 -12 -20 -11t-16 12q-4 12 1 47t20 74q-21 -8 -60 -17q-8 0 -14.5 5.5t-6.5 12.5q-1 16 17 22zM229 220
q-184 -187 -201 -324q-10 -71 28 -95q9 -5 19 -6q53 -5 100 51t70 130t21 146.5t-37 97.5zM203 368q38 23 68 60q34 42 23 57q-5 3 -9 3t-12 -9t-14.5 -18t-15 -23.5l-15 -25.5l-14 -24.5t-11.5 -19.5z" />
    <glyph glyph-name="a.003" unicode="&#xe03d;" horiz-adv-x="366" 
d="M206 473q1 5 2 14t-2.5 17.5t-11.5 6.5q-17 -4 -43 -64.5t-44.5 -133.5t-26.5 -137t10 -74q12 -7 35 17.5t35 44.5q0 29 0.5 49.5t3 53.5t8.5 55.5t15.5 44.5t26 32t37.5 8q18 -2 25.5 -16.5t5 -38.5t-11.5 -53t-24 -61q0 -17 -2 -60q-5 -134 8 -141q8 -4 25 26
q9 19 22 50l69 177q6 17 21 7q17 -12 11 -32q-2 -5 -20 -56.5t-32 -88l-34 -84.5t-38.5 -75.5t-32.5 -30.5q-18 -4 -32 1t-23 20t-14.5 30.5t-8 41.5t-3.5 44t-2 45q-51 -81 -97 -91q-49 -10 -71 35t-16.5 118t32.5 154q34 105 85.5 168.5t115.5 52.5q51 -9 35 -87
q-2 -8 -9.5 -11.5t-14.5 -1.5q-8 2 -12 9t-2 15z" />
    <glyph glyph-name="b.003" unicode="&#xe03e;" horiz-adv-x="488" 
d="M108 221q22 38 54 67t68 41t69.5 5.5t59.5 -43.5t36 -101q71 38 94 99q6 17 21 8t10 -29q-11 -39 -44.5 -73t-71.5 -53q3 -80 -14 -142.5t-46.5 -96.5t-64.5 -48t-69 -6q-52 13 -69 59.5t0 90.5q21 69 157 143q3 43 -22 88.5t-60 39.5q-40 -7 -82 -83.5t-49 -124.5
q-1 -10 -5 -16q-8 -9 -34 -5t-28 18q-21 137 -16 413q-58 10 -136 28l-129 30t-103.5 20t-85.5 3t-48 -24q-23 -23 -44 -0.5t-9 51.5q7 16 24 25q24 13 60.5 15t75.5 -5t90 -20.5t96.5 -28t103 -31t102.5 -25.5q-4 189 67.5 281.5t187.5 86.5q84 -5 119 -83q34 -78 -2 -169
q-39 -101 -142 -143q-58 -23 -128 -22q1 -7 3 -116t4 -124zM246 836q-15 0 -33 -7.5t-40 -30.5t-39 -59t-27 -99t-7 -143q141 -1 209 96q50 70 36 149q-12 70 -68 89q-15 5 -31 5zM299 87q-7 -5 -30.5 -19t-33.5 -21.5t-24.5 -24.5t-22.5 -38q-12 -24 -5 -55t36 -34
q25 -3 43.5 19.5t26 55t11.5 65.5t-1 52z" />
    <glyph glyph-name="c.003" unicode="&#xe03f;" horiz-adv-x="269" 
d="M164 372q12 6 -1 13q-21 11 -44 -6t-28 -59q-11 -87 4 -159.5t54 -76.5q22 -2 57.5 62t65.5 147q4 12 20 6q19 -6 12 -26q-19 -51 -35 -89.5t-39 -81t-48.5 -67t-51.5 -27.5q-77 -9 -116 79q-37 84 -17 189q21 109 89 145q40 20 91 8q39 -9 35 -47q-4 -31 -30 -44
q-18 -10 -37 0q-7 4 -8.5 12t2.5 15q9 14 25 7z" />
    <glyph glyph-name="d.003" unicode="&#xe040;" horiz-adv-x="362" 
d="M366 295q4 11 19 1q18 -13 11 -30q-87 -226 -153 -232q-23 -2 -39.5 13t-25.5 46.5t-13 59t-7 69.5q-50 -52 -86 -45q-61 12 -70 91q-9 75 30 142q40 70 98 58q15 -4 31 -14q-1 6 -1 19q-58 10 -136 28l-129.5 29.5t-104 20t-85.5 3.5t-48 -24q-23 -23 -44 -0.5t-9 51.5
q7 16 24 25q24 13 60.5 15t75.5 -5t90 -20.5t96.5 -28t103 -31t102.5 -25.5q-4 188 67.5 281t187.5 87q84 -5 118.5 -82.5t-0.5 -168.5q-40 -102 -143 -143q-59 -24 -131 -23q1 -19 -2 -109t-1 -154.5t13 -68.5q12 -5 28 13t31 49.5t25 56t17 46.5zM403 837q-15 0 -33 -7.5
t-40 -30.5t-39 -59t-27 -99t-7 -143q141 -1 209 96q50 70 36 149q-12 70 -68 89q-15 5 -31 5zM138 380q11 50 -1 47q-13 -2 -26 -52q-10 -38 -10 -80q0 -16 0.5 -28t2 -18t3 -11t5.5 -3.5t5.5 1.5t8 7.5t8.5 10t10 13.5l11 15v74h-3q-7 2 -11.5 9t-2.5 15z" />
    <glyph glyph-name="e.003" unicode="&#xe041;" horiz-adv-x="268" 
d="M145 118q24 1 61.5 52t63.5 123q4 12 20 6q19 -6 12 -26q-85 -234 -174 -230q-88 4 -123 97q-31 85 -2 181q27 91 89 113q39 14 83 -5q17 -7 22 -26.5t-1.5 -42t-19.5 -43.5t-34 -34.5t-44 -12.5q0 -2 0.5 -26.5t2.5 -41.5t6 -39t14 -33.5t24 -11.5zM100 324
q-1 -6 -1 -15q48 10 54 44q5 23 -10 31q-18 10 -34 -29q-5 -13 -9 -31z" />
    <glyph glyph-name="f.003" unicode="&#xe042;" horiz-adv-x="247" 
d="M105 462l-10 -290q67 14 100.5 43.5t54.5 78.5q4 10 19 0q16 -12 10 -28q-33 -91 -130 -123q12 -6 20 -17t11 -28t4 -32t-1 -37.5t-3.5 -34.5t-5.5 -33t-4 -24q-7 -46 -25 -113t-37 -75q-28 -13 -50 3.5t-33.5 51.5t-19.5 79t-9.5 86.5t-3.5 73t0 39.5q-36 -21 -48 -18
q-14 7 -11.5 24.5t15.5 28.5q11 10 16.5 13t13.5 6t16 7q0 8 1 146.5t5 185.5q-56 10 -133.5 28l-127.5 29.5t-101.5 19.5t-84 2.5t-47.5 -24.5q-23 -23 -44 -0.5t-9 51.5q7 16 24 25q24 13 60.5 15t75.5 -5t90 -20.5t96.5 -28t103 -31t102.5 -25.5q-4 189 67.5 281.5
t187.5 86.5q84 -5 118.5 -82.5t-0.5 -168.5q-40 -102 -142 -143q-59 -24 -131 -23zM252 837q-15 0 -33 -7.5t-40 -30.5t-39 -59t-27 -99t-7 -143q141 -1 209 96q50 70 36 149q-12 70 -68 89q-15 5 -31 5zM92 120q-10 -241 5 -311q18 60 30.5 121t11.5 123t-27 74
q-12 -3 -21 -6h-1z" />
    <glyph glyph-name="g.003" unicode="&#xe043;" horiz-adv-x="348" 
d="M268 495q-59 12 -103.5 -47t-64.5 -143q-24 -101 4 -112q19 -6 59 38q-7 54 3 109t42 90t78 20q19 -6 23 -23.5t-4 -41.5t-21.5 -49t-32.5 -51l31 -252q58 -10 136.5 -28l130 -29.5t104 -20t85.5 -3.5t48 24q23 23 44 0.5t9 -51.5q-7 -16 -24 -25q-24 -13 -60.5 -15
t-75.5 5t-90 20.5t-96.5 28t-103 31t-102.5 25.5q27 -184 -44 -279.5t-190 -88.5q-85 5 -123 85q-37 78 -5 168q35 101 135 141q55 22 122 22l-13 144q-55 -69 -105 -60.5t-63 79.5q-7 36 -3.5 77.5t17 82t37 76t56.5 60t76.5 33.5t96.5 -2q17 -7 12 -25q-7 -18 -25 -13z
M61 -331q15 0 33 8.5t40 30.5t36.5 60.5t21.5 97.5t-5 142q-139 1 -202 -94q-46 -71 -28 -150q15 -70 71 -89q16 -6 33 -6zM249 355q27 44 20 60q-14 8 -18 -34q-2 -11 -2 -26z" />
    <glyph glyph-name="h.003" unicode="&#xe044;" horiz-adv-x="413" 
d="M98 228q22 67 67.5 118.5t82.5 42.5q51 -13 56 -78.5t-22 -180.5q-37 -180 -10 -160q31 23 110 232q18 48 31 88q6 18 22 5t10 -30q-5 -13 -18 -52.5l-25 -73.5l-29.5 -80t-35.5 -82t-38 -69t-41.5 -51.5t-42.5 -18.5q-57 -1 -41 163q4 45 18 138q21 138 12 156
q-7 13 -28 -10q-34 -38 -102 -254q-5 -15 -31 -30t-35 4q-3 10 -3.5 76t0 156.5t-1.5 196.5q0 27 1 39q-57 10 -135.5 28.5l-129.5 30t-103 19.5t-85 3t-48 -24q-23 -23 -44 -0.5t-9 51.5q7 16 24 25q24 13 60.5 15t75.5 -5t90 -20.5t96.5 -28t103 -31t102.5 -25.5
q-4 189 67.5 281.5t187.5 86.5q84 -5 118.5 -83t-1.5 -169q-40 -101 -142 -142q-59 -25 -133 -23q-9 -115 -5 -214q1 -28 4 -20zM249 837q-15 0 -33 -7.5t-40 -30.5t-39 -59t-27 -99t-7 -143q141 -1 209 96q50 70 36 149q-12 70 -68 89q-15 5 -31 5z" />
    <glyph glyph-name="i.003" unicode="&#xe045;" horiz-adv-x="234" 
d="M104 337q-5 -41 -5.5 -172.5t9.5 -168.5q8 -16 28 28q6 14 85 226q7 21 15 41q6 17 21 5q17 -14 10 -32q-9 -22 -28 -80.5t-35.5 -103.5t-38.5 -93.5t-46 -74.5t-47 -22q-106 17 -62 465q2 12 26.5 12.5t47 -9t20.5 -21.5zM116 462q-3 -30 -28 -45.5t-48.5 -0.5t-22.5 59
q4 27 21 41.5t35.5 13t32 -19.5t10.5 -48z" />
    <glyph glyph-name="j.003" unicode="&#xe046;" horiz-adv-x="214" 
d="M116 396q-7 -28 -8 -164t2 -199q58 -10 136.5 -28l130 -30t104 -20t86 -3t48.5 24q23 23 44 0.5t9 -51.5q-7 -16 -24 -25q-24 -13 -60.5 -15t-75.5 5t-90 20.5t-96.5 28t-103 31t-102.5 25.5q27 -184 -44 -279.5t-190 -88.5q-85 5 -123 84q-37 78 -5 169q35 101 137 142
q53 21 120 21q-14 301 -8 364q7 18 63 13q51 -5 51 -21q0 -2 -1 -3zM-110 -331q15 0 33.5 8.5t40.5 30.5t36 60.5t21 97.5t-5 142q-139 1 -202 -94q-46 -71 -28 -150q15 -70 71 -89q16 -6 33 -6zM115 520q-3 -30 -28 -45.5t-48.5 -0.5t-22.5 59q4 27 21 41.5t35.5 13
t32 -19.5t10.5 -48z" />
    <glyph glyph-name="k.003" unicode="&#xe047;" horiz-adv-x="357" 
d="M118 204q-8 37 -1 50q13 25 39 5q38 57 56 71q31 23 49 5q20 -20 -8 -61q-10 -16 -27 -32q-32 -30 -55 -31l-10 -14q31 -105 51 -129q9 -11 18 -13q17 -4 57 73t73 165q6 16 21.5 4.5t10.5 -27.5q-38 -109 -82.5 -195.5t-80.5 -91.5q-32 -4 -48.5 27t-41.5 122
q-5 16 -7 25l-9 -12q-49 -58 -62 -70q-39 -34 -45 10q-3 24 -5.5 97t-4.5 163t-4 128q-57 11 -135 29l-129 29.5t-103.5 19.5t-85 3t-47.5 -24q-23 -23 -44 -0.5t-9 51.5q7 16 24 25q24 13 60.5 15t75.5 -5t90 -20.5t96.5 -28t103 -31t102.5 -25.5q-4 189 67.5 281.5
t187.5 86.5q84 -5 118 -83q34 -77 -1 -168q-39 -101 -141 -143q-60 -25 -135 -23q-9 -104 0 -211q5 -70 18 -52q2 2 3 5zM248 837q-15 0 -33 -7.5t-40 -30.5t-39 -59t-27 -99t-7 -143q141 -1 209 96q50 70 36 149q-12 70 -68 89q-15 5 -31 5z" />
    <glyph glyph-name="l.003" unicode="&#xe048;" 
d="M144 78q15 3 39 53t68 161q3 11 19 1q19 -11 11 -31q-58 -149 -82 -192q-54 -99 -106 -94q-26 2 -48.5 38t-28.5 86q-3 21 -5 91.5l-4.5 159.5l-3.5 123q-57 10 -135 28.5t-128.5 29.5t-103 19t-85 3t-47.5 -24q-23 -23 -44 -0.5t-9 51.5q7 16 24 25q24 13 60.5 15
t75.5 -5t90 -20.5t96.5 -28t103 -31t102.5 -25.5q-4 189 67.5 281.5t187.5 86.5q84 -5 118 -83q34 -77 -1 -168q-39 -101 -141 -143q-60 -25 -135 -23q0 -334 31 -377q6 -9 14 -7zM250 837q-15 0 -33 -7.5t-40 -30.5t-39 -59t-27 -99t-7 -143q141 -1 209 96q50 70 36 149
q-12 70 -68 89q-15 5 -31 5z" />
    <glyph glyph-name="m.003" unicode="&#xe049;" horiz-adv-x="635" 
d="M100 533q-19 -414 -2 -414q4 0 10 20l27.5 101t36.5 124t28 63q27 37 52 22q44 -27 24 -184q-1 -9 -2 -19q-12 -88 -4 -88q10 0 52 127q53 161 102 203q35 36 67.5 14t22.5 -73q-11 -59 -21 -209q-14 -208 20 -192q15 7 37 54q34 71 86 206q3 14 19 8q19 -8 13 -30
q0 -1 -1 -3q-83 -233 -131 -291q-24 -28 -42 -24q-123 27 -93 336q8 80 6 81t-6 -7q-6 -11 -18 -43q-10 -26 -26.5 -73.5t-30.5 -83.5t-31 -68q-17 -31 -36 -33q-37 -4 -53.5 28t-14.5 72.5t6 78.5t3 40q-5 8 -15 -15q-7 -17 -25 -74q-50 -158 -82 -193q-25 -29 -49 -6
q-17 16 -25.5 97.5t-7.5 194.5t2.5 173.5t3.5 106.5q0 22 36 19q40 -4 57 -29q5 -8 5 -17z" />
    <glyph glyph-name="n.003" unicode="&#xe04a;" horiz-adv-x="443" 
d="M100 531q-13 -105 -13 -267q0 -61 5 -55q23 49 56 131.5t36 89.5q44 99 98 70q18 -10 27.5 -37.5t9.5 -71t-1.5 -74.5t-7.5 -81t-7 -57q0 -3 -1 -15q-13 -127 12 -129q9 0 24 17q9 11 19.5 29t22.5 47l20 48.5t23 59.5t21 54q5 15 19 2q16 -16 10 -34q-2 -4 -10 -27
t-13.5 -36l-15.5 -38.5t-17.5 -42.5l-18 -40t-19.5 -38.5t-19.5 -30.5t-20 -24t-18.5 -11q-94 -25 -114 112q-10 70 3 241q4 56 -1 57q-6 0 -29 -58q-3 -7 -6 -16q-46 -120 -87 -202q-1 -2 -3 -5.5t-2.5 -5t-2 -4t-2.5 -4t-2.5 -3l-2.5 -2.5t-2.5 -2t-3 -1.5t-3.5 -0.5
q-20 -1 -34.5 21t-21 60.5t-10 83.5t-3 93.5t2 87.5t3 68.5t1.5 32.5q0 15 24 22.5t48.5 3t26.5 -17.5z" />
    <glyph glyph-name="p.003" unicode="&#xe04b;" horiz-adv-x="391" 
d="M91 480q-5 -118 -12 -448h3q25 345 118 368q51 13 83.5 -29.5t24.5 -108.5q10 4 93 28q8 1 14 -4.5t7 -13.5q1 -16 -18 -21q-63 -17 -104 -36q-15 -45 -52.5 -79.5t-75.5 -20.5q-23 10 -18 31t22.5 42t33.5 30q8 135 -21 135q-25 0 -54 -100q-27 -92 -40 -224
q55 -10 132 -28l125.5 -28.5t99.5 -18.5t82.5 -2.5t46.5 24.5q23 23 44 0.5t9 -51.5q-7 -16 -24 -25q-24 -13 -59.5 -15t-74 5t-88.5 20t-94.5 27t-101 30t-100.5 26q-2 -19 -4 -57q4 -79 -13.5 -141t-51.5 -98.5t-78.5 -54.5t-96.5 -15q-85 5 -123 84q-37 79 -5 170
q36 101 138 141q57 23 128 21q0 306 -4 436q0 16 27 19t54.5 -4t27.5 -14zM-144 -331q16 0 34 9.5t38.5 32t36.5 68.5t21 109v120q-141 2 -205 -93q-47 -70 -30 -150q16 -71 72 -90q16 -6 33 -6z" />
    <glyph glyph-name="q.003" unicode="&#xe04c;" horiz-adv-x="374" 
d="M282 455q14 27 10 63.5t-38 35.5q-73 -3 -122 -160q-36 -114 -35 -206q0 -37 9 -35q2 1 5 4q11 13 27 61q0 24 5.5 56t17 71t35.5 62t57 17q49 -9 24 -108q-9 -38 -44 -109q-5 -84 -1 -164q154 2 229 -104q57 -79 42 -174q-14 -87 -80 -122q-27 -14 -59 -16
q-106 -5 -170 93.5t-60 275.5q-45 -9 -103 -25t-104 -31t-97 -28.5t-90.5 -20.5t-76.5 -5.5t-61 14.5q-34 19 -26 55q6 27 27 31q15 3 28 -10q15 -19 48.5 -24t86 3t104 20l129.5 30t136 28l2 109q-4 -15 -18.5 -36t-27.5 -23q-38 -6 -61.5 25.5t-28.5 84t1 115.5
q10 82 52 153t103.5 108t122.5 23q23 -5 35.5 -22.5t15 -40t-1.5 -46t-12 -44.5q-3 -7 -11 -10t-15 0q-18 9 -9 26zM356 -331q67 1 96 68q29 68 -3 144q-38 92 -141 118q-35 9 -76 9q-1 -79 8 -141t22 -98t30.5 -60t33 -32t30.5 -8zM240 326q10 34 6 38q-3 1 -4.5 -0.5
t-1.5 -6.5v-9v-11.5v-10.5z" />
    <glyph glyph-name="r.003" unicode="&#xe04d;" horiz-adv-x="328" 
d="M1 289q36 109 46 130q-41 29 -53 79.5t4.5 92.5t50.5 52q27 8 52 -4.5t32 -34.5q6 -21 1 -47t-21.5 -69t-20.5 -58q3 -2 27.5 -17t47 -31t34.5 -29q49 -53 29 -118q-39 -126 -32 -168q5 -33 45 45l2 4l26 48t32.5 64t27.5 65q6 16 20 2q15 -15 8 -35q-10 -30 -23.5 -65.5
t-37.5 -88t-53 -87t-55 -35.5q-138 -8 -51 300q14 47 -63 106q-3 -8 -13.5 -39l-20 -58.5t-14.5 -36.5q-11 -19 -23 -8q-14 11 -4 41zM61 474q45 121 24 131q-25 13 -34 -33q-10 -50 3 -87q3 -8 7 -11z" />
    <glyph glyph-name="s.003" unicode="&#xe04e;" horiz-adv-x="304" 
d="M3 300q-32 19 -47.5 67t-12 96.5t32 83.5t76.5 31q29 -3 41.5 -23.5t8 -58t-14.5 -73.5t-28 -88q92 -53 147 -132t54 -179q165 -69 312 -83.5t187 35.5q23 23 44 0.5t9 -51.5q-7 -16 -24 -25q-48 -28 -140.5 -19t-191 37.5t-200.5 72.5q-15 -83 -79.5 -132t-139.5 -45
q-87 5 -120 71q-30 58 1 116q37 70 132 76q49 3 109 -14q-8 48 -41 115t-76 103q-2 -4 -11 -28.5t-17 -40.5t-13 -17q-7 -1 -9.5 3t-4.5 14q-4 20 16 88zM163 27q-132 40 -194 -15q-40 -36 -27 -86q13 -48 65 -64q18 -6 38 -6q45 -1 85 44.5t33 126.5zM21 359q3 11 8 27.5
t8 27.5l7 26l6.5 25t4.5 22t1.5 19.5t-1.5 14.5t-4.5 10.5t-9.5 4.5q-16 2 -25.5 -13.5t-12 -39.5t-1.5 -50t6.5 -47t12.5 -27z" />
    <glyph glyph-name="t.003" unicode="&#xe04f;" horiz-adv-x="265" 
d="M112 699q3 -7 1.5 -37.5t-1.5 -40.5q60 -2 82 29q10 15 27 6q17 -11 6 -28q-36 -48 -114 -46q0 -383 -6 -455q-12 -148 21 -130q42 23 131 270q3 10 7 20q9 20 22.5 5.5t7.5 -32.5q-138 -392 -212 -401q-22 -2 -38 9t-25 33t-14.5 46.5t-7 56t-1.5 53.5t1 46.5t1 27.5
q0 401 -4 463q-53 4 -61 -10q-9 -18 -26 -10q-19 8 -10 26q23 41 94 35q0 7 1.5 22.5t0.5 22.5t10 14t28 11t34.5 5.5t30.5 -1.5t14 -10z" />
    <glyph glyph-name="u.003" unicode="&#xe050;" horiz-adv-x="375" 
d="M109 423q0 -3 -3.5 -44t-6 -80.5t-4 -85.5t1.5 -77t11 -36q5 -3 12.5 9.5t16 39t16 53t16 62.5l13 55.5t9.5 43.5q1 6 25 10.5t48.5 -1t25.5 -24.5q1 -9 -1 -24.5t-2 -19.5q-7 -146 10 -158q19 -14 43 43q6 14 35 98q6 16 21 7q18 -10 12 -27q-30 -94 -64.5 -148.5
t-70.5 -46.5q-1 0 -4 1q-11 2 -16.5 4.5t-15.5 13.5t-16 28.5t-11.5 52.5t-6.5 83q-14 -55 -43 -144.5t-39 -103.5q-20 -25 -50.5 -22.5t-47.5 23.5q-40 49 -17 430q0 10 26 10.5t51.5 -7.5t25.5 -18z" />
    <glyph glyph-name="v.003" unicode="&#xe051;" horiz-adv-x="338" 
d="M101 439v-40q3 -399 24 -397q1 0 3 2q45 85 67 258q-43 55 -22 106q12 31 36 31q14 0 24 -15q15 -21 5 -99q22 -22 41 -31t35 -1t24 35q6 19 22 6t10 -30q-18 -54 -63.5 -61.5t-76.5 28.5q-57 -292 -110 -306q-40 -11 -66 32t-35.5 117.5t-13 148.5t-3.5 144.5t-2 85.5
q0 14 25 15t50.5 -8t25.5 -21z" />
    <glyph glyph-name="w.003" unicode="&#xe052;" horiz-adv-x="576" 
d="M241 150q-22 63 -27.5 117.5t3 89.5t24.5 55t37 21q29 0 42.5 -18t12 -51t-7.5 -64t-19 -73q61 -199 131 46l4 16q-37 31 -39 74q-2 36 26 39q7 1 17 -2q36 -10 38 -74q36 -50 58 -59.5t36 24.5q5 14 22 7q19 -9 11 -26q-12 -38 -32 -51.5t-40 -5t-36.5 22t-28.5 30.5
q-12 -87 -58 -167q-54 -92 -101 -60q-25 17 -45 72q-17 -51 -56.5 -106t-71.5 -54q-47 1 -83 90t-51 206t-10 219q1 27 25 32.5t49 -8t29 -33.5q19 -421 73 -421q28 0 68 112zM280 300q1 7 4 23t5 25.5t3 20.5t-0.5 15t-6.5 2q-3 -2 -4.5 -31.5t-0.5 -54.5z" />
    <glyph glyph-name="x.003" unicode="&#xe053;" horiz-adv-x="397" 
d="M304 400q-10 -6 -46.5 -62.5t-53.5 -92.5q11 -45 16 -62.5l14.5 -48.5t18 -43.5t17.5 -12.5q24 0 61 67.5t67 143.5q7 18 22 6q16 -13 9 -31l-12.5 -30.5l-16 -37.5t-19.5 -42.5l-22 -43.5t-24.5 -42.5t-26 -37.5t-27 -30t-27 -19t-27 -6t-25.5 11q-23 19 -66 153
q-31 -65 -84.5 -97.5t-82.5 -23.5q-12 3 -15.5 13t2 18.5t17.5 7.5q21 1 39 9.5t34.5 26.5t26 30t25.5 38t21 33q-26 89 -48 186q-12 -40 -41 -120q-4 -16 -17 -15q-18 2 -16 28q1 8 4 17q30 89 45 225q1 14 48 10.5t51 -17.5q2 -8 10.5 -46.5l19.5 -88.5l15 -67
q16 28 50 75t49 56q17 7 26 -11q7 -17 -11 -26z" />
    <glyph glyph-name="z.003" unicode="&#xe054;" horiz-adv-x="455" 
d="M98 159q-8 -12 -20 -11t-16 12q-4 12 1 47t20 74q-21 -8 -60 -17q-8 0 -14.5 5.5t-6.5 12.5q-1 16 17 22l82 22q14 34 31 67t45.5 75.5t62.5 60t67 -0.5q23 -12 26 -36.5t-6.5 -47t-25.5 -41.5q-45 -57 -117 -90q-12 -23 -14 -38q22 18 49 20.5t53 -13t47 -46t32.5 -85
t8.5 -123.5q54 -10 131 -27.5l124.5 -28t98.5 -18t82 -2.5t46 24q23 23 44 0.5t9 -51.5q-7 -16 -24 -25q-28 -15 -70.5 -15.5t-97 12t-106 28l-121 36t-119.5 31.5q-16 -168 -97 -269t-184 -96q-84 5 -116.5 83t5.5 169q42 101 147 143q66 26 148 21q13 136 -32 183
q-38 39 -90 -13q-20 -20 -40 -54zM84 -331q17 0 42 18.5t53 56t50 107t29 156.5q-149 8 -226 -90q-55 -69 -45 -150q9 -70 62 -91q16 -7 35 -7zM203 368q38 23 68 60q34 42 23 57q-5 3 -9 3t-12 -9t-14.5 -18t-15 -23.5l-15 -25.5l-14 -24.5t-11.5 -19.5z" />
    <glyph glyph-name="y.003" unicode="&#xe055;" horiz-adv-x="364" 
d="M108 442q-20 -144 -8 -222q12 -82 65 -9q-5 85 25.5 146t93.5 42q24 -8 25 -36t-14 -61.5t-40 -67.5q1 -12 11.5 -102l11.5 -99q58 -10 136.5 -28l130 -30t104 -20t86 -3t48.5 24q23 23 44 0.5t9 -51.5q-7 -16 -24 -25q-24 -13 -60.5 -15t-75.5 5t-90 20.5t-96.5 28
t-103 31t-102.5 25.5q27 -184 -44 -279.5t-190 -88.5q-85 5 -123 85q-37 78 -5 168q35 101 136 142q55 21 122 21l-10 116q-45 -50 -67 -60q-84 -38 -101 100q-12 105 11 238q2 10 3 16q0 8 23 11.5t46 -2t23 -20.5zM58 -331q15 0 33 8.5t40 30.5t36.5 60.5t21.5 97.5
t-5 142q-139 1 -202 -94q-46 -71 -28 -150q15 -70 71 -89q16 -6 33 -6zM247 304q27 44 20 60q-14 8 -18 -34q-2 -11 -2 -26z" />
    <glyph glyph-name="o.003" unicode="&#xe058;" horiz-adv-x="289" 
d="M209 252q45 12 83 46q6 5 14 4t13 -8q9 -11 -4 -28q-35 -40 -114 -59l-10.5 -52t-15 -65.5t-17.5 -57.5t-25.5 -56.5t-32.5 -34.5q-46 -30 -91 -6.5t-54 85.5q-7 50 2.5 124t23.5 109q-25 33 -27.5 79.5t13 88.5t46.5 74t69 38q53 9 87 -32.5t40.5 -107.5t-0.5 -141z
M95 326q-1 -2 -7.5 -22t-11 -36.5t-4.5 -29.5q31 -8 94 1q11 67 7 127q-2 22 -7 43.5t-14.5 45.5t-28.5 34.5t-44 2.5q-46 -16 -74.5 -82t-2.5 -116q28 51 41 65q11 10 23.5 4t22.5 -19t6 -18zM100 24q9 14 30 80t28 95q-64 -7 -97 1q-25 -101 -7 -167q12 -43 34 -25
q6 5 12 16z" />
    <glyph glyph-name="t.004" unicode="&#xe059;" horiz-adv-x="222" 
d="M415 894q-22 -28 -42 -14q-18 11 -11 31q9 29 61 25q85 -6 123 -87q37 -79 5 -169q-36 -100 -137 -140q-84 -33 -196 -14q-57 9 -105 18q0 -36 -1 -82.5t-2 -113t-2 -110.5q-3 -167 19 -167q19 1 76 159l20 57q9 20 22.5 5.5t7.5 -32.5q-2 -5 -11.5 -32l-14 -39.5
l-14.5 -40t-17.5 -43l-18.5 -39t-21 -37.5t-22 -28.5t-24.5 -22t-24.5 -8.5q-30 -3 -49 18.5t-26 62.5t-9.5 73t-0.5 75l1 43l-2 123t-1.5 118t-0.5 81q-100 17 -173.5 27.5t-152 18t-127.5 2t-63 -24.5q-23 -23 -44 -0.5t-9 51.5q7 16 24 25q27 15 84 16t139.5 -11
t152.5 -25.5t168 -34.5q-2 52 -5 72q-1 7 10 14t28 11t34.5 5.5t30.5 -1.5t14 -10q5 -55 5 -116q63 -14 100 -20q172 -32 258 61q59 64 53 150q-6 76 -59 107q-23 13 -50 13z" />
    <glyph glyph-name="r_calt" unicode="&#xe05a;" horiz-adv-x="328" 
d="M-166 178q19 3 37 11.5t33.5 20.5t31 27.5t27.5 31t23.5 33.5t20 33l16.5 30.5t12 25.5t8 19l4 9q-41 29 -53 79.5t4.5 92.5t50.5 52q27 8 52 -4.5t32 -34.5q6 -21 1 -47t-21.5 -69t-20.5 -58q3 -2 27.5 -17t47 -31t34.5 -29q26 -30 25.5 -66t-26.5 -122
q-32 -107 -19 -139q12 -27 50 48q5 8 9 17q70 145 91 202q6 16 20 2q15 -15 8 -35q-114 -356 -188 -360q-39 -2 -61.5 15t-29 54.5t-2.5 85.5t18 117q4 21 11 53.5l9.5 44t5 31.5t0.5 27.5t-7 20t-14.5 21.5t-24.5 20q-5 -13 -14 -33t-31.5 -57t-48.5 -67.5t-65.5 -57.5
t-81.5 -35q-15 -3 -16 15q0 19 15 23zM61 474q45 121 24 131q-25 13 -34 -33q-10 -50 3 -87q3 -8 7 -11z" />
    <glyph glyph-name="r_calt01" unicode="&#xe05b;" horiz-adv-x="328" 
d="M82 394q-24 18 -35.5 56t-1 74t42.5 45q27 8 52 -4.5t32 -34.5q18 -63 -31 -138q2 -2 14.5 -10t22 -15.5t22.5 -21.5q10 -11 13.5 -30t0.5 -50t-7 -54t-13 -69l-13 -67q-30 -163 38 -38q12 22 27 54q42 88 85 202q6 16 20 2q15 -15 8 -35q-63 -197 -105 -276
q-43 -82 -77 -84q-76 -4 -93.5 69.5t12.5 202.5q14 69 19.5 111t4 57.5t-7.5 16.5q-9 -8 -19 -14t-20 -9t-18 1t-10 16q-1 7 15.5 17.5t21.5 25.5zM112 431q13 16 18.5 40t3.5 41t-10 19q-19 5 -25.5 -17.5t-1.5 -49t15 -33.5z" />
    <glyph glyph-name="fi" unicode="&#xfb01;" horiz-adv-x="454" 
d="M104 306l-8 -4l-1 -130q65 13 99 42t54 76q2 18 5 40.5t3 24.5q2 12 26.5 12.5t47 -9t20.5 -21.5q-21 -186 -15 -228q-1 -16 9 -15q26 4 72 102q20 41 40 95q6 17 21 5q17 -14 10 -32q-62 -160 -101 -214q-45 -60 -87 -47q-63 19 -57 199q-36 -40 -93 -59q12 -6 20 -17
t11 -28t4 -32t-1 -37.5t-3.5 -34.5t-5.5 -33t-4 -24q-7 -46 -25 -113t-37 -75q-28 -13 -50 3.5t-33.5 51.5t-19.5 79t-9.5 86.5t-3.5 73t0 39.5q-36 -21 -48 -18q-14 7 -11.5 24.5t15.5 28.5q11 10 16.5 13t13.5 6t16 7q1 28 2.5 79.5t2.5 89.5t3.5 90t7 91t11.5 83t18 75.5
t25.5 59.5t35.5 43.5t46 18.5q43 6 66.5 -14.5t26.5 -62.5q6 -86 -36 -213t-99 -177zM100 358q46 50 75 157.5t25 178.5q-3 36 -20 41t-30.5 -22.5t-22 -77t-13.5 -92.5t-8.5 -91.5t-3.5 -52.5q-1 -7 -1 -19t-1 -22zM92 120q-10 -241 5 -311q18 60 30.5 121t11.5 123t-27 74
q-12 -3 -21 -6h-1z" />
    <glyph glyph-name="fl" unicode="&#xfb02;" horiz-adv-x="497" 
d="M391 78q15 3 39 53t68 161q3 11 19 1q19 -11 11 -31q-58 -149 -82 -192q-54 -99 -106 -94q-26 2 -48.5 38t-28.5 86q-5 33 -10 117q-38 -53 -104 -74q12 -6 20 -17t11 -28t4 -32t-1 -37.5t-3.5 -34.5t-5.5 -33t-4 -24q-7 -46 -25 -113t-37 -75q-28 -13 -50 3.5
t-33.5 51.5t-19.5 79t-9.5 86.5t-3.5 73t0 39.5q-36 -21 -48 -18q-14 7 -11.5 24.5t15.5 28.5q11 10 16.5 13t13.5 6t16 7q1 28 2.5 79.5t2.5 89.5t3.5 90t7 91t11.5 83t18 75.5t25.5 59.5t35.5 43.5t46 18.5q43 6 66.5 -14.5t26.5 -62.5q6 -86 -36 -213t-99 -177l-8 -4
l-1 -130q67 14 100.5 43.5t54.5 78.5v1q-6 330 61 415q27 35 66.5 39.5t70 -20t36.5 -67.5q5 -32 -2.5 -68t-15.5 -60t-35.5 -68.5t-37.5 -58.5l-47 -66q1 -12 0 -41.5t1 -69t5 -75t13.5 -58t25.5 -19.5zM100 358q46 50 75 157.5t25 178.5q-3 36 -20 41t-30.5 -22.5t-22 -77
t-13.5 -92.5t-8.5 -91.5t-3.5 -52.5q-1 -7 -1 -19t-1 -22zM348 421q31 38 57 93t33 103t-20 67q-31 19 -50 -49q-22 -81 -20 -205v-9zM92 120q-10 -241 5 -311q18 60 30.5 121t11.5 123t-27 74q-12 -3 -21 -6h-1z" />
    <glyph glyph-name="x.002" horiz-adv-x="328" 
d="M347 229q-4 -8 -5 -9q-85 -190 -165 -123q-32 27 -61 116q-7 -16 -17 -36q-21 -42 -39.5 -74t-48.5 -71.5t-66 -63t-74 -25.5l-21 1q-8 1 -13.5 7t-4.5 14t7.5 13.5t14.5 4.5h14q36 2 71 30t66.5 77.5t51 88t42.5 89.5q-12 41 -28 112q-12 -40 -41 -120q-4 -16 -17 -15
q-18 2 -16 28q1 8 4 17q30 89 45 225q1 14 48 10.5t51 -17.5q2 -9 9 -47t13 -63q28 49 58 67q17 7 26 -11q7 -17 -11 -26q-20 -12 -59 -91l15.5 -61t13.5 -46t17.5 -40.5t17.5 -11.5q20 0 35 16t31 51q43 124 112.5 210t143 123.5t149 47.5t135.5 -6.5t97 -49.5
q43 -39 24 -75q-14 -26 -41 -24q-24 2 -35 29q-13 25 -41 43.5t-67 26t-84 4.5t-94 -25.5t-95.5 -61t-91 -105t-76.5 -153.5z" />
    <glyph glyph-name="endash" horiz-adv-x="519" 
d="M449 248q12 0 17 -13t0 -25t-16 -12q-93 1 -190 -0.5t-191 0.5q-12 -1 -16.5 12t1 26t19.5 13q85 -2 177.5 0t198.5 -1z" />
    <glyph glyph-name="bullet" horiz-adv-x="304" 
d="M253 250q-3 -37 -25.5 -65t-52.5 -36t-58.5 -1.5t-47.5 41t-18 89.5q6 44 30.5 73t54.5 34t58.5 -5t46 -45t12.5 -85z" />
    </font>
</defs>
</svg>
